<?xml version="1.0" encoding="UTF-8" standalone="no"?>
<svg
   xmlns:dc="http://purl.org/dc/elements/1.1/"
   xmlns:cc="http://creativecommons.org/ns#"
   xmlns:rdf="http://www.w3.org/1999/02/22-rdf-syntax-ns#"
   xmlns:svg="http://www.w3.org/2000/svg"
   xmlns="http://www.w3.org/2000/svg"
   xmlns:sodipodi="http://sodipodi.sourceforge.net/DTD/sodipodi-0.dtd"
   xmlns:inkscape="http://www.inkscape.org/namespaces/inkscape"
   version="1.1"
   id="zoom-out"
   x="0px"
   y="0px"
   viewBox="0 0 1000 1000"
   style="enable-background:new 0 0 1000 1000;"
   sodipodi:docname="keyboard3.svg"
   inkscape:version="0.92.5 (2060ec1f9f, 2020-04-08)">
  <metadata
     id="metadata9">
    <rdf:RDF>
      <cc:Work
         rdf:about="">
        <dc:format>image/svg+xml</dc:format>
        <dc:type
           rdf:resource="http://purl.org/dc/dcmitype/StillImage" />
      </cc:Work>
    </rdf:RDF>
  </metadata>
  <defs
     id="defs7" />
  <sodipodi:namedview
     pagecolor="#ffffff"
     bordercolor="#666666"
     borderopacity="1"
     objecttolerance="10"
     gridtolerance="10"
     guidetolerance="10"
     inkscape:pageopacity="0"
     inkscape:pageshadow="2"
     inkscape:window-width="1860"
     inkscape:window-height="1016"
     id="namedview5"
     showgrid="false"
     inkscape:zoom="0.236"
     inkscape:cx="500"
     inkscape:cy="500"
     inkscape:window-x="60"
     inkscape:window-y="27"
     inkscape:window-maximized="1"
     inkscape:current-layer="zoom-out" />
  <path
     d="m 168.64916,933.13127 c -1.02544,54.35154 59.34172,79.57473 105.90017,69.97473 180.58419,-0.8012 361.33523,1.7664 541.81748,-1.2673 51.17363,-9.7969 60.72591,-68.29433 54.89053,-111.61406 -0.15323,-274.6613 0.41066,-549.32313 -0.29537,-823.984 C 867.75665,14.279145 809.67926,-5.1820268 765.39556,3.1564507 584.99796,4.0671621 404.37234,1.1718069 224.11396,4.5808728 181.89386,13.088902 162.0305,59.938411 168.64916,99.252428 c 0,277.959612 0,555.919232 0,833.878842 z m 77.32698,-406.25298 c 33.33,0 66.66,0 100,0 0,33.33 0,66.66 0,100 -33.33,0 -66.66,0 -100,0 0,-33.33 0,-66.66 0,-100 z m -0.358,248.65871 c 0,-33.33333 0,-66.66667 0,-100 33.33333,0 66.66667,0 100,0 0,33.33333 0,66.66667 0,100 -33.33333,0 -66.66667,0 -100,0 z m 0.358,-398.65871 c 33.33,0 66.66,0 100,0 0,33.33 0,66.66 0,100 -33.33,0 -66.66,0 -100,0 0,-33.33 0,-66.66 0,-100 z m 124.94033,176.25298 c 0,-33.33333 0,-66.66667 0,-100 33.33333,0 66.66667,0 100,0 0,33.33333 0,66.66667 0,100 -33.33333,0 -66.66667,0 -100,0 z M 245.97614,226.87829 c 33.33,0 66.66,0 100,0 0,33.33 0,66.66 0,100 -33.33,0 -66.66,0 -100,0 0,-33.33 0,-66.66 0,-100 z m 124.94033,176.25298 c 0,-33.33333 0,-66.66667 0,-100 33.33333,0 66.66667,0 100,0 0,33.33333 0,66.66667 0,100 -33.33333,0 -66.66667,0 -100,0 z M 245.97614,76.878287 c 33.33,0 66.66,0 100,0 0,33.330003 0,66.660003 0,100.000003 -33.33,0 -66.66,0 -100,0 0,-33.33 0,-66.66 0,-100.000003 z M 370.91647,253.13127 c 0,-33.33333 0,-66.66667 0,-100 33.33333,0 66.66667,0 100,0 0,33.33333 0,66.66667 0,100 -33.33333,0 -66.66667,0 -100,0 z m 92.4821,448.80668 c -33.33333,0 -66.66667,0 -100,0 0,-33.33333 0,-66.66667 0,-100 33.33333,0 66.66667,0 100,0 0,33.33333 0,66.66667 0,100 z m 3.57995,128.40096 c -33.33333,0 -66.66667,0 -100,0 0,-33.33333 0,-66.66667 0,-100 33.33333,0 66.66667,0 100,0 0,33.33333 0,66.66667 0,100 z M 345.61814,825.537 c 0,33.33333 0,66.66667 0,100 -33.33333,0 -66.66667,0 -100,0 0,-33.33333 0,-66.66667 0,-100 33.33333,0 66.66667,0 100,0 z M 600.75418,296.48572 c 33.33,0 66.66,0 100,0 0,33.33 0,66.66 0,100 -33.33,0 -66.66,0 -100,0 0,-33.33 0,-66.66 0,-100 z m 0,122.26492 c 33.33,0 66.66,0 100,0 0,33.33 0,66.66 0,100 -33.33,0 -66.66,0 -100,0 0,-33.33 0,-66.66 0,-100 z m 0.2339,121.38903 c 33.33,0 66.66,0 100,0 0,33.33 0,66.66 0,100 -33.33,0 -66.66,0 -100,0 0,-33.33 0,-66.66 0,-100 z m -0.2339,122.27446 c 33.33,0 66.66,0 100,0 0,33.33 0,66.66 0,100 -33.33,0 -66.66,0 -100,0 0,-33.33 0,-66.66 0,-100 z M 716.50597,296.48572 c 33.33,0 66.66,0 100,0 0,33.33 0,66.66 0,100 -33.33,0 -66.66,0 -100,0 0,-33.33 0,-66.66 0,-100 z m 0,122.26492 c 33.33,0 66.66,0 100,0 0,33.33 0,66.66 0,100 -33.33,0 -66.66,0 -100,0 0,-33.33 0,-66.66 0,-100 z m 0,121.38903 c 33.33,0 66.66,0 100,0 0,33.33 0,66.66 0,100 -33.33,0 -66.66,0 -100,0 0,-33.33 0,-66.66 0,-100 z m 0,122.27446 c 33.33,0 66.66,0 100,0 0,33.33 0,66.66 0,100 -33.33,0 -66.66,0 -100,0 0,-33.33 0,-66.66 0,-100 z"
     id="path2"
     inkscape:connector-curvature="0" />
</svg>
