<?xml version="1.0" encoding="utf-8"?>
<svg version="1.1" id="keyboard" x="0px" y="0px" viewBox="0 0 1000 1000" style="enable-background:new 0 0 1000 1000;" xmlns="http://www.w3.org/2000/svg">
    <path
       d=
      "M 4.649164,933.13127  c -1.0254414,54.35154 59.341717,79.57473 105.900166,69.97473 180.58419,-0.8012 361.33523,1.7664 541.81748,-1.2673 51.17363,-9.7969 60.72591,-68.29433 54.89053,-111.61406 -0.15323,-274.6613 0.41066,-549.32313 -0.29537,-823.984 
       C 703.75665,14.279145 645.67926,-5.1820268 601.39556,3.1564507 420.99796,4.0671621 240.37234,1.1718069 60.113958,4.5808728 17.893856,13.088902 -1.9695045,59.938411 4.649164,99.252428 c 0,277.959612 0,555.919232 0,833.878842 z 
       M  90,  60 c 33.33,0 66.66,0 100,0 0,33.33 0,66.66 0,100 -33.33,0 -66.66,0 -100,0 0,-33.33 0,-66.66 0,-100 z
       M  90, 190 c 33.33,0 66.66,0 100,0 0,33.33 0,66.66 0,100 -33.33,0 -66.66,0 -100,0 0,-33.33 0,-66.66 0,-100 z
       M  90, 320 c 33.33,0 66.66,0 100,0 0,33.33 0,66.66 0,100 -33.33,0 -66.66,0 -100,0 0,-33.33 0,-66.66 0,-100 z
       M  90, 450 c 33.33,0 66.66,0 100,0 0,33.33 0,66.66 0,100 -33.33,0 -66.66,0 -100,0 0,-33.33 0,-66.66 0,-100 z
       M  90, 580 c 33.33,0 66.66,0 100,0 0,33.33 0,66.66 0,100 -33.33,0 -66.66,0 -100,0 0,-33.33 0,-66.66 0,-100 z
       M  90, 710 c 33.33,0 66.66,0 100,0 0,33.33 0,66.66 0,100 -33.33,0 -66.66,0 -100,0 0,-33.33 0,-66.66 0,-100 z
       M  90, 840 c 33.33,0 66.66,0 100,0 0,33.33 0,66.66 0,100 -33.33,0 -66.66,0 -100,0 0,-33.33 0,-66.66 0,-100 z
       M 220, 125 c 33.33,0 66.66,0 100,0 0,33.33 0,66.66 0,100 -33.33,0 -66.66,0 -100,0 0,-33.33 0,-66.66 0,-100 z
       M 220, 255 c 33.33,0 66.66,0 100,0 0,33.33 0,66.66 0,100 -33.33,0 -66.66,0 -100,0 0,-33.33 0,-66.66 0,-100 z
       M 220, 385 c 33.33,0 66.66,0 100,0 0,33.33 0,66.66 0,100 -33.33,0 -66.66,0 -100,0 0,-33.33 0,-66.66 0,-100 z
       M 220, 515 c 33.33,0 66.66,0 100,0 0,33.33 0,66.66 0,100 -33.33,0 -66.66,0 -100,0 0,-33.33 0,-66.66 0,-100 z
       M 220, 645 c 33.33,0 66.66,0 100,0 0,33.33 0,66.66 0,100 -33.33,0 -66.66,0 -100,0 0,-33.33 0,-66.66 0,-100 z
       M 220, 775 c 33.33,0 66.66,0 100,0 0,33.33 0,66.66 0,100 -33.33,0 -66.66,0 -100,0 0,-33.33 0,-66.66 0,-100 z
       M 430, 296 c 33.33,0 66.66,0 100,0 0,33.33 0,66.66 0,100 -33.33,0 -66.66,0 -100,0 0,-33.33 0,-66.66 0,-100 z
       M 430, 418 c 33.33,0 66.66,0 100,0 0,33.33 0,66.66 0,100 -33.33,0 -66.66,0 -100,0 0,-33.33 0,-66.66 0,-100 z
       M 430, 540 c 33.33,0 66.66,0 100,0 0,33.33 0,66.66 0,100 -33.33,0 -66.66,0 -100,0 0,-33.33 0,-66.66 0,-100 z
       M 430, 662 c 33.33,0 66.66,0 100,0 0,33.33 0,66.66 0,100 -33.33,0 -66.66,0 -100,0 0,-33.33 0,-66.66 0,-100 z
       M 550, 296 c 33.33,0 66.66,0 100,0 0,33.33 0,66.66 0,100 -33.33,0 -66.66,0 -100,0 0,-33.33 0,-66.66 0,-100 z
       M 550, 418 c 33.33,0 66.66,0 100,0 0,33.33 0,66.66 0,100 -33.33,0 -66.66,0 -100,0 0,-33.33 0,-66.66 0,-100 z
       M 550, 540 c 33.33,0 66.66,0 100,0 0,33.33 0,66.66 0,100 -33.33,0 -66.66,0 -100,0 0,-33.33 0,-66.66 0,-100 z
       M 550, 662 c 33.33,0 66.66,0 100,0 0,33.33 0,66.66 0,100 -33.33,0 -66.66,0 -100,0 0,-33.33 0,-66.66 0,-100 z
       "
    />
</svg>
