<?xml version="1.0" encoding="utf-8"?>
<svg version="1.1" id="backward" x="0px" y="0px" viewBox="0 0 1000 1000" style="enable-background:new 0 0 1000 1000;" xmlns="http://www.w3.org/2000/svg">
  <path d="M 905.5 921.5 C 910.5 927.5 918.5 931.5 922.5 927.5 C 926.5 925.5 930.5 919.5 930.5 910.5 L 930.5 89.5 C 930.5 80.5 926.5 74.5 922.5 72.5 C 918.5 68.5 910.5 72.5 905.5 78.5 L 508.5 474.5 C 504.5 478.5 502.5 482.5 500.5 486.5 L 500.5 89.5 C 500.5 80.5 498.5 74.5 494.5 72.5 C 488.5 68.5 483.5 72.5 475.5 78.5 L 80.5 474.5 C 72.5 482.5 69.5 490.5 69.5 500.5 C 69.5 509.5 72.5 517.5 80.5 525.5 L 475.5 921.5 C 483.5 927.5 488.5 931.5 494.5 927.5 C 498.5 925.5 500.5 919.5 500.5 910.5 L 500.5 513.5 C 502.5 519.5 504.5 521.5 508.5 525.5 Z" horiz-adv-x="1000"/>
</svg>