<?xml version="1.0" encoding="utf-8"?>
<svg version="1.1" id="circle-error" x="0px" y="0px" viewBox="0 0 1000 1000" style="enable-background:new 0 0 1000 1000;" xmlns="http://www.w3.org/2000/svg">
  <g transform="matrix(19.061331, 0, 0, 19.061331, 0, 0)">
    <path d="M26,0C11.664,0,0,11.663,0,26s11.664,26,26,26s26-11.663,26-26S40.336,0,26,0z M26,50C12.767,50,2,39.233,2,26&#10;&#9;&#9;S12.767,2,26,2s24,10.767,24,24S39.233,50,26,50z"/>
  </g>
  <path d="M 743.209 748.175 C 727.095 763.998 699.405 761.468 680.741 742.461 L 499.744 558.136 L 319.259 741.938 C 300.595 760.945 272.905 763.476 256.792 747.652 C 238.604 733.94 242.704 704.099 261.369 685.091 L 442.887 500.236 L 260.903 314.907 C 242.242 295.902 240.215 268.171 256.328 252.349 C 272.442 236.526 300.132 239.056 318.794 258.061 L 499.744 442.336 L 681.206 257.538 C 699.867 238.533 727.558 236.001 743.673 251.825 C 759.786 267.646 757.757 295.378 739.096 314.383 L 556.598 500.236 L 738.632 685.616 C 757.295 704.623 761.397 734.464 743.209 748.175 Z"/>
</svg>