<?xml version="1.0" encoding="utf-8"?>
<svg version="1.1" id="circle-tick" x="0px" y="0px" viewBox="0 0 1000 1000" style="enable-background:new 0 0 1000 1000;" xmlns="http://www.w3.org/2000/svg">
  <path d="M 845.704 341.282 C 832.933 328.466 812.288 328.466 799.517 341.282 L 353.629 639.674 L 197.905 450.626 C 185.135 437.805 164.492 437.805 151.721 450.626 C 138.952 463.448 138.952 484.173 151.721 496.995 L 330.537 709.226 C 336.903 715.62 345.266 718.835 353.629 718.835 C 361.991 718.835 370.352 715.62 376.718 709.226 L 845.704 387.649 C 858.476 374.83 858.476 354.106 845.704 341.282 Z" transform="matrix(0.999957, -0.009263, 0.009263, 0.999957, -4.610154, 4.65306)"/>
  <path d="M 499.998 996.827 C 226.058 996.827 3.171 773.959 3.171 500.002 C 3.171 226.043 226.058 3.172 499.998 3.172 C 773.942 3.172 996.829 226.043 996.829 500.002 C 996.829 773.959 773.942 996.827 499.998 996.827 Z M 499.998 35.224 C 243.713 35.224 35.223 243.73 35.223 500.002 C 35.223 756.274 243.713 964.777 499.998 964.777 C 756.287 964.777 964.776 756.274 964.776 500.002 C 964.776 243.73 756.287 35.224 499.998 35.224 Z"/>
</svg>