<?xml version="1.0" encoding="utf-8"?>
<svg version="1.1" id="circle-exclamation" x="0px" y="0px" viewBox="0 0 1000 1000" style="enable-background:new 0 0 1000 1000;" xmlns="http://www.w3.org/2000/svg">
  <path d="M 499.998 996.828 C 226.058 996.828 3.171 773.959 3.171 500.002 C 3.171 226.043 226.058 3.172 499.998 3.172 C 773.942 3.172 996.829 226.043 996.829 500.002 C 996.829 773.959 773.942 996.828 499.998 996.828 Z M 499.998 35.224 C 243.713 35.224 35.223 243.73 35.223 500.002 C 35.223 756.274 243.713 964.777 499.998 964.777 C 756.287 964.777 964.776 756.274 964.776 500.002 C 964.776 243.73 756.287 35.224 499.998 35.224 Z"/>
  <path d="M 465.599 644.023 L 465.599 207.672 C 465.599 188.277 480.031 172.834 498.156 172.834 C 516.281 172.834 530.714 188.277 530.714 207.672 L 530.714 644.023 C 530.714 663.42 516.281 678.863 498.156 678.863 C 480.031 681.018 465.599 663.42 465.599 644.023 Z"/>
  <path d="M 536.248 790.916 C 536.248 810.889 519.969 827.165 500.001 827.165 C 480.029 827.165 463.751 810.888 463.751 790.916 C 463.751 770.946 480.031 754.669 500.001 754.669 C 519.969 754.669 536.248 770.948 536.248 790.916 Z"/>
</svg>