<?xml version="1.0" encoding="utf-8"?>
<svg version="1.1" id="circle-question" x="0px" y="0px" viewBox="0 0 1000 1000" style="enable-background:new 0 0 1000 1000;" xmlns="http://www.w3.org/2000/svg">
  <path d="M 588.619 268.104 C 604.766 290.05 612.783 315.926 612.783 345.728 C 612.783 367.051 607.248 387.564 596.24 407.389 C 590.198 418.611 582.241 429.461 572.302 439.809 L 539.218 475.909 C 507.488 510.326 492.336 526.289 482.963 552.977 C 473.591 579.598 463.563 626.11 463.563 669.629 C 463.563 669.629 469.01 697.237 497.026 698.672 C 522.028 699.953 530.775 664.442 530.775 664.442 C 536.117 615.726 541.136 605.404 548.984 585.765 C 556.831 566.125 573.995 542.185 600.474 513.815 C 636.888 474.846 661.053 445.296 673.022 425.218 C 684.99 405.142 691.032 378.957 691.032 346.66 C 691.032 293.417 674.717 249.647 642.027 215.357 C 609.339 181.065 565.866 163.983 511.552 163.983 C 452.835 163.983 406.652 183.994 373.003 224.023 C 339.353 264.052 325.733 307.586 325.733 371.287 C 325.733 371.287 332.102 399.612 357.89 399.293 C 390.328 398.893 392.945 373.362 392.945 373.362 C 394.298 333.771 403.209 312.806 413.088 291.794 C 430.703 254.075 462.546 235.183 508.614 235.183 C 545.822 235.185 572.527 246.158 588.619 268.104 Z"/>
  <path d="M 499.998 996.828 C 226.058 996.828 3.171 773.959 3.171 500.002 C 3.171 226.043 226.058 3.172 499.998 3.172 C 773.942 3.172 996.829 226.043 996.829 500.002 C 996.829 773.959 773.942 996.828 499.998 996.828 Z M 499.998 35.224 C 243.713 35.224 35.223 243.73 35.223 500.002 C 35.223 756.274 243.713 964.777 499.998 964.777 C 756.287 964.777 964.776 756.274 964.776 500.002 C 964.776 243.73 756.287 35.224 499.998 35.224 Z"/>
  <path d="M 536.248 790.916 C 536.248 810.889 519.969 827.165 500.001 827.165 C 480.029 827.165 463.751 810.888 463.751 790.916 C 463.751 770.946 480.031 754.669 500.001 754.669 C 519.969 754.669 536.248 770.948 536.248 790.916 Z"/>
</svg>