<?xml version="1.0" encoding="utf-8"?>
<svg version="1.1" id="circle-R" x="0px" y="0px" viewBox="0 0 1000 1000" style="enable-background:new 0 0 1000 1000;" xmlns="http://www.w3.org/2000/svg">
  <path d="M 496.827 993.655 C 222.887 993.655 0 770.787 0 496.83 C 0 222.871 222.887 0 496.827 0 C 770.771 0 993.658 222.871 993.658 496.83 C 993.658 770.787 770.771 993.655 496.827 993.655 Z M 496.827 32.052 C 240.542 32.052 32.052 240.558 32.052 496.83 C 32.052 753.102 240.542 961.605 496.827 961.605 C 753.116 961.605 961.605 753.102 961.605 496.83 C 961.605 240.558 753.116 32.052 496.827 32.052 Z"/>
  <path d="M 339.254 768.018 L 339.254 218.191 L 476.779 218.191 L 476.779 218.191 C 506.795 218.191 534.218 220.745 559.048 225.849 L 559.048 225.849 L 559.048 225.849 C 583.878 230.955 605.027 239.555 622.49 251.649 L 622.49 251.649 L 622.49 251.649 C 639.952 263.742 653.325 279.73 662.601 299.617 L 662.601 299.617 L 662.601 299.617 C 671.878 319.503 676.518 344.496 676.518 374.593 L 676.518 374.593 L 676.518 374.593 C 675.971 407.916 670.241 434.924 659.327 455.616 L 659.327 455.616 L 659.327 455.616 C 648.413 476.309 635.04 492.97 619.215 505.6 L 619.215 505.6 L 619.215 505.6 C 603.389 518.232 585.106 527.503 564.369 533.415 L 564.369 533.415 L 564.369 535.026 L 564.369 535.026 C 566.553 537.177 569.962 541.073 574.602 546.716 L 574.602 546.716 L 574.602 546.716 C 579.241 552.361 583.197 557.333 586.471 561.631 L 586.471 561.631 L 744.461 768.018 L 663.419 768.018 L 501.337 549.538 L 408.017 549.538 L 408.017 768.018 L 339.254 768.018 Z M 606.936 385.88 L 606.936 385.88 L 606.936 385.88 C 606.936 363.307 604.071 344.899 598.341 330.656 L 598.341 330.656 L 598.341 330.656 C 592.611 316.412 584.152 305.529 572.964 298.005 L 572.964 298.005 L 572.964 298.005 C 561.776 290.48 547.997 285.373 531.625 282.687 L 531.625 282.687 L 531.625 282.687 C 515.253 280 496.697 278.655 475.96 278.655 L 475.96 278.655 L 408.017 278.655 L 408.017 489.074 L 489.057 489.074 L 489.057 489.074 C 510.341 489.074 528.351 486.387 543.085 481.012 L 543.085 481.012 L 543.085 481.012 C 557.82 475.636 569.827 468.247 579.104 458.841 L 579.104 458.841 L 579.104 458.841 C 588.381 449.435 595.204 438.551 599.569 426.19 L 599.569 426.19 L 599.569 426.19 C 603.935 413.829 606.39 400.392 606.936 385.88 Z" style="fill: rgb(51, 51, 51); white-space: pre;"/>
</svg>
