<?xml version="1.0" encoding="utf-8"?>
<svg version="1.1" id="clef-bass" x="0px" y="0px" viewBox="0 0 1000 1000" style="enable-background:new 0 0 1000 1000;" xmlns="http://www.w3.org/2000/svg">
  <path d="M 340.457 6.913 C 353.937 5.634 402.234 6.913 420.207 8.19 C 554.997 26.109 645.984 97.775 679.679 215.513 C 689.789 251.349 693.161 279.505 693.161 325.573 C 693.161 363.968 692.036 383.164 686.421 417.718 C 657.214 578.971 553.875 719.743 373.031 842.603 C 307.88 887.394 228.131 933.469 141.637 975.697 C 127.035 983.377 113.556 989.776 111.309 991.055 C 109.063 992.335 105.694 993.616 104.571 993.616 C 98.954 993.616 92.215 985.936 92.215 979.537 C 92.215 973.139 94.462 970.582 111.309 959.062 C 223.638 883.554 303.388 822.125 367.413 756.856 C 386.51 737.662 426.945 692.869 440.426 673.675 C 511.193 580.25 548.26 489.386 558.369 384.445 C 560.615 366.526 560.615 308.938 558.369 291.021 C 549.382 205.276 523.547 136.169 481.984 90.097 C 458.398 63.222 433.687 46.585 404.48 38.907 C 343.825 22.269 278.677 45.305 233.747 100.336 C 213.529 125.928 194.432 163.044 184.321 195.037 L 180.952 203.997 L 189.94 198.875 C 204.54 189.92 213.529 188.639 231.499 188.639 C 242.732 188.639 248.349 188.639 256.212 191.197 C 328.099 211.673 362.919 299.98 329.224 378.045 C 312.375 420.279 276.428 447.154 237.115 450.994 C 182.076 454.829 128.16 413.881 110.189 355.01 C 103.449 330.695 102.324 298.701 109.063 257.748 C 123.665 161.764 177.584 78.579 251.717 36.346 C 277.553 20.988 311.252 10.751 340.457 6.913 Z"/>
  <path d="M 862.034 434.356 C 893.484 425.399 926.059 447.154 932.802 482.987 C 940.663 520.098 921.565 555.934 890.116 563.615 C 857.543 572.57 826.09 550.815 819.351 514.983 C 811.487 479.145 830.583 442.034 862.034 434.356 Z"/>
  <path d="M 862.034 114.412 C 893.484 105.453 926.059 127.21 932.802 163.044 C 944.034 212.954 905.84 256.466 862.034 243.669 C 824.968 234.714 805.872 187.359 823.843 147.685 C 830.583 131.05 846.309 118.252 862.034 114.412 Z"/>
</svg>