<?xml version="1.0" encoding="utf-8"?>
<svg version="1.1" id="close" x="0px" y="0px" viewBox="0 0 1000 1000" style="enable-background:new 0 0 1000 1000;" xmlns="http://www.w3.org/2000/svg">
  <path d="M 453.912 499.52 L 29.519 75.127 C 17.037 62.646 17.037 43.443 29.519 31.921 C 35.28 26.16 42.962 23.279 50.643 23.279 C 58.325 23.279 66.005 26.16 71.766 31.921 L 500 460.153 L 928.233 31.921 C 933.994 26.16 941.675 23.279 949.356 23.279 C 957.037 23.279 964.719 26.16 971.44 31.921 C 982.962 43.443 982.962 62.646 971.44 75.127 L 546.088 499.52 L 971.44 924.873 C 982.962 937.355 982.962 956.558 971.44 968.08 C 959.918 979.602 940.715 979.602 928.233 968.08 L 500 539.847 L 71.766 968.08 C 60.244 979.602 41.042 979.602 28.56 968.08 C 17.037 956.558 17.037 937.355 28.56 924.873 L 453.912 499.52 Z" horiz-adv-x="1000"/>
</svg>