<?xml version="1.0" encoding="utf-8"?>
<svg version="1.1" id="n1" x="0px" y="0px" viewBox="0 0 1000 1000" style="enable-background:new 0 0 1000 1000;" xmlns="http://www.w3.org/2000/svg">
  <path d="M 244.597 167.084 C 244.597 187.457 226.665 204.611 203.513 204.611 C 179.386 204.611 164.386 186.107 164.386 172.689 C 164.386 166.065 171.064 161.309 176.937 161.309 C 188.022 161.309 185.411 181.181 203.835 181.181 C 212.31 181.181 219.166 174.387 219.166 165.385 C 219.166 141.616 191.446 159.101 191.446 139.068 C 191.446 121.235 214.598 133.294 214.598 114.441 C 214.598 107.995 210.2 103.07 202.861 103.07 C 187.378 103.07 189.497 119.706 178.412 119.706 C 171.725 119.706 167.81 113.43 167.81 107.146 C 167.81 93.907 185.259 79.631 203.352 79.631 C 226.827 79.631 238.081 97.474 238.081 110.713 C 238.081 121.413 233.683 130.754 224.717 136.69 C 236.445 142.303 244.598 153.674 244.597 167.084 Z" horiz-adv-x="1000"/>
  <path d="M 320.896 143.027 C 320.896 222.023 273.867 286.054 215.862 286.054 C 196.449 286.054 178.266 278.882 162.664 266.379 C 146.219 280.664 126.658 288.948 105.668 288.948 C 47.313 288.948 0 224.917 0 145.921 C 0 66.934 47.313 2.894 105.668 2.894 C 125.204 2.894 143.5 10.069 159.199 22.579 C 175.547 8.288 194.994 0 215.862 0 C 273.867 0 320.896 64.04 320.896 143.027 Z M 162.261 233.462 C 176.911 249.582 195.558 259.236 215.862 259.236 C 262.996 259.236 301.202 207.21 301.202 143.027 C 301.202 78.844 262.996 26.818 215.862 26.818 C 194.603 26.818 175.161 37.401 160.221 54.909 C 160.171 54.826 160.121 54.744 160.07 54.661 C 159.91 54.936 159.751 55.212 159.593 55.488 C 144.855 39.366 126.095 29.712 105.668 29.712 C 58.25 29.712 19.813 81.738 19.813 145.921 C 19.813 210.104 58.25 262.13 105.668 262.13 C 127.055 262.13 146.614 251.547 161.644 234.039 C 161.693 234.12 161.742 234.2 161.792 234.28 C 161.949 234.008 162.105 233.736 162.261 233.462 Z" horiz-adv-x="1000" style=""/>
  <path d="M 154.528 189.927 C 154.528 197.856 148.261 202.424 141.262 202.424 L 79.734 202.424 C 71.635 202.424 65.369 198.982 65.369 191.044 C 65.369 187.424 67.774 184.313 69.615 182.248 C 84.901 165.165 101.483 149.638 115.482 130.669 C 118.798 126.181 121.936 120.827 121.936 114.623 C 121.936 107.543 116.224 101.339 108.67 101.339 C 87.484 101.339 97.067 129.837 79.376 129.837 C 70.535 129.837 65.931 123.982 65.931 117.251 C 65.931 95.511 87.117 77.534 109.778 77.534 C 132.43 77.534 148.994 91.506 148.994 113.416 C 148.994 137.399 123.803 158.693 108.142 177.152 L 140.18 177.152 C 148.279 177.152 154.528 181.997 154.528 189.927 Z" horiz-adv-x="1000"/>
</svg>