<?xml version="1.0" encoding="utf-8"?>
<svg version="1.1" id="n1" x="0px" y="0px" viewBox="0 0 1000 1000" style="enable-background:new 0 0 1000 1000;" xmlns="http://www.w3.org/2000/svg">
  <path d="M 320.896 143.027 C 320.896 222.023 273.867 286.054 215.862 286.054 C 196.449 286.054 178.266 278.882 162.664 266.379 C 146.219 280.664 126.658 288.948 105.668 288.948 C 47.313 288.948 0 224.917 0 145.921 C 0 66.934 47.313 2.894 105.668 2.894 C 125.204 2.894 143.5 10.069 159.199 22.579 C 175.547 8.288 194.994 0 215.862 0 C 273.867 0 320.896 64.04 320.896 143.027 Z M 162.261 233.462 C 176.911 249.582 195.558 259.236 215.862 259.236 C 262.996 259.236 301.202 207.21 301.202 143.027 C 301.202 78.844 262.996 26.818 215.862 26.818 C 194.603 26.818 175.161 37.401 160.221 54.909 C 160.171 54.826 160.121 54.744 160.07 54.661 C 159.91 54.936 159.751 55.212 159.593 55.488 C 144.855 39.366 126.095 29.712 105.668 29.712 C 58.25 29.712 19.813 81.738 19.813 145.921 C 19.813 210.104 58.25 262.13 105.668 262.13 C 127.055 262.13 146.614 251.547 161.644 234.039 C 161.693 234.12 161.742 234.2 161.792 234.28 C 161.949 234.008 162.105 233.736 162.261 233.462 Z" horiz-adv-x="1000" style=""/>
  <path d="M 156.87 187.139 C 156.87 195.068 150.603 199.636 143.604 199.636 L 82.076 199.636 C 73.977 199.636 67.711 196.194 67.711 188.256 C 67.711 184.636 70.116 181.525 71.957 179.46 C 87.243 162.377 103.825 146.85 117.824 127.881 C 121.14 123.393 124.278 118.039 124.278 111.835 C 124.278 104.755 118.566 98.551 111.012 98.551 C 89.826 98.551 99.409 127.049 81.718 127.049 C 72.877 127.049 68.273 121.194 68.273 114.463 C 68.273 92.723 89.459 74.746 112.12 74.746 C 134.772 74.746 151.336 88.718 151.336 110.628 C 151.336 134.611 126.145 155.905 110.484 174.364 L 142.522 174.364 C 150.621 174.364 156.87 179.209 156.87 187.139 Z" horiz-adv-x="1000"/>
  <path d="M 242.361 149.977 L 237.319 149.977 L 237.319 97.37 C 237.319 81.78 228.925 75.433 218.386 75.433 C 208.937 75.433 203.851 78.526 199.855 85.373 L 159.155 154.938 C 158.064 156.645 156.607 158.71 156.607 162.483 C 156.607 166.935 160.424 172.593 169.327 172.593 L 213.12 172.593 L 213.12 187.155 C 213.12 196.246 214.97 200.519 224.24 200.519 C 233.51 200.519 237.318 196.237 237.318 187.155 L 237.318 172.593 L 242.36 172.593 C 249.449 172.593 255.08 168.141 255.08 161.276 C 255.081 154.428 249.45 149.977 242.361 149.977 Z M 213.675 149.977 L 188.779 149.977 L 213.308 102.161 L 213.675 102.161 L 213.675 149.977 Z" horiz-adv-x="1000"/>
</svg>