<?xml version="1.0" encoding="utf-8"?>
<svg version="1.1" id="n1" x="0px" y="0px" viewBox="0 0 1000 1000" style="enable-background:new 0 0 1000 1000;" xmlns="http://www.w3.org/2000/svg">
  <path d="M 320.896 143.027 C 320.896 222.023 273.867 286.054 215.862 286.054 C 196.449 286.054 178.266 278.882 162.664 266.379 C 146.219 280.664 126.658 288.948 105.668 288.948 C 47.313 288.948 0 224.917 0 145.921 C 0 66.934 47.313 2.894 105.668 2.894 C 125.204 2.894 143.5 10.069 159.199 22.579 C 175.547 8.288 194.994 0 215.862 0 C 273.867 0 320.896 64.04 320.896 143.027 Z M 162.261 233.462 C 176.911 249.582 195.558 259.236 215.862 259.236 C 262.996 259.236 301.202 207.21 301.202 143.027 C 301.202 78.844 262.996 26.818 215.862 26.818 C 194.603 26.818 175.161 37.401 160.221 54.909 C 160.171 54.826 160.121 54.744 160.07 54.661 C 159.91 54.936 159.751 55.212 159.593 55.488 C 144.855 39.366 126.095 29.712 105.668 29.712 C 58.25 29.712 19.813 81.738 19.813 145.921 C 19.813 210.104 58.25 262.13 105.668 262.13 C 127.055 262.13 146.614 251.547 161.644 234.039 C 161.693 234.12 161.742 234.2 161.792 234.28 C 161.949 234.008 162.105 233.736 162.261 233.462 Z" horiz-adv-x="1000" style=""/>
  <path d="M 250.888 154.38 C 250.888 183.253 233.93 202.276 202.071 202.276 C 188.993 202.276 161.55 194.32 161.55 179.106 C 161.55 172.715 167.253 167.351 174.065 167.351 C 181.431 167.351 190.281 178.409 202.626 178.409 C 215.516 178.409 222.149 166.663 222.149 155.766 C 222.149 145.388 215.882 138.308 204.458 138.308 C 193.767 138.308 192.113 144.011 182.718 144.011 C 175.54 144.011 171.857 138.826 171.857 135.885 C 171.857 133.641 172.223 131.907 172.411 130.012 L 177.015 93.531 C 178.668 80.042 182.548 77.101 191.38 77.101 L 235.781 77.101 C 244.247 77.101 249.226 81.767 249.226 87.989 C 249.226 99.923 239.652 100.96 236.336 100.96 L 201.706 100.96 L 198.944 119.285 C 203.36 118.436 208.142 117.569 212.755 117.569 C 235.049 117.569 250.889 134.16 250.888 154.38 Z" horiz-adv-x="1000"/>
  <path d="M 149.904 161.495 C 149.904 181.868 131.972 199.022 108.82 199.022 C 84.693 199.022 69.693 180.518 69.693 167.1 C 69.693 160.476 76.371 155.72 82.244 155.72 C 93.329 155.72 90.718 175.592 109.142 175.592 C 117.617 175.592 124.473 168.798 124.473 159.796 C 124.473 136.027 96.753 153.512 96.753 133.479 C 96.753 115.646 119.905 127.705 119.905 108.852 C 119.905 102.406 115.507 97.481 108.168 97.481 C 92.685 97.481 94.804 114.117 83.719 114.117 C 77.032 114.117 73.117 107.841 73.117 101.557 C 73.117 88.318 90.566 74.042 108.659 74.042 C 132.134 74.042 143.388 91.885 143.388 105.124 C 143.388 115.824 138.99 125.165 130.024 131.101 C 141.752 136.714 149.905 148.085 149.904 161.495 Z" horiz-adv-x="1000"/>
</svg>