<?xml version="1.0" encoding="utf-8"?>
<svg version="1.1" id="n1" x="0px" y="0px" viewBox="0 0 1000 1000" style="enable-background:new 0 0 1000 1000;" xmlns="http://www.w3.org/2000/svg">
  <path d="M 320.896 143.027 C 320.896 222.023 273.867 286.054 215.862 286.054 C 196.449 286.054 178.266 278.882 162.664 266.379 C 146.219 280.664 126.658 288.948 105.668 288.948 C 47.313 288.948 0 224.917 0 145.921 C 0 66.934 47.313 2.894 105.668 2.894 C 125.204 2.894 143.5 10.069 159.199 22.579 C 175.547 8.288 194.994 0 215.862 0 C 273.867 0 320.896 64.04 320.896 143.027 Z M 162.261 233.462 C 176.911 249.582 195.558 259.236 215.862 259.236 C 262.996 259.236 301.202 207.21 301.202 143.027 C 301.202 78.844 262.996 26.818 215.862 26.818 C 194.603 26.818 175.161 37.401 160.221 54.909 C 160.171 54.826 160.121 54.744 160.07 54.661 C 159.91 54.936 159.751 55.212 159.593 55.488 C 144.855 39.366 126.095 29.712 105.668 29.712 C 58.25 29.712 19.813 81.738 19.813 145.921 C 19.813 210.104 58.25 262.13 105.668 262.13 C 127.055 262.13 146.614 251.547 161.644 234.039 C 161.693 234.12 161.742 234.2 161.792 234.28 C 161.949 234.008 162.105 233.736 162.261 233.462 Z" horiz-adv-x="1000" style=""/>
  <path d="M 147.276 152.9 L 142.234 152.9 L 142.234 100.293 C 142.234 84.703 133.84 78.356 123.301 78.356 C 113.852 78.356 108.766 81.449 104.77 88.296 L 64.07 157.861 C 62.979 159.568 61.522 161.633 61.522 165.406 C 61.522 169.858 65.339 175.516 74.242 175.516 L 118.035 175.516 L 118.035 190.078 C 118.035 199.169 119.885 203.442 129.155 203.442 C 138.425 203.442 142.233 199.16 142.233 190.078 L 142.233 175.516 L 147.275 175.516 C 154.364 175.516 159.995 171.064 159.995 164.199 C 159.996 157.351 154.365 152.9 147.276 152.9 Z M 118.59 152.9 L 93.694 152.9 L 118.223 105.084 L 118.59 105.084 L 118.59 152.9 Z" horiz-adv-x="1000"/>
  <path d="M 256.743 156.906 C 256.743 185.779 239.785 204.802 207.926 204.802 C 194.848 204.802 167.405 196.846 167.405 181.632 C 167.405 175.241 173.108 169.877 179.92 169.877 C 187.286 169.877 196.136 180.935 208.481 180.935 C 221.371 180.935 228.004 169.189 228.004 158.292 C 228.004 147.914 221.737 140.834 210.313 140.834 C 199.622 140.834 197.968 146.537 188.573 146.537 C 181.395 146.537 177.712 141.352 177.712 138.411 C 177.712 136.167 178.078 134.433 178.266 132.538 L 182.87 96.057 C 184.523 82.568 188.403 79.627 197.235 79.627 L 241.636 79.627 C 250.102 79.627 255.081 84.293 255.081 90.515 C 255.081 102.449 245.507 103.486 242.191 103.486 L 207.561 103.486 L 204.799 121.811 C 209.215 120.962 213.997 120.095 218.61 120.095 C 240.904 120.095 256.744 136.686 256.743 156.906 Z" horiz-adv-x="1000"/>
</svg>