<?xml version="1.0" encoding="utf-8"?>
<svg version="1.1" id="n1" x="0px" y="0px" viewBox="0 0 1000 1000" style="enable-background:new 0 0 1000 1000;" xmlns="http://www.w3.org/2000/svg">
  <path d="M 208.702 167.302 C 208.702 187.675 190.77 204.829 167.618 204.829 C 143.491 204.829 128.491 186.325 128.491 172.907 C 128.491 166.283 135.169 161.527 141.042 161.527 C 152.127 161.527 149.516 181.399 167.94 181.399 C 176.415 181.399 183.271 174.605 183.271 165.603 C 183.271 141.834 155.551 159.319 155.551 139.286 C 155.551 121.453 178.703 133.512 178.703 114.659 C 178.703 108.213 174.305 103.288 166.966 103.288 C 151.483 103.288 153.602 119.924 142.517 119.924 C 135.83 119.924 131.915 113.648 131.915 107.364 C 131.915 94.125 149.364 79.849 167.457 79.849 C 190.932 79.849 202.186 97.692 202.186 110.931 C 202.186 121.631 197.788 130.972 188.822 136.908 C 200.55 142.521 208.703 153.892 208.702 167.302 Z" horiz-adv-x="1000"/>
  <path d="M 444.58 144.08 C 444.58 223.076 375.277 286.054 296.29 286.054 C 269.744 286.054 244.886 278.821 223.58 266.219 C 201.27 280.602 174.701 288.948 146.185 288.948 C 67.198 288.948 0 224.917 0 145.921 C 0 66.934 67.198 2.894 146.185 2.894 C 172.733 2.894 197.592 10.127 218.897 22.73 C 241.207 8.347 267.775 0 296.29 0 C 375.277 0 444.58 65.093 444.58 144.08 Z M 223.301 233.462 C 243.251 249.582 268.642 259.236 296.29 259.236 C 360.473 259.236 417.762 208.263 417.762 144.08 C 417.762 79.897 360.473 26.818 296.29 26.818 C 267.342 26.818 240.868 37.401 220.524 54.909 C 220.371 54.724 220.217 54.539 220.063 54.354 C 219.765 54.73 219.469 55.108 219.175 55.488 C 199.226 39.366 173.833 29.712 146.185 29.712 C 82.002 29.712 26.818 81.738 26.818 145.921 C 26.818 210.104 82.002 262.13 146.185 262.13 C 175.133 262.13 201.607 251.547 221.951 234.039 C 222.105 234.225 222.259 234.411 222.413 234.596 C 222.711 234.219 223.007 233.841 223.301 233.462 Z" horiz-adv-x="1000"/>
  <path d="M 296.44 153.141 L 291.398 153.141 L 291.398 100.534 C 291.398 84.944 283.004 78.597 272.465 78.597 C 263.016 78.597 257.93 81.69 253.934 88.537 L 213.234 158.102 C 212.143 159.809 210.686 161.874 210.686 165.647 C 210.686 170.099 214.503 175.757 223.406 175.757 L 267.199 175.757 L 267.199 190.319 C 267.199 199.41 269.049 203.683 278.319 203.683 C 287.589 203.683 291.397 199.401 291.397 190.319 L 291.397 175.757 L 296.439 175.757 C 303.528 175.757 309.159 171.305 309.159 164.44 C 309.16 157.592 303.529 153.141 296.44 153.141 Z M 267.754 153.141 L 242.858 153.141 L 267.387 105.325 L 267.754 105.325 L 267.754 153.141 Z" horiz-adv-x="1000"/>
  <path d="M 395.591 156.989 C 395.591 185.862 378.633 204.885 346.774 204.885 C 333.696 204.885 306.253 196.929 306.253 181.715 C 306.253 175.324 311.956 169.96 318.768 169.96 C 326.134 169.96 334.984 181.018 347.329 181.018 C 360.219 181.018 366.852 169.272 366.852 158.375 C 366.852 147.997 360.585 140.917 349.161 140.917 C 338.47 140.917 336.816 146.62 327.421 146.62 C 320.243 146.62 316.56 141.435 316.56 138.494 C 316.56 136.25 316.926 134.516 317.114 132.621 L 321.718 96.14 C 323.371 82.651 327.251 79.71 336.083 79.71 L 380.484 79.71 C 388.95 79.71 393.929 84.376 393.929 90.598 C 393.929 102.532 384.355 103.569 381.039 103.569 L 346.409 103.569 L 343.647 121.894 C 348.063 121.045 352.845 120.178 357.458 120.178 C 379.752 120.178 395.592 136.769 395.591 156.989 Z" horiz-adv-x="1000"/>
  <path d="M 130.344 188.824 C 130.344 196.753 124.077 201.321 117.078 201.321 L 55.55 201.321 C 47.451 201.321 41.185 197.879 41.185 189.941 C 41.185 186.321 43.59 183.21 45.431 181.145 C 60.717 164.062 77.299 148.535 91.298 129.566 C 94.614 125.078 97.752 119.724 97.752 113.52 C 97.752 106.44 92.04 100.236 84.486 100.236 C 63.3 100.236 72.883 128.734 55.192 128.734 C 46.351 128.734 41.747 122.879 41.747 116.148 C 41.747 94.408 62.933 76.431 85.594 76.431 C 108.246 76.431 124.81 90.403 124.81 112.313 C 124.81 136.296 99.619 157.59 83.958 176.049 L 115.996 176.049 C 124.095 176.049 130.344 180.894 130.344 188.824 Z" horiz-adv-x="1000"/>
</svg>