<?xml version="1.0" encoding="utf-8"?>
<svg version="1.1" id="n1" x="0px" y="0px" viewBox="0 0 1000 1000" style="enable-background:new 0 0 1000 1000;" xmlns="http://www.w3.org/2000/svg">
  <path d="M 320.896 143.027 C 320.896 222.023 273.867 286.054 215.862 286.054 C 196.449 286.054 178.266 278.882 162.664 266.379 C 146.219 280.664 126.658 288.948 105.668 288.948 C 47.313 288.948 0 224.917 0 145.921 C 0 66.934 47.313 2.894 105.668 2.894 C 125.204 2.894 143.5 10.069 159.199 22.579 C 175.547 8.288 194.994 0 215.862 0 C 273.867 0 320.896 64.04 320.896 143.027 Z M 162.261 233.462 C 176.911 249.582 195.558 259.236 215.862 259.236 C 262.996 259.236 301.202 207.21 301.202 143.027 C 301.202 78.844 262.996 26.818 215.862 26.818 C 194.603 26.818 175.161 37.401 160.221 54.909 C 160.171 54.826 160.121 54.744 160.07 54.661 C 159.91 54.936 159.751 55.212 159.593 55.488 C 144.855 39.366 126.095 29.712 105.668 29.712 C 58.25 29.712 19.813 81.738 19.813 145.921 C 19.813 210.104 58.25 262.13 105.668 262.13 C 127.055 262.13 146.614 251.547 161.644 234.039 C 161.693 234.12 161.742 234.2 161.792 234.28 C 161.949 234.008 162.105 233.736 162.261 233.462 Z" horiz-adv-x="1000" style=""/>
  <path d="M 154.049 186.195 C 154.049 194.124 147.782 198.692 140.783 198.692 L 79.255 198.692 C 71.156 198.692 64.89 195.25 64.89 187.312 C 64.89 183.692 67.295 180.581 69.136 178.516 C 84.422 161.433 101.004 145.906 115.003 126.937 C 118.319 122.449 121.457 117.095 121.457 110.891 C 121.457 103.811 115.745 97.607 108.191 97.607 C 87.005 97.607 96.588 126.105 78.897 126.105 C 70.056 126.105 65.452 120.25 65.452 113.519 C 65.452 91.779 86.638 73.802 109.299 73.802 C 131.951 73.802 148.515 87.774 148.515 109.684 C 148.515 133.667 123.324 154.961 107.663 173.42 L 139.701 173.42 C 147.8 173.42 154.049 178.265 154.049 186.195 Z" horiz-adv-x="1000"/>
  <path d="M 253.691 159.249 C 253.691 188.122 236.733 207.145 204.874 207.145 C 191.796 207.145 164.353 199.189 164.353 183.975 C 164.353 177.584 170.056 172.22 176.868 172.22 C 184.234 172.22 193.084 183.278 205.429 183.278 C 218.319 183.278 224.952 171.532 224.952 160.635 C 224.952 150.257 218.685 143.177 207.261 143.177 C 196.57 143.177 194.916 148.88 185.521 148.88 C 178.343 148.88 174.66 143.695 174.66 140.754 C 174.66 138.51 175.026 136.776 175.214 134.881 L 179.818 98.4 C 181.471 84.911 185.351 81.97 194.183 81.97 L 238.584 81.97 C 247.05 81.97 252.029 86.636 252.029 92.858 C 252.029 104.792 242.455 105.829 239.139 105.829 L 204.509 105.829 L 201.747 124.154 C 206.163 123.305 210.945 122.438 215.558 122.438 C 237.852 122.438 253.692 139.029 253.691 159.249 Z" horiz-adv-x="1000"/>
</svg>