<?xml version="1.0" encoding="utf-8"?>
<svg version="1.1" id="e-mail" x="0px" y="0px" viewBox="0 0 1000 1000" style="enable-background:new 0 0 1000 1000;" xmlns="http://www.w3.org/2000/svg">
  <path d="M 57.353 224.803 C 35.22 210.84 24.681 195.713 28.897 179.422 C 28.897 167.785 39.436 163.131 55.245 163.131 L 946.862 163.131 C 973.211 163.131 979.534 174.767 966.886 200.367 C 963.725 210.84 955.294 217.821 942.646 224.803 C 932.107 229.458 864.656 270.184 741.347 343.493 C 614.878 417.964 551.641 456.365 549.534 458.691 C 536.886 465.673 521.078 470.328 500 470.328 C 479.975 470.328 465.22 465.673 450.465 458.691 C 448.358 456.365 385.122 417.964 259.706 343.493 C 135.343 270.184 67.892 229.458 57.353 224.803 Z M 953.186 341.165 C 966.886 334.183 973.211 338.839 973.211 351.638 L 973.211 782.178 C 973.211 792.65 968.995 806.614 957.401 818.25 C 944.755 832.213 932.107 836.868 921.568 836.868 L 78.431 836.868 C 67.892 836.868 55.245 832.213 42.598 818.25 C 33.113 806.614 26.789 792.65 26.789 782.178 L 26.789 351.638 C 26.789 338.839 33.113 334.183 46.813 341.165 L 450.465 575.053 C 465.22 582.035 479.975 586.69 500 586.69 C 521.078 586.69 534.779 582.035 549.534 575.053 Z" horiz-adv-x="1000"/>
</svg>