<?xml version="1.0" encoding="utf-8"?>
<svg version="1.1" id="edit" x="0px" y="0px" viewBox="0 0 1000 1000" style="enable-background:new 0 0 1000 1000;" xmlns="http://www.w3.org/2000/svg">
  <path d="M 859.104 337.179 L 853.841 850.289 C 853.841 914.773 801.031 967.052 735.895 967.052 L 146.158 967.052 C 81.022 967.052 28.211 914.773 28.211 850.289 L 29.264 175.947 C 29.264 111.465 82.075 59.184 147.211 59.184 L 743.198 63.394 L 651.625 145.421 L 126.158 144.368 L 124.053 876.604 L 771.685 874.499 L 778 417.128 L 859.104 337.179 Z M 763.309 115.502 L 721.612 156.78 L 846.701 280.642 L 888.396 239.364 L 763.309 115.502 Z M 846.701 32.947 L 805.005 74.225 L 930.094 198.087 L 971.789 156.78 L 846.701 32.947 Z M 304.65 569.672 L 429.739 693.505 L 805.005 321.947 L 679.916 198.085 L 304.65 569.672 Z M 264.106 733.526 L 382.053 733.526 L 264.106 616.763 L 264.106 733.526 Z" style=""/>
</svg>
