<?xml version="1.0" encoding="utf-8"?>
<svg version="1.1" id="fast-forward" x="0px" y="0px" viewBox="0 0 1000 1000" style="enable-background:new 0 0 1000 1000;" xmlns="http://www.w3.org/2000/svg">
  <path d="M 80.999 85.221 C 74.825 79.317 69.532 75.38 66.004 79.317 C 60.711 81.285 58.947 87.189 58.947 96.045 L 58.947 903.955 C 58.947 912.811 60.711 918.716 66.004 920.684 C 69.532 924.62 74.825 920.684 80.999 914.779 L 431.196 525.094 C 432.959 521.157 434.724 519.189 436.488 513.285 L 436.488 903.955 C 436.488 912.811 440.016 918.716 443.545 920.684 C 447.956 924.62 453.248 920.684 458.541 914.779 L 808.736 525.094 C 812.265 521.157 814.029 519.189 814.911 513.285 L 814.911 886.242 C 814.911 896.082 818.439 903.955 823.733 911.827 C 830.789 918.716 837.847 920.684 846.667 920.684 L 910.18 920.684 C 918.999 920.684 925.175 918.716 932.232 911.827 C 937.524 903.955 941.053 896.082 941.053 886.242 L 941.053 113.758 C 941.053 103.918 937.524 96.045 932.232 88.173 C 925.175 81.285 918.999 79.317 910.18 79.317 L 846.667 79.317 C 837.847 79.317 830.789 81.285 823.733 88.173 C 818.439 96.045 814.911 103.918 814.911 113.758 L 814.911 486.715 C 814.029 482.779 812.265 478.843 808.736 474.907 L 458.541 85.221 C 453.248 79.317 447.956 75.38 443.545 79.317 C 440.016 81.285 436.488 87.189 436.488 96.045 L 436.488 486.715 C 434.724 482.779 432.959 478.843 431.196 474.907 Z" horiz-adv-x="1000"/>
</svg>