<?xml version="1.0" encoding="utf-8"?>
<svg version="1.1" id="find" x="0px" y="0px" viewBox="0 0 1000 1000" style="enable-background:new 0 0 1000 1000;" xmlns="http://www.w3.org/2000/svg">
  <path d="M 396.942 219.552 L 396.942 593.483 C 396.942 602.179 393.09 608.265 387.311 615.222 C 379.605 620.44 371.9 623.918 362.269 623.918 L 362.269 903.931 C 362.269 912.627 359.379 919.584 351.673 926.541 C 345.894 931.758 338.19 935.237 328.558 935.237 L 52.131 935.237 C 42.5 935.237 35.758 931.758 28.052 926.541 C 22.273 919.584 18.421 912.627 18.421 903.931 L 18.421 654.355 L 152.3 231.727 C 154.227 224.771 160.005 219.552 168.673 219.552 Z M 569.348 219.552 L 569.348 563.046 L 430.652 563.046 L 430.652 219.552 Z M 981.579 654.355 L 981.579 903.931 C 981.579 912.627 977.727 919.584 971.948 926.541 C 964.242 931.758 957.5 935.237 947.869 935.237 L 671.442 935.237 C 661.811 935.237 654.105 931.758 648.327 926.541 C 641.584 919.584 637.731 912.627 637.731 903.931 L 637.731 623.918 C 628.1 623.918 620.394 620.44 612.69 615.222 C 606.911 608.265 603.058 602.179 603.058 593.483 L 603.058 219.552 L 831.327 219.552 C 840.958 219.552 845.773 224.771 847.7 231.727 Z M 413.316 80.416 L 413.316 189.117 L 225.5 189.117 L 225.5 80.416 C 225.5 75.199 227.427 71.72 229.352 69.98 C 233.205 66.502 237.058 64.763 241.873 64.763 L 396.942 64.763 C 401.758 64.763 405.611 66.502 409.463 69.98 C 411.39 71.72 413.316 75.199 413.316 80.416 Z M 774.5 80.416 L 774.5 189.117 L 586.684 189.117 L 586.684 80.416 C 586.684 75.199 588.611 71.72 590.537 69.98 C 594.39 66.502 598.242 64.763 603.058 64.763 L 758.127 64.763 C 762.942 64.763 766.794 66.502 770.648 69.98 C 772.573 71.72 774.5 75.199 774.5 80.416 Z" horiz-adv-x="1000"/>
</svg>