<?xml version="1.0" encoding="utf-8"?>
<svg version="1.1" id="find-and-replace"  x="0px" y="0px" viewBox="0 0 1000 1000" style="enable-background:new 0 0 1000 1000;" xmlns="http://www.w3.org/2000/svg">
  <path d="M 430.898 208.388 C 430.898 200.12 434.137 192.328 439.989 186.484 L 605.324 21.154 C 617.015 9.44 637.427 9.44 649.121 21.154 C 661.2 33.222 661.2 52.884 649.121 64.963 L 536.651 177.412 L 699.947 177.412 C 837.814 177.412 949.977 289.573 949.977 427.441 C 949.977 557.581 819.524 660.671 729.321 669.235 C 716.79 669.27 701.529 658.616 705.24 633.871 C 709.761 617.869 741.236 610.763 743.18 610.309 C 826.077 590.715 888.021 516.261 888.021 427.44 C 888.021 323.733 803.654 239.365 699.947 239.365 L 536.671 239.365 L 649.121 351.836 C 661.2 363.903 661.2 383.553 649.121 395.632 C 637.405 407.357 617.015 407.325 605.324 395.632 L 439.989 230.291 C 434.137 224.445 430.898 216.665 430.898 208.388 Z M 435.055 668.072 L 347.46 668.072 L 440.593 761.205 L 277.31 761.205 C 173.591 761.205 89.224 676.826 89.224 573.13 C 89.224 542.751 96.655 514.194 109.593 488.853 C 107.476 483.437 105.487 478.012 103.757 472.629 C 98.061 454.903 94.992 436.534 93.265 417.957 C 54.832 459.698 27.265 513.464 27.265 573.13 C 27.265 711.009 139.426 823.17 277.301 823.17 L 440.584 823.17 L 328.12 935.618 C 316.056 947.686 316.056 967.338 328.12 979.427 C 339.813 991.143 360.225 991.143 371.915 979.427 L 537.27 814.086 C 543.114 808.252 546.343 800.449 546.343 792.194 C 546.343 783.914 543.105 776.135 537.27 770.277 L 435.055 668.072 Z M 576.215 539.655 C 598.847 508.953 613.315 474.119 619.835 438.137 C 593.475 417.372 569.463 393.388 548.298 367.893 C 556.475 420.245 540.804 475.612 500.545 515.873 C 433.585 582.834 324.645 582.834 257.7 515.873 C 190.735 448.914 190.735 339.978 257.7 273.029 C 297.136 233.577 351.046 218.003 402.447 225.11 C 405.778 198.311 414.309 172.562 435.734 157.839 C 360.567 138.236 263.253 163.686 205.796 221.143 C 110.242 316.693 110.242 472.199 205.796 567.772 C 292.53 654.503 428.479 662.229 524.327 591.554 L 832.296 899.511 C 846.62 913.859 869.861 913.859 884.195 899.511 C 898.518 885.189 898.518 861.961 884.195 847.627 L 576.215 539.655 Z"/>
</svg>
