<?xml version="1.0" encoding="utf-8"?>
<svg version="1.1" id="folder" x="0px" y="0px" viewBox="0 0 1000 1000" style="enable-background:new 0 0 1000 1000;" xmlns="http://www.w3.org/2000/svg">
  <path d="M 963.948 366.422 L 963.948 784.718 C 963.948 819.842 949.488 850.708 925.733 878.382 C 898.88 904.991 868.928 917.763 834.844 917.763 L 132.524 917.763 C 98.44 917.763 68.49 904.991 41.636 878.382 C 17.881 850.708 3.421 819.842 3.421 784.718 L 3.421 215.283 C 3.421 178.03 17.881 146.099 41.636 119.49 C 68.49 93.945 98.44 82.237 132.524 82.237 L 318.431 82.237 C 352.515 82.237 382.467 93.945 409.32 119.49 C 433.076 146.099 447.535 178.03 447.535 215.283 L 447.535 233.377 L 834.844 233.377 C 868.928 233.377 898.88 246.149 925.733 272.758 C 949.488 298.303 963.948 329.17 963.948 366.422 Z" horiz-adv-x="1000"/>
</svg>