<?xml version="1.0" encoding="utf-8"?>
<svg version="1.1" id="folder-open" x="0px" y="0px" viewBox="0 0 1000 1000" style="enable-background:new 0 0 1000 1000;" xmlns="http://www.w3.org/2000/svg">
  <path d="M 997.132 570.513 C 997.132 582.177 991.444 594.901 980.07 609.746 L 802.828 844.082 C 787.663 864.228 765.863 881.193 737.429 894.977 C 711.838 907.7 686.246 916.184 661.603 916.184 L 86.276 916.184 C 74.902 916.184 63.528 914.064 54.998 907.7 C 45.519 903.46 41.729 894.977 41.729 883.313 C 41.729 870.59 47.415 857.865 56.894 844.082 L 234.136 609.746 C 251.197 588.539 271.102 572.634 298.588 557.788 C 327.023 542.944 350.717 536.582 374.413 536.582 L 950.688 536.582 C 962.062 536.582 972.488 538.703 981.966 545.065 C 991.444 549.306 997.132 557.788 997.132 570.513 Z M 815.15 366.927 L 815.15 460.237 L 374.413 460.237 C 341.24 460.237 306.171 470.841 271.102 489.927 C 234.136 507.953 204.754 531.28 183.901 559.909 L 4.763 794.245 L 2.868 798.487 C 2.868 796.366 2.868 794.245 2.868 790.003 C 2.868 787.883 2.868 785.762 2.868 783.641 L 2.868 216.359 C 2.868 179.246 14.242 147.437 37.938 120.928 C 59.737 95.48 88.172 83.816 121.345 83.816 L 290.058 83.816 C 323.231 83.816 350.717 95.48 373.465 120.928 C 397.162 147.437 408.535 179.246 408.535 216.359 L 408.535 234.384 L 696.672 234.384 C 728.898 234.384 756.385 247.109 780.081 273.616 C 802.828 299.065 815.15 329.815 815.15 366.927 Z" horiz-adv-x="1000"/>
</svg>