<?xml version="1.0" encoding="utf-8"?>
<svg version="1.1" id="fontsize-minus" x="0px" y="0px" viewBox="0 0 1000 1000" style="enable-background:new 0 0 1000 1000;" xmlns="http://www.w3.org/2000/svg">
  <path d="M 31.5 877.865 L 258.5 154.813 L 404.5 154.813 L 612.5 817.811 L 735.5 426.258 L 826.5 426.258 L 968.5 877.865 L 872.5 877.865 L 846.5 786.583 L 711.5 786.583 L 684.5 877.865 L 477.5 877.865 L 435.5 732.534 L 221.5 732.534 L 178.5 877.865 L 31.5 877.865 Z M 253.5 600.415 L 402.5 600.415 L 328.5 340.98 Z M 731.5 704.909 L 825.5 704.909 L 778.5 541.563 Z" horiz-adv-x="937.5"/>
  <path d="M 728.831 122.134 L 659.012 122.134 L 595.88 122.134 L 526.062 122.134 C 508.909 122.134 494.868 137.116 494.868 154.962 C 494.868 172.805 508.909 187.79 526.062 187.79 L 595.88 187.79 L 659.012 187.79 L 728.831 187.79 C 745.986 187.79 760.026 172.805 760.026 154.962 C 760.026 137.116 745.986 122.134 728.831 122.134 Z"/>
</svg>
