<?xml version="1.0" encoding="utf-8"?>
<svg version="1.1" id="fontsize-plus" x="0px" y="0px" viewBox="0 0 1000 1000" style="enable-background:new 0 0 1000 1000;" xmlns="http://www.w3.org/2000/svg">
  <path d="M 31.5 920 L 258.5 196.948 L 404.5 196.948 L 612.5 859.946 L 735.5 468.392 L 826.5 468.392 L 968.5 920 L 872.5 920 L 846.5 828.718 L 711.5 828.718 L 684.5 920 L 477.5 920 L 435.5 774.669 L 221.5 774.669 L 178.5 920 L 31.5 920 Z M 253.5 642.55 L 402.5 642.55 L 328.5 383.115 Z M 731.5 747.044 L 825.5 747.044 L 778.5 583.697 Z" horiz-adv-x="937.5"/>
  <g transform="matrix(5.411015, 0, 0, -0.321739, 531.342346, 272.59848)"/>
  <g transform="matrix(5.411015, 0, 0, -0.321739, 531.342346, 272.59848)"/>
  <g transform="matrix(5.411015, 0, 0, -0.321739, 531.342346, 272.59848)"/>
  <g transform="matrix(5.411015, 0, 0, -0.321739, 531.342346, 272.59848)"/>
  <g transform="matrix(5.411015, 0, 0, -0.321739, 531.342346, 272.59848)"/>
  <g transform="matrix(5.411015, 0, 0, -0.321739, 531.342346, 272.59848)"/>
  <g transform="matrix(5.411015, 0, 0, -0.321739, 531.342346, 272.59848)"/>
  <g transform="matrix(5.411015, 0, 0, -0.321739, 531.342346, 272.59848)"/>
  <g transform="matrix(5.411015, 0, 0, -0.321739, 531.342346, 272.59848)"/>
  <g transform="matrix(5.411015, 0, 0, -0.321739, 531.342346, 272.59848)"/>
  <g transform="matrix(5.411015, 0, 0, -0.321739, 531.342346, 272.59848)"/>
  <g transform="matrix(5.411015, 0, 0, -0.321739, 531.342346, 272.59848)"/>
  <g transform="matrix(5.411015, 0, 0, -0.321739, 531.342346, 272.59848)"/>
  <g transform="matrix(5.411015, 0, 0, -0.321739, 531.342346, 272.59848)"/>
  <g transform="matrix(5.411015, 0, 0, -0.321739, 531.342346, 272.59848)"/>
  <path d="M 723.24 184.513 L 650.096 184.513 L 650.096 112.275 C 650.096 94.527 635.003 80 617.026 80 C 599.05 80 583.955 94.527 583.955 112.275 L 583.955 184.513 L 510.811 184.513 C 492.84 184.513 478.131 199.42 478.131 217.173 C 478.131 234.927 492.84 249.834 510.811 249.834 L 583.955 249.834 L 583.955 322.072 C 583.955 339.821 599.05 354.347 617.026 354.347 C 635.003 354.347 650.096 339.821 650.096 322.072 L 650.096 249.834 L 723.24 249.834 C 741.21 249.834 755.921 234.927 755.921 217.173 C 755.921 199.42 741.21 184.513 723.24 184.513 Z"/>
  <g transform="matrix(4.157895, 0, 0, 4.58396, 478.132538, 116.001495)"/>
  <g transform="matrix(4.157895, 0, 0, 4.58396, 478.132538, 116.001495)"/>
  <g transform="matrix(4.157895, 0, 0, 4.58396, 478.132538, 116.001495)"/>
  <g transform="matrix(4.157895, 0, 0, 4.58396, 478.132538, 116.001495)"/>
  <g transform="matrix(4.157895, 0, 0, 4.58396, 478.132538, 116.001495)"/>
  <g transform="matrix(4.157895, 0, 0, 4.58396, 478.132538, 116.001495)"/>
  <g transform="matrix(4.157895, 0, 0, 4.58396, 478.132538, 116.001495)"/>
  <g transform="matrix(4.157895, 0, 0, 4.58396, 478.132538, 116.001495)"/>
  <g transform="matrix(4.157895, 0, 0, 4.58396, 478.132538, 116.001495)"/>
  <g transform="matrix(4.157895, 0, 0, 4.58396, 478.132538, 116.001495)"/>
  <g transform="matrix(4.157895, 0, 0, 4.58396, 478.132538, 116.001495)"/>
  <g transform="matrix(4.157895, 0, 0, 4.58396, 478.132538, 116.001495)"/>
  <g transform="matrix(4.157895, 0, 0, 4.58396, 478.132538, 116.001495)"/>
  <g transform="matrix(4.157895, 0, 0, 4.58396, 478.132538, 116.001495)"/>
  <g transform="matrix(4.157895, 0, 0, 4.58396, 478.132538, 116.001495)"/>
</svg>
