<?xml version="1.0" encoding="utf-8"?>
<svg version="1.1" id="home" x="0px" y="0px" viewBox="0 0 1000 1000" style="enable-background:new 0 0 1000 1000;" xmlns="http://www.w3.org/2000/svg">
  <path d="M 855.484 559.527 L 855.484 848.51 C 855.484 859.333 851.429 868.352 843.324 875.568 C 835.219 882.784 826.007 886.751 815.691 887.474 L 579.144 887.474 L 579.144 655.855 L 421.078 655.855 L 421.078 887.474 L 184.532 887.474 C 173.478 887.474 164.267 883.505 156.898 875.568 C 149.528 867.633 145.476 858.61 144.739 848.51 L 144.739 559.527 C 144.739 558.806 144.739 558.085 144.739 557.363 C 144.739 556.641 144.739 555.92 144.739 555.198 L 499.559 269.463 L 854.378 555.198 C 855.115 555.92 855.484 557.363 855.484 559.527 Z M 992.548 517.317 L 954.965 561.693 C 951.281 565.3 946.86 567.465 941.701 568.188 L 939.49 568.188 C 934.331 568.188 929.91 567.104 926.226 564.939 L 499.559 216.429 L 72.891 564.939 C 67.732 567.826 62.942 568.908 58.521 568.188 C 53.362 567.465 48.941 565.3 45.257 561.693 L 6.569 517.317 C 3.621 512.988 2.516 508.298 3.253 503.247 C 3.99 498.196 6.201 493.866 9.885 490.259 L 453.133 128.761 C 466.397 117.938 481.872 112.526 499.559 112.526 C 517.244 112.526 533.088 117.938 547.089 128.761 L 697.417 251.064 L 697.417 134.172 C 697.417 128.401 699.26 123.71 702.944 120.102 C 706.628 116.495 711.419 114.691 717.314 114.691 L 835.587 114.691 C 841.481 114.691 846.272 116.495 849.957 120.102 C 853.641 123.71 855.484 128.401 855.484 134.172 L 855.484 379.861 L 990.337 490.259 C 994.758 493.145 996.969 497.475 996.969 503.247 C 996.969 509.019 995.495 513.71 992.548 517.317 Z" horiz-adv-x="928.6"/>
</svg>