<?xml version="1.0" encoding="utf-8"?>
<svg version="1.1" id="keyboard" x="0px" y="0px" viewBox="0 0 1000 1000" style="enable-background:new 0 0 1000 1000;" xmlns="http://www.w3.org/2000/svg">
    <path
       d=
       "m 148,929
        c -1.02545,54.3515 59.34171,79.57473 105.90016,69.9747 180.58419,-0.8012 361.33523,1.76643 541.81748,-1.2673 51.17363,-9.7969 60.72591,-68.2943 54.89053,-111.61403 -0.15323,-274.6613 0.41066,-549.32313 -0.29537,-823.984001 
        C 847.67083,11.078044 789.59344,-8.3831279 745.30974,-0.04464985 564.91214,0.86606115 384.28652,-2.0292939 204.02814,1.3797721 161.80804,9.8878011 141.94468,56.73731 148.56335,96.05133 c 0,277.95961 0,555.91923 0,833.87884 z 
        M 233.91418,56.798899 c 33.33,0 66.66,0 100,0 0,33.330001 0,66.660001 0,100.000001 -33.33,0 -66.66,0 -100,0 0,-33.33 0,-66.66 0,-100.000001 z 
        m 0,130 c 33.33,0 66.66,0 100,0 0,33.33 0,66.66 0,100 -33.33,0 -66.66,0 -100,0 0,-33.33 0,-66.66 0,-100 z 
        m 0,130 c 33.33,0 66.66,0 100,0 0,33.33 0,66.66 0,100 -33.33,0 -66.66,0 -100,0 0,-33.33 0,-66.66 0,-100 z 
        m 0,130 c 33.33,0 66.66,0 100,0 0,33.33 0,66.66 0,100 -33.33,0 -66.66,0 -100,0 0,-33.33 0,-66.66 0,-100 z 
        m 0,130 c 33.33,0 66.66,0 100,0 0,33.33 0,66.66 0,100 -33.33,0 -66.66,0 -100,0 0,-33.33 0,-66.66 0,-100 z 
        m 0,130 c 33.33,0 66.66,0 100,0 0,33.33 0,66.66 0,100 -33.33,0 -66.66,0 -100,0 0,-33.33 0,-66.66 0,-100 z 
        m 0,130 c 33.33,0 66.66,0 100,0 0,33.33 0,66.66 0,100 -33.33,0 -66.66,0 -100,0 0,-33.33 0,-66.66 0,-100 z 
        m 130,-715 c 33.33,0 66.66,0 100,0 0,33.33 0,66.66 0,100 -33.33,0 -66.66,0 -100,0 0,-33.33 0,-66.66 0,-100 z 
        m 0,130 c 33.33,0 66.66,0 100,0 0,33.33 0,66.66 0,100 -33.33,0 -66.66,0 -100,0 0,-33.33 0,-66.66 0,-100 z 
        m 0,130 c 33.33,0 66.66,0 100,0 0,33.33 0,66.66 0,100 -33.33,0 -66.66,0 -100,0 0,-33.33 0,-66.66 0,-100 z 
        m 0,130 c 33.33,0 66.66,0 100,0 0,33.33 0,66.66 0,100 -33.33,0 -66.66,0 -100,0 0,-33.33 0,-66.66 0,-100 z 
        m 0,130 c 33.33,0 66.66,0 100,0 0,33.33 0,66.66 0,100 -33.33,0 -66.66,0 -100,0 0,-33.33 0,-66.66 0,-100 z 
        m 0,130 c 33.33,0 66.66,0 100,0 0,33.33 0,66.66 0,100 -33.33,0 -66.66,0 -100,0 0,-33.33 0,-66.66 0,-100 z 
        m 210,-479 c 33.33,0 66.66,0 100,0 0,33.33 0,66.66 0,100 -33.33,0 -66.66,0 -100,0 0,-33.33 0,-66.66 0,-100 z 
        m 0,122 c 33.33,0 66.66,0 100,0 0,33.33 0,66.66 0,100 -33.33,0 -66.66,0 -100,0 0,-33.33 0,-66.66 0,-100 z 
        m 0,122 c 33.33,0 66.66,0 100,0 0,33.33 0,66.66 0,100 -33.33,0 -66.66,0 -100,0 0,-33.33 0,-66.66 0,-100 z 
        m 0,122 c 33.33,0 66.66,0 100,0 0,33.33 0,66.66 0,100 -33.33,0 -66.66,0 -100,0 0,-33.33 0,-66.66 0,-100 z 
        m 120,-366 c 33.33,0 66.66,0 100,0 0,33.33 0,66.66 0,100 -33.33,0 -66.66,0 -100,0 0,-33.33 0,-66.66 0,-100 z 
        m 0,122 c 33.33,0 66.66,0 100,0 0,33.33 0,66.66 0,100 -33.33,0 -66.66,0 -100,0 0,-33.33 0,-66.66 0,-100 z 
        m 0,122 c 33.33,0 66.66,0 100,0 0,33.33 0,66.66 0,100 -33.33,0 -66.66,0 -100,0 0,-33.33 0,-66.66 0,-100 z 
        m 0,122 c 33.33,0 66.66,0 100,0 0,33.33 0,66.66 0,100 -33.33,0 -66.66,0 -100,0 0,-33.33 0,-66.66 0,-100 z"
    />
</svg>
