<?xml version="1.0" encoding="utf-8"?>
<svg version="1.1" id="learning" x="0px" y="0px" viewBox="0 0 1000 1000" style="enable-background:new 0 0 1000 1000;" xmlns="http://www.w3.org/2000/svg">
  <path d="M 158.69 399.934 L 240.129 413.417 C 233.941 394.018 229.844 373.672 228.137 352.656 L 303.842 363.145 L 303.842 407.683 L 502.463 407.683 L 502.463 376.185 L 537.527 376.185 L 537.527 407.683 L 736.111 407.683 L 736.111 364.275 L 799.337 354.849 C 798.653 369.607 796.712 385.247 793.719 401.031 L 856.633 389.631 C 843.202 226.568 778.351 5.707 508.993 5.707 C 470.742 5.707 426.152 10.236 406.795 18.639 C 387.37 27.006 383.875 46.118 371.352 50.174 C 358.304 54.409 339.78 52.692 328.279 58.072 C 148.859 141.254 155.124 344.074 155.124 344.074 L 158.69 399.934 Z M 480.417 386.418 L 325.892 386.418 L 325.892 310.68 L 480.417 310.68 L 480.417 386.418 Z M 714.024 386.418 L 559.577 386.418 L 559.577 310.68 L 714.024 310.68 L 714.024 386.418 Z M 229.16 304.061 C 309.003 298.837 399.169 238.303 406.192 153.975 C 507.241 234.536 650.467 238.477 769.773 248.747 C 784.687 255.47 795.537 284.369 798.616 322.66 L 736.111 331.982 L 736.111 289.452 L 537.49 289.452 L 537.49 333.696 L 502.426 333.696 L 502.426 289.452 L 303.805 289.452 L 303.805 330.915 L 227.074 320.291 C 227.795 314.911 228.516 309.545 229.16 304.061 Z"/>
  <path d="M 959.318 693.641 C 959.318 663.57 943.958 637.341 921.09 622.349 L 921.09 407.705 L 505.103 459.888 L 88.972 407.705 L 88.972 616.689 C 60.534 629.971 40.682 659.35 40.682 693.641 C 40.682 727.904 60.534 757.283 88.972 770.565 L 88.972 942.079 L 505.103 994.292 L 921.09 942.135 L 921.09 764.928 C 943.991 749.883 959.318 723.68 959.318 693.641 Z M 486.199 961.82 L 126.746 916.735 L 126.746 777.771 C 170.053 775.563 204.634 738.892 204.634 693.641 C 204.634 648.359 170.091 611.693 126.746 609.458 L 126.746 442.52 L 486.199 487.638 L 486.199 961.82 Z M 883.36 916.735 L 523.937 961.82 L 523.937 487.638 L 883.36 442.52 L 883.36 502.329 L 883.36 609.677 C 881.289 609.51 879.43 609.097 877.325 609.097 C 832.051 609.097 795.333 646.979 795.333 693.641 C 795.333 740.328 832.051 778.209 877.325 778.209 C 879.43 778.209 881.289 777.741 883.36 777.604 L 883.36 916.735 Z"/>
</svg>