<?xml version="1.0" encoding="utf-8"?>
<svg version="1.1" id="listening-2" x="0px" y="0px" viewBox="0 0 1000 1000" style="enable-background:new 0 0 1000 1000;" xmlns="http://www.w3.org/2000/svg">
  <path d="M 894.487 759.052 C 895.842 767.236 896.811 775.49 896.811 784.09 C 896.811 862.535 837.589 926.135 764.542 926.135 C 764.542 965.393 734.961 997.158 698.406 997.158 C 661.849 997.158 632.271 965.393 632.271 926.135 L 632.271 642.045 C 632.271 602.787 661.849 571.022 698.406 571.022 C 734.961 571.022 764.542 602.787 764.542 642.045 C 800.967 642.045 833.971 657.859 857.867 683.522 C 882.734 627.896 896.811 565.682 896.811 500 C 896.811 265.015 718.815 73.865 499.999 73.865 C 281.184 73.865 103.188 265.015 103.188 500 C 103.188 565.682 117.268 627.896 142.133 683.451 C 166.062 657.859 199.032 642.045 235.458 642.045 C 235.458 602.787 265.039 571.022 301.593 571.022 C 338.148 571.022 367.729 602.787 367.729 642.045 L 367.729 926.135 C 367.729 965.393 338.148 997.158 301.593 997.158 C 265.039 997.158 235.458 965.393 235.458 926.135 C 162.411 926.135 103.188 862.535 103.188 784.09 C 103.188 775.49 104.188 767.167 105.546 759.052 C 62.403 683.591 37.052 595.09 37.052 500 C 37.052 225.411 244.306 2.842 499.999 2.842 C 755.693 2.842 962.948 225.411 962.948 500 C 962.948 595.09 937.63 683.591 894.487 759.052 Z"/>
</svg>