<?xml version="1.0" encoding="utf-8"?>
<svg version="1.1" id="lock-open" x="0px" y="0px" viewBox="0 0 1000 1000" style="enable-background:new 0 0 1000 1000;" xmlns="http://www.w3.org/2000/svg">
  <path d="M 91.658 988.967 L 91.658 442.323 L 232.242 442.323 L 232.242 307.374 C 233.475 224.578 260.606 154.495 313.633 97.126 C 338.913 71.701 368.51 50.838 402.425 34.541 C 436.336 18.242 473.025 10.419 512.486 11.071 C 588.328 12.375 653.379 41.06 707.639 97.126 C 760.666 154.495 788.413 222.623 790.881 301.506 L 626.249 301.506 C 625.015 270.865 613.608 244.136 592.027 221.319 C 569.213 198.501 542.7 186.44 512.486 185.137 C 479.807 186.44 452.675 198.501 431.095 221.319 C 408.28 246.744 396.874 275.429 396.874 307.374 L 396.874 442.323 L 908.342 442.323 L 908.342 988.967 L 91.658 988.967 Z" horiz-adv-x="883"/>
</svg>