<?xml version="1.0" encoding="utf-8"?>
<svg version="1.1" id="lock" x="0px" y="0px" viewBox="0 0 1000 1000" style="enable-background:new 0 0 1000 1000;" xmlns="http://www.w3.org/2000/svg">
  <path d="M 92.421 991.052 L 92.421 441.29 L 216.662 441.29 C 215.47 332.602 222.917 239.085 239.007 196.529 C 262.245 138.912 296.807 93.408 342.689 60.015 C 388.571 26.625 438.923 9.602 493.743 8.947 C 549.755 8.947 601.001 26.625 647.48 61.981 C 693.958 97.335 728.22 142.186 750.269 196.529 C 765.761 235.159 773.507 274.771 773.507 315.363 L 773.507 441.29 L 907.579 441.29 L 907.579 991.052 L 92.421 991.052 Z M 380.229 441.29 L 609.047 441.29 L 609.047 313.399 C 607.854 279.354 596.532 250.546 575.08 226.974 C 553.628 203.404 526.516 190.964 493.743 189.654 C 462.759 188.345 436.837 199.475 415.981 223.046 C 395.125 246.615 383.209 277.388 380.229 315.363 L 380.229 441.29 Z" horiz-adv-x="912"/>
</svg>