<?xml version="1.0" encoding="utf-8"?>
<svg version="1.1" id="move-2" x="0px" y="0px" viewBox="0 0 1000 1000" style="enable-background:new 0 0 1000 1000;" xmlns="http://www.w3.org/2000/svg">
  <path d="M 336.517 793.803 C 341.412 793.803 345.328 795.761 348.264 798.698 L 483.358 933.791 L 483.358 630.321 C 483.358 621.511 491.189 614.658 500 614.658 C 508.81 614.658 516.642 621.511 516.642 630.321 L 516.642 933.791 L 651.735 798.698 C 654.672 795.761 658.587 793.803 663.482 793.803 C 668.378 793.803 671.315 795.761 674.25 798.698 C 681.104 804.572 681.104 815.34 674.25 822.193 L 511.747 984.696 C 509.789 986.654 507.831 987.633 505.873 988.612 C 501.958 989.591 498.042 989.591 494.126 988.612 C 492.168 987.633 490.21 986.654 488.253 984.696 L 325.749 822.193 C 318.896 815.34 318.896 804.572 325.749 798.698 C 328.686 795.761 332.602 793.803 336.517 793.803 Z M 651.735 201.547 L 516.642 66.453 L 516.642 369.924 C 516.642 378.734 508.81 385.587 500 385.587 C 491.189 385.587 483.358 378.734 483.358 369.924 L 483.358 66.453 L 348.264 201.547 C 342.391 208.399 331.623 208.399 325.749 201.547 C 319.875 194.694 318.896 184.905 325.749 179.031 L 488.253 15.549 C 490.21 13.591 492.168 12.612 494.126 11.633 C 496.085 10.654 498.042 10.654 500 10.654 C 501.958 10.654 503.915 10.654 505.873 11.633 C 507.831 12.612 509.789 13.591 511.747 15.549 L 674.25 179.031 C 681.104 184.905 681.104 195.673 674.25 201.547 C 667.398 207.42 657.609 208.399 651.735 201.547 Z M 988.49 494.249 C 989.469 498.165 989.469 502.08 988.49 505.996 C 987.51 507.954 986.531 509.912 984.573 511.87 L 821.091 675.352 C 815.217 681.226 804.449 681.226 798.576 675.352 C 792.703 669.479 791.724 657.731 798.576 651.858 L 933.669 516.764 L 630.198 516.764 C 621.388 516.764 614.535 508.933 614.535 500.122 C 614.535 491.312 621.388 483.481 630.198 483.481 L 933.669 483.481 L 798.576 348.387 C 791.724 342.514 791.724 331.745 798.576 325.872 C 801.513 321.956 805.428 320.977 810.323 320.977 C 815.217 320.977 818.154 321.956 821.091 325.872 L 984.573 488.375 C 986.531 490.333 987.51 492.291 988.49 494.249 Z M 66.331 483.481 L 369.801 483.481 C 378.612 483.481 385.464 491.312 385.464 500.122 C 385.464 508.933 378.612 516.764 369.801 516.764 L 66.331 516.764 L 201.424 651.858 C 208.277 657.731 208.277 668.5 201.424 675.352 C 194.571 682.205 184.782 681.226 178.908 675.352 L 15.426 511.87 C 13.468 509.912 12.489 507.954 11.51 505.996 C 10.531 502.08 10.531 498.165 11.51 494.249 C 12.489 492.291 13.468 490.333 15.426 488.375 L 178.908 325.872 C 181.845 321.956 185.761 320.977 189.677 320.977 C 193.592 320.977 198.487 321.956 201.424 325.872 C 208.277 331.745 208.277 342.514 201.424 348.387 L 66.331 483.481 Z" horiz-adv-x="1000"/>
</svg>