<?xml version="1.0" encoding="utf-8"?>
<svg version="1.1" id="move" x="0px" y="0px" viewBox="0 0 1000 1000" style="enable-background:new 0 0 1000 1000;" xmlns="http://www.w3.org/2000/svg">
  <path d="M 967.242 494.5 C 968.178 498.245 968.178 501.99 967.242 505.735 C 966.306 507.608 965.369 509.481 963.496 511.354 L 807.125 667.724 C 801.506 673.343 791.207 673.343 785.588 667.724 C 779.97 662.106 779.034 650.87 785.588 645.252 L 914.806 516.035 L 515.919 516.035 L 515.919 914.923 L 645.136 785.706 C 647.945 782.896 651.69 781.023 656.371 781.023 C 661.054 781.023 663.862 782.896 666.671 785.706 C 673.225 791.324 673.225 801.624 666.671 808.179 L 511.236 963.613 C 509.364 965.486 507.491 966.422 505.618 967.359 C 501.872 968.295 498.127 968.295 494.381 967.359 C 492.509 966.422 490.636 965.486 488.763 963.613 L 333.328 808.179 C 326.774 801.624 326.774 791.324 333.328 785.706 C 336.138 782.896 339.883 781.023 343.629 781.023 C 347.374 781.023 352.056 782.896 354.865 785.706 L 484.082 914.923 L 484.082 516.035 L 85.194 516.035 L 214.412 645.252 C 220.966 650.87 220.966 661.17 214.412 667.724 C 207.857 674.279 198.493 673.343 192.875 667.724 L 36.504 511.354 C 34.631 509.481 33.695 507.608 32.759 505.735 C 31.822 501.99 31.822 498.245 32.759 494.5 C 33.695 492.626 34.631 490.754 36.504 488.88 L 192.875 333.446 C 195.684 329.7 199.429 328.764 203.174 328.764 C 206.921 328.764 211.603 329.7 214.412 333.446 C 220.966 339.064 220.966 349.364 214.412 354.982 L 85.194 484.199 L 484.082 484.199 L 484.082 85.31 L 354.865 214.528 C 349.246 221.083 338.947 221.083 333.328 214.528 C 327.711 207.974 326.774 198.61 333.328 192.993 L 488.763 36.62 C 490.636 34.748 492.509 33.812 494.381 32.875 C 496.254 31.939 498.127 31.939 500 31.939 C 501.872 31.939 503.745 31.939 505.618 32.875 C 507.491 33.812 509.364 34.748 511.236 36.62 L 666.671 192.993 C 673.225 198.61 673.225 208.911 666.671 214.528 C 660.117 220.147 650.753 221.083 645.136 214.528 L 515.919 85.31 L 515.919 484.199 L 914.806 484.199 L 785.588 354.982 C 779.034 349.364 779.034 339.064 785.588 333.446 C 788.398 329.7 792.143 328.764 796.824 328.764 C 801.506 328.764 804.316 329.7 807.125 333.446 L 963.496 488.88 C 965.369 490.754 966.306 492.626 967.242 494.5 Z" horiz-adv-x="1000"/>
</svg>