<?xml version="1.0" encoding="utf-8"?>
<svg version="1.1" id="n1" x="0px" y="0px" viewBox="0 0 1000 1000" style="enable-background:new 0 0 1000 1000;" xmlns="http://www.w3.org/2000/svg">
  <path d="M 387.044 123.58 L 382.002 123.58 L 382.002 70.973 C 382.002 55.383 373.608 49.036 363.069 49.036 C 353.62 49.036 348.534 52.129 344.538 58.976 L 303.838 128.541 C 302.747 130.248 301.29 132.313 301.29 136.086 C 301.29 140.538 305.107 146.196 314.01 146.196 L 357.803 146.196 L 357.803 160.758 C 357.803 169.849 359.653 174.122 368.923 174.122 C 378.193 174.122 382.001 169.84 382.001 160.758 L 382.001 146.196 L 387.043 146.196 C 394.132 146.196 399.763 141.744 399.763 134.879 C 399.764 128.031 394.133 123.58 387.044 123.58 Z M 358.358 123.58 L 333.462 123.58 L 357.991 75.764 L 358.358 75.764 L 358.358 123.58 Z" horiz-adv-x="1000"/>
  <path d="M 257.474 135.489 C 257.474 155.862 239.542 173.016 216.39 173.016 C 192.263 173.016 177.263 154.512 177.263 141.094 C 177.263 134.47 183.941 129.714 189.814 129.714 C 200.899 129.714 198.288 149.586 216.712 149.586 C 225.187 149.586 232.043 142.792 232.043 133.79 C 232.043 110.021 204.323 127.506 204.323 107.473 C 204.323 89.64 227.475 101.699 227.475 82.846 C 227.475 76.4 223.077 71.475 215.738 71.475 C 200.255 71.475 202.374 88.111 191.289 88.111 C 184.602 88.111 180.687 81.835 180.687 75.551 C 180.687 62.312 198.136 48.036 216.229 48.036 C 239.704 48.036 250.958 65.879 250.958 79.118 C 250.958 89.818 246.56 99.159 237.594 105.095 C 249.322 110.708 257.475 122.079 257.474 135.489 Z" horiz-adv-x="1000"/>
  <path d="M 147.738 158.369 C 147.738 166.298 141.471 170.866 134.472 170.866 L 72.944 170.866 C 64.845 170.866 58.579 167.424 58.579 159.486 C 58.579 155.866 60.984 152.755 62.825 150.69 C 78.111 133.607 94.693 118.08 108.692 99.111 C 112.008 94.623 115.146 89.269 115.146 83.065 C 115.146 75.985 109.434 69.781 101.88 69.781 C 80.694 69.781 90.277 98.279 72.586 98.279 C 63.745 98.279 59.141 92.424 59.141 85.693 C 59.141 63.953 80.327 45.976 102.988 45.976 C 125.64 45.976 142.204 59.948 142.204 81.858 C 142.204 105.841 117.013 127.135 101.352 145.594 L 133.39 145.594 C 141.489 145.594 147.738 150.439 147.738 158.369 Z" horiz-adv-x="1000"/>
  <path d="M 519.521 128.318 C 519.521 157.191 502.563 176.214 470.704 176.214 C 457.626 176.214 430.183 168.258 430.183 153.044 C 430.183 146.653 435.886 141.289 442.698 141.289 C 450.064 141.289 458.914 152.347 471.259 152.347 C 484.149 152.347 490.782 140.601 490.782 129.704 C 490.782 119.326 484.515 112.246 473.091 112.246 C 462.4 112.246 460.746 117.949 451.351 117.949 C 444.173 117.949 440.49 112.764 440.49 109.823 C 440.49 107.579 440.856 105.845 441.044 103.95 L 445.648 67.469 C 447.301 53.98 451.181 51.039 460.013 51.039 L 504.414 51.039 C 512.88 51.039 517.859 55.705 517.859 61.927 C 517.859 73.861 508.285 74.898 504.969 74.898 L 470.339 74.898 L 467.577 93.223 C 471.993 92.374 476.775 91.507 481.388 91.507 C 503.682 91.507 519.522 108.098 519.521 128.318 Z" horiz-adv-x="1000"/>
</svg>