<?xml version="1.0" encoding="utf-8"?>
<svg version="1.1" id="octave-down" x="0px" y="0px" viewBox="0 0 1000 1000" style="enable-background:new 0 0 1000 1000;" xmlns="http://www.w3.org/2000/svg">
  <path d="M 373.101 465.288 C 443.778 437.221 550.447 379.845 550.447 250.361 C 550.447 91.092 409.846 33.284 315.357 33.284 C 240.508 33.284 76.442 86.899 76.442 246.278 C 76.442 372.38 163.567 427.451 252.283 464.573 C 168.322 498.087 28.145 570.006 28.145 721.157 C 28.145 834.429 102.708 966.716 312.814 966.716 C 485.36 966.716 601.301 868.032 601.28 721.133 C 601.28 578.19 459.293 501.409 373.101 465.288 Z M 117.103 246.278 C 117.103 116.9 262.408 76.699 315.355 76.699 C 369.44 76.699 509.803 107.894 509.803 250.361 C 509.803 371.34 386.378 415.319 327.064 436.46 C 321.554 438.413 316.595 440.169 312.284 441.798 C 214.479 405.22 117.103 364.672 117.103 246.278 Z M 312.814 923.279 C 287.821 923.279 68.811 917.612 68.811 721.133 C 68.811 576.995 231.134 517.714 300.449 492.401 C 304.965 490.751 309.052 489.257 312.608 487.909 L 316.269 489.276 C 421.187 528.39 560.631 594.99 560.631 721.133 C 560.631 843.937 463.341 923.279 312.814 923.279 Z"/>
  <path d="M 971.098 738.248 C 968.576 732.646 964.803 728.915 961.03 728.915 L 882.302 728.915 L 882.302 78.647 C 882.302 73.048 881.046 69.315 878.529 67.447 C 876.645 63.72 874.125 61.851 870.345 61.851 L 803.589 61.851 C 799.816 61.851 797.933 63.72 795.402 67.447 C 792.885 69.315 791.627 73.048 791.627 78.647 L 791.627 728.915 L 712.906 728.915 C 707.874 728.915 705.364 732.646 702.828 738.248 C 701.581 745.708 701.581 751.309 705.364 756.905 L 828.151 957.492 C 829.412 960.288 833.19 962.156 835.712 962.156 C 839.492 962.156 842.007 960.288 844.526 957.492 L 968.576 756.905 C 972.362 751.309 972.362 745.708 971.098 738.248 Z" horiz-adv-x="1000"/>
</svg>