<?xml version="1.0" encoding="utf-8"?>
<svg version="1.1" id="octave-up" x="0px" y="0px" viewBox="0 0 1000 1000" style="enable-background:new 0 0 1000 1000;" xmlns="http://www.w3.org/2000/svg">
  <path d="M 373.101 465.288 C 443.778 437.221 550.447 379.845 550.447 250.361 C 550.447 91.092 409.846 33.284 315.357 33.284 C 240.508 33.284 76.442 86.899 76.442 246.278 C 76.442 372.38 163.567 427.451 252.283 464.573 C 168.322 498.087 28.145 570.006 28.145 721.157 C 28.145 834.429 102.708 966.716 312.814 966.716 C 485.36 966.716 601.301 868.032 601.28 721.133 C 601.28 578.19 459.293 501.409 373.101 465.288 Z M 117.103 246.278 C 117.103 116.9 262.408 76.699 315.355 76.699 C 369.44 76.699 509.803 107.894 509.803 250.361 C 509.803 371.34 386.378 415.319 327.064 436.46 C 321.554 438.413 316.595 440.169 312.284 441.798 C 214.479 405.22 117.103 364.672 117.103 246.278 Z M 312.814 923.279 C 287.821 923.279 68.811 917.612 68.811 721.133 C 68.811 576.995 231.134 517.714 300.449 492.401 C 304.965 490.751 309.052 489.257 312.608 487.909 L 316.269 489.276 C 421.187 528.39 560.631 594.99 560.631 721.133 C 560.631 843.937 463.341 923.279 312.814 923.279 Z"/>
  <path d="M 971.098 285.759 C 968.576 291.361 964.803 295.092 961.03 295.092 L 882.302 295.092 L 882.302 945.36 C 882.302 950.959 881.046 954.692 878.529 956.56 C 876.645 960.287 874.125 962.156 870.345 962.156 L 803.589 962.156 C 799.816 962.156 797.933 960.287 795.402 956.56 C 792.885 954.692 791.627 950.959 791.627 945.36 L 791.627 295.092 L 712.906 295.092 C 707.874 295.092 705.364 291.361 702.828 285.759 C 701.581 278.299 701.581 272.698 705.364 267.102 L 828.151 66.515 C 829.412 63.719 833.19 61.851 835.712 61.851 C 839.492 61.851 842.007 63.719 844.526 66.515 L 968.576 267.102 C 972.362 272.698 972.362 278.299 971.098 285.759 Z" horiz-adv-x="1000"/>
</svg>