<?xml version="1.0" encoding="utf-8"?>
<svg version="1.1" id="pause" x="0px" y="0px" viewBox="0 0 1000 1000" style="enable-background:new 0 0 1000 1000;" xmlns="http://www.w3.org/2000/svg">
  <path d="M 928 892.5 L 928 107.5 C 928 97.5 926 89.5 918 81.5 C 910 74.5 902 72.5 893 72.5 L 607 72.5 C 598 72.5 590 74.5 582 81.5 C 574 89.5 572 97.5 572 107.5 L 572 892.5 C 572 902.5 574 910.5 582 918.5 C 590 925.5 598 927.5 607 927.5 L 893 927.5 C 902 927.5 910 925.5 918 918.5 C 926 910.5 928 902.5 928 892.5 Z M 428 892.5 L 428 107.5 C 428 97.5 426 89.5 418 81.5 C 410 74.5 402 72.5 393 72.5 L 107 72.5 C 98 72.5 90 74.5 82 81.5 C 74 89.5 72 97.5 72 107.5 L 72 892.5 C 72 902.5 74 910.5 82 918.5 C 90 925.5 98 927.5 107 927.5 L 393 927.5 C 402 927.5 410 925.5 418 918.5 C 426 910.5 428 902.5 428 892.5 Z" horiz-adv-x="1000"/>
</svg>