<?xml version="1.0" encoding="utf-8"?>
<svg version="1.1" id="popout" x="0px" y="0px" viewBox="0 0 1000 1000" style="enable-background:new 0 0 1000 1000;" xmlns="http://www.w3.org/2000/svg">
  <g id="_x35__35_" transform="matrix(1.601974, 0, 0, 1.601974, 9.779149, 9.813553)">
    <path d="M568.286,524.571c0,23.759-19.978,43.715-43.715,43.715l-438.585,0.721c-23.759,0-42.993-19.256-42.993-42.993&#10;&#9;&#9;&#9;&#9;l0.721-438.585c0-23.759,19.978-43.714,43.714-43.714h240.429&#10;&#9;&#9;&#9;&#9;V0&#9;&#10;&#9;&#9;&#9;&#9;H87.429C39.933,0,0,48.545,0,96.019v429.974&#10;&#9;&#9;&#9;&#9;C0,573.51,38.49,612,85.986,612&#10;&#9;&#9;&#9;&#9;H515.96c47.495,0,96.04-39.933,96.04-87.429&#10;&#9;&#9;&#9;&#9;V284.143h-43.714V524.571z &#10;&#9;&#9;&#9;&#9;"/>
  </g>
  <g transform="matrix(1.601974, 0, 0, 1.601974, 9.779149, 9.813553)">
    <path d="M589.662,0h-152.52&#10;&#9;&#9;&#9;&#9;c-12.393,0.022-21.835,10.032-21.856,21.857c-0.022,11.825,9.464,21.879,21.856,21.857l96.041-0.7L203.424,357.539&#10;&#9;&#9;&#9;&#9;c-8.721,8.328-8.721,21.813,0,30.119c8.721,8.328,22.863,8.328,31.583,0L567.63,70.424l0.656,104.434&#10;&#9;&#9;&#9;&#9;c-0.022,11.824,9.464,21.879,21.856,21.857c12.394-0.022,21.836-10.033,21.857-21.857V21.311&#10;&#9;&#9;&#9;&#9;C612.021,9.486,602.055-0.022,589.662,0z"/>
  </g>
</svg>