<?xml version="1.0" encoding="utf-8"?>
<svg version="1.1" id="popout-2" x="0px" y="0px" viewBox="0 0 1000 1000" style="enable-background:new 0 0 1000 1000;" xmlns="http://www.w3.org/2000/svg">
  <path d="M 979.211 37.874 L 979.211 962.126 C 979.211 971.241 971.796 978.632 962.651 978.632 L 489.526 978.632 L 489.526 945.623 L 946.092 945.623 L 946.092 54.377 L 51.907 54.377 L 54.012 522.104 L 20.894 522.104 L 18.789 37.874 C 18.789 28.759 26.204 21.368 35.349 21.368 L 962.65 21.368 C 971.794 21.368 979.209 28.759 979.211 37.874 Z" transform="matrix(-1, 0, 0, -1, 998.000053, 1000.000078)"/>
  <path d="M 957.828 24.958 L 694.424 24.958 C 685.279 24.958 677.864 32.348 677.864 41.463 C 677.864 50.578 685.279 57.968 694.424 57.968 L 917.851 57.968 L 347.927 625.912 L 371.345 649.252 L 941.268 81.307 L 941.268 311.473 C 941.268 320.588 948.683 327.978 957.828 327.978 C 966.973 327.978 974.388 320.588 974.388 311.473 L 974.388 41.463 C 974.386 32.348 966.973 24.958 957.828 24.958 Z"/>
</svg>