<?xml version="1.0" encoding="utf-8"?>
<svg version="1.1" id="redo" x="0px" y="0px" viewBox="0 0 1000 1000" style="enable-background:new 0 0 1000 1000;" xmlns="http://www.w3.org/2000/svg">
  <path d="M 992.106 357 C 992.106 294 969.469 210 923.211 105 C 921.243 103 919.274 99 917.306 91 C 913.369 85 911.401 79 909.432 75 C 907.464 69 903.527 65 901.559 62 C 897.622 56 891.717 54 886.796 54 C 880.89 54 876.953 56 873.017 58 C 871.048 62 869.08 67 869.08 73 C 869.08 75 869.08 81 871.048 87 C 871.048 93 871.048 99 871.048 101 C 873.017 126 874.985 150 874.985 169 C 874.985 206 871.048 239 865.143 271 C 859.238 300 850.38 325 838.569 347 C 826.759 368 811.011 388 794.28 403 C 776.564 419 757.864 433 736.211 442 C 715.543 452 691.922 460 663.38 466 C 634.838 472 607.28 476 578.738 478 C 550.195 480 519.685 482 482.285 482 L 359.259 482 L 359.259 339 C 359.259 329 356.306 321 348.432 314 C 342.527 306 334.653 304 324.811 304 C 315.953 304 306.111 306 300.206 314 L 17.738 599 C 11.832 607 7.895 614 7.895 624 C 7.895 634 11.832 642 17.738 650 L 300.206 935 C 306.111 942 315.953 946 324.811 946 C 334.653 946 342.527 942 348.432 935 C 356.306 929 359.259 919 359.259 909 L 359.259 767 L 482.285 767 C 744.085 767 903.527 692 963.564 542 C 982.264 493 992.106 431 992.106 357 Z" horiz-adv-x="1000" transform="matrix(-1, 0, 0, -1, 1000.000978, 999.99995)"/>
</svg>