<?xml version="1.0" encoding="utf-8"?>
<svg version="1.1" id="repeat-cw" x="0px" y="0px" viewBox="0 0 1000 1000" style="enable-background:new 0 0 1000 1000;" xmlns="http://www.w3.org/2000/svg">
  <path d="M 918.107 875.378 L 918.107 612.876 C 918.107 602.376 916.154 593.976 908.341 586.625 C 902.481 578.225 892.715 574.026 883.925 574.026 L 639.764 574.026 C 624.139 574.026 614.372 582.425 608.512 598.176 C 601.676 614.976 603.629 627.576 614.372 639.126 L 690.55 719.977 C 637.812 772.477 572.376 799.778 500.104 799.778 C 462.016 799.778 425.88 791.378 391.698 776.677 C 357.515 760.927 328.216 737.828 303.8 711.578 C 278.407 684.276 257.897 653.826 244.225 617.076 C 229.575 580.326 221.762 541.475 221.762 500.525 C 221.762 458.524 229.575 419.674 244.225 382.924 C 257.897 346.173 278.407 315.723 303.8 288.422 C 328.216 262.172 357.515 240.122 391.698 223.322 C 425.88 208.622 462.016 200.222 500.104 200.222 C 544.054 200.222 584.096 210.722 622.185 229.622 C 660.274 249.572 692.503 278.972 719.849 315.723 C 723.755 319.923 726.686 324.123 732.545 324.123 C 738.405 324.123 742.312 322.023 746.218 317.823 L 820.443 238.022 C 824.35 235.922 826.303 231.722 826.303 225.422 C 828.256 221.222 826.303 217.022 822.396 212.822 C 782.354 159.271 734.499 120.421 677.854 92.07 C 622.185 64.77 563.586 51.12 500.104 49.02 C 444.436 49.02 389.744 60.57 337.983 85.771 C 284.267 108.871 240.318 141.421 204.182 182.372 C 168.047 223.322 137.771 270.572 115.308 326.223 C 91.869 380.823 80.149 438.574 82.103 500.525 C 82.103 561.426 93.822 619.176 115.308 674.826 C 135.818 729.427 166.093 776.677 204.182 817.628 C 244.225 858.578 288.174 892.178 337.983 914.229 C 387.791 939.429 441.506 950.979 500.104 950.979 C 553.82 950.979 604.605 939.429 654.414 918.429 C 704.223 896.38 748.172 864.88 788.214 826.028 L 858.532 901.628 C 870.252 914.229 883.925 916.329 896.621 910.028 C 912.247 903.729 918.107 892.178 918.107 875.378 Z" horiz-adv-x="1000"/>
</svg>