<?xml version="1.0" encoding="utf-8"?>
<svg version="1.1" id="search-2" x="0px" y="0px" viewBox="0 0 1000 1000" style="enable-background:new 0 0 1000 1000;" xmlns="http://www.w3.org/2000/svg">
  <path d="M 678 428 C 678 358 654 299 606 251 C 557 202 498 178 428 178 C 359 178 301 202 252 251 C 203 299 178 358 178 428 C 178 497 203 555 252 604 C 301 653 359 678 428 678 C 498 678 557 653 606 604 C 654 555 678 497 678 428 Z M 965 891 C 965 911 957 928 943 942 C 930 956 912 964 893 964 C 873 964 856 956 842 942 L 650 751 C 584 797 510 821 428 821 C 375 821 324 811 275 790 C 227 768 186 741 150 706 C 115 670 88 629 66 581 C 47 532 35 481 35 428 C 35 374 47 323 66 276 C 88 227 115 184 150 149 C 186 114 227 86 275 65 C 324 45 375 36 428 36 C 482 36 533 45 582 65 C 629 86 672 114 707 149 C 742 184 770 227 791 276 C 811 323 822 374 822 428 C 822 510 799 585 752 651 L 943 842 C 957 856 965 872 965 891 Z" horiz-adv-x="1000"/>
</svg>