<?xml version="1.0" encoding="utf-8"?>
<svg version="1.1" id="search" x="0px" y="0px" viewBox="0 0 1000 1000" style="enable-background:new 0 0 1000 1000;" xmlns="http://www.w3.org/2000/svg">
  <path d="M 979.958 851.213 C 991.566 861.83 974.154 902.372 938.362 938.087 C 902.569 973.802 862.908 990.212 851.299 979.594 L 638.481 766.268 C 630.742 758.546 636.546 738.275 652.991 713.178 L 577.537 637.887 C 519.495 683.255 445.009 711.248 363.751 711.248 C 171.246 711.248 16.469 556.804 16.469 364.715 C 16.469 172.625 171.246 17.216 363.751 17.216 C 557.222 17.216 712 172.625 712 364.715 C 712 445.798 683.946 519.158 638.481 578.04 L 713.935 653.331 C 738.118 635.956 759.4 630.165 766.172 637.887 Z M 363.751 635.956 C 436.303 635.956 505.952 607.964 557.222 556.804 C 607.525 505.645 636.546 436.145 636.546 364.715 C 636.546 293.284 607.525 222.819 557.222 172.625 C 505.952 121.466 436.303 93.473 363.751 93.473 C 292.166 93.473 222.516 121.466 171.246 172.625 C 119.976 222.819 91.923 293.284 91.923 364.715 C 91.923 436.145 119.976 505.645 171.246 556.804 C 222.516 607.964 292.166 635.956 363.751 635.956 Z" horiz-adv-x="1000"/>
</svg>