<?xml version="1.0" encoding="utf-8"?>
<svg version="1.1" id="timer-05" x="0px" y="0px" viewBox="0 0 1000 1000" style="enable-background:new 0 0 1000 1000;" xmlns="http://www.w3.org/2000/svg">
  <g transform="matrix(8.483766, 0, 0, 8.483766, -47.202839, -46.778679)">
    <path d="m12.3,70.2c0,28.8 23.4,52.2 52.2,52.2s52.2-23.4 52.2-52.2c0-14.3-5.8-27.4-15.2-36.8l4.1-4.1 1.9,1.9c0.8,0.8 1.8,1.2 2.9,1.2s2.1-0.4 2.9-1.2c1.6-1.6 1.6-4.2 0-5.8l-9.5-9.5c-1.6-1.6-4.2-1.6-5.8,0-1.6,1.6-1.6,4.2 0,5.8l1.9,1.9-4.5,4.5c-7.6-5.6-16.7-9.1-26.7-9.9v-3.5h9.1c2.3,0 4.1-1.8 4.1-4.1s-1.8-4.1-4.1-4.1h-27c-2.3,0-4.1,1.8-4.1,4.1s1.8,4.1 4.1,4.1h9.7v3.5c-27,2.1-48.2,24.6-48.2,52zm52.2-44c24.3-3.55271e-15 44.1,19.8 44.1,44.1 0,24.3-19.8,44.1-44.1,44.1-24.3,0-44.1-19.8-44.1-44.1 0-24.4 19.8-44.1 44.1-44.1z"/>
  </g>
  <path d="M 191.887 529.643 L 182.592 529.643 C 172.369 529.643 164.005 538.2 164.005 548.659 C 164.005 559.116 172.369 567.672 182.592 567.672 L 191.887 567.672 C 202.109 567.672 210.473 559.116 210.473 548.659 C 210.473 538.2 202.109 529.643 191.887 529.643 Z"/>
  <path d="M 809.268 565.672 L 818.563 565.672 C 828.785 565.672 837.149 557.116 837.149 546.659 C 837.149 536.2 828.785 527.643 818.563 527.643 L 809.268 527.643 C 799.045 527.643 790.68 536.2 790.68 546.659 C 790.68 557.116 799.045 565.672 809.268 565.672 Z"/>
  <path d="M 292.54 303.173 C 285.105 295.568 273.953 295.568 266.518 303.173 C 259.083 310.78 259.083 322.188 266.518 329.795 L 273.023 336.45 C 276.741 340.252 281.387 342.154 286.035 342.154 C 290.682 342.154 295.328 340.252 299.046 336.45 C 306.481 328.844 306.481 317.435 299.046 309.829 L 292.54 303.173 Z"/>
  <path d="M 730.13 763.867 C 722.695 756.262 711.543 756.262 704.108 763.867 C 696.673 771.472 696.673 782.882 704.108 790.487 L 710.615 797.142 C 714.331 800.945 718.979 802.846 723.625 802.846 C 728.272 802.846 732.918 800.945 736.636 797.142 C 744.071 789.536 744.071 778.127 736.636 770.522 L 730.13 763.867 Z"/>
  <path d="M 273.023 752.867 L 266.518 759.522 C 259.083 767.127 259.083 778.536 266.518 786.142 C 270.235 789.945 274.882 791.846 279.529 791.846 C 284.176 791.846 288.822 789.945 292.54 786.142 L 299.046 779.487 C 306.481 771.882 306.481 760.472 299.046 752.867 C 291.61 745.262 280.459 745.262 273.023 752.867 Z"/>
  <path d="M 711.615 300.173 L 705.108 306.829 C 697.673 314.435 697.673 325.844 705.108 333.45 C 708.826 337.252 713.473 339.154 718.119 339.154 C 722.767 339.154 727.413 337.252 731.13 333.45 L 737.636 326.795 C 745.071 319.188 745.071 307.78 737.636 300.173 C 730.202 292.568 719.049 292.568 711.615 300.173 Z"/>
  <path d="M 598.889 549.148 C 598.889 601.437 557.068 644.219 505.952 644.219 C 454.837 644.219 413.015 601.437 413.015 549.148 C 413.015 503.512 445.667 464.533 487.365 455.976 L 496.839 454.422 C 472.629 461.333 486.782 453.829 506.479 453.829 C 526.176 453.829 538.749 459.754 515.065 454.422 L 524.539 455.976 C 567.29 464.533 598.889 503.512 598.889 549.148 Z M 561.714 549.148 C 561.714 517.773 536.621 492.104 505.952 492.104 C 475.282 492.104 450.19 517.773 450.19 549.148 C 450.19 580.521 475.282 606.191 505.952 606.191 C 536.621 606.191 561.714 580.521 561.714 549.148 Z"/>
  <path d="M 500.058 206.413 C 489.835 206.413 481.471 214.97 481.471 225.427 L 481.471 234.934 C 481.471 245.392 489.835 253.949 500.058 253.949 C 510.281 253.949 518.645 245.392 518.645 234.934 L 518.645 225.427 C 518.645 214.97 510.281 206.413 500.058 206.413 Z"/>
  <path d="M 508.426 848.624 C 498.203 848.624 489.839 857.18 489.839 867.638 L 489.839 877.145 C 489.839 887.603 498.203 896.16 508.426 896.16 C 518.649 896.16 527.013 887.603 527.013 877.145 L 527.013 867.638 C 527.013 857.18 518.649 848.624 508.426 848.624 Z"/>
  <path d="M 633.836 326.201 C 633.836 326.201 664.524 296.003 637.741 293.233 C 623.507 291.762 631.757 313.498 638.488 323.041 C 645.129 332.456 642.192 286.603 619.154 299.371 L 620.207 503.031 C 620.207 513.489 628.571 522.045 638.794 522.045 C 649.017 522.045 657.381 513.489 657.381 503.031 L 657.381 301.477 C 635.921 285.551 633.836 326.201 633.836 326.201 Z" transform="matrix(-0.743365, -0.668886, 0.668886, -0.743365, 840.093064, 1137.529723)"/>
</svg>