<?xml version="1.0" encoding="utf-8"?>
<svg version="1.1" id="undo-all" x="0px" y="0px" viewBox="0 0 1000 1000" style="enable-background:new 0 0 1000 1000;" xmlns="http://www.w3.org/2000/svg">
  <path d="M 361.064 622.104 L 361.064 661.104 C 361.064 677.104 354.263 688.104 340.66 694.104 C 334.831 696.104 330.945 696.104 327.059 696.104 C 316.371 696.104 308.599 694.104 302.769 686.104 L 23.925 401.104 C 18.096 393.104 14.21 386.104 14.21 376.104 C 14.21 366.104 18.096 358.104 23.925 350.104 L 302.769 65.104 C 312.485 54.104 325.115 50.104 340.66 58.104 C 354.263 63.104 361.064 75.104 361.064 91.104 L 361.064 128.104 L 145.373 350.104 C 139.544 358.104 135.658 366.104 135.658 376.104 C 135.658 386.104 139.544 393.104 145.373 401.104 Z M 985.789 643.104 C 985.789 665.104 981.904 690.104 976.073 718.104 C 970.245 747.104 963.443 772.104 955.671 796.104 C 947.898 817.104 938.182 841.104 928.466 864.104 C 919.721 888.104 913.893 905.104 908.064 915.104 L 896.405 938.104 C 894.461 944.104 888.632 946.104 881.831 946.104 C 879.887 946.104 877.945 946.104 877.945 946.104 C 868.229 944.104 864.341 937.104 864.341 927.104 C 879.887 778.104 860.456 673.104 807.02 612.104 C 784.672 585.104 752.611 565.104 714.719 550.104 C 676.827 536.104 627.276 526.104 569.953 520.104 L 569.953 661.104 C 569.953 677.104 563.153 688.104 547.607 694.104 C 543.721 696.104 539.835 696.104 534.005 696.104 C 524.289 696.104 517.489 694.104 509.715 686.104 L 232.815 401.104 C 226.985 393.104 223.1 386.104 223.1 376.104 C 223.1 366.104 226.985 358.104 232.815 350.104 L 509.715 65.104 C 521.375 54.104 534.005 50.104 547.607 58.104 C 563.153 63.104 569.953 75.104 569.953 91.104 L 569.953 235.104 C 718.606 247.104 826.451 288.104 894.461 360.104 C 955.671 425.104 985.789 518.104 985.789 643.104 Z" horiz-adv-x="1000"/>
</svg>