<?xml version="1.0" encoding="utf-8"?>
<svg version="1.1" id="vplayer-2" x="0px" y="0px" viewBox="0 0 1000 1000" style="enable-background:new 0 0 1000 1000;" xmlns="http://www.w3.org/2000/svg">
  <g transform="matrix(2.028757, 0, 0, 2.028757, 8.026412, 8.02638)">
    <path d="M 485 30 L 485 0 L 0 0 L 0 30 L 27.5 30 L 27.5 80 L 0 80 L 0 405 L 27.5 405 L 27.5 455 L 0 455 L 0 485 L 485 485 L 485 455 L 457.5 455 L 457.5 405 L 485 405 L 485 80 L 457.5 80 L 457.5 30 L 485 30 Z M 455 110 L 455 375 L 30 375 L 30 110 L 455 110 Z M 187.5 405 L 187.5 455 L 137.5 455 L 137.5 405 L 187.5 405 Z M 217.5 405 L 267.5 405 L 267.5 455 L 217.5 455 L 217.5 405 Z M 297.5 405 L 347.5 405 L 347.5 455 L 297.5 455 L 297.5 405 Z M 217.5 80 L 217.5 30 L 267.5 30 L 267.5 80 L 217.5 80 Z M 187.5 80 L 137.5 80 L 137.5 30 L 187.5 30 L 187.5 80 Z M 297.5 80 L 297.5 30 L 347.5 30 L 347.5 80 L 297.5 80 Z M 57.5 30 L 107.5 30 L 107.5 80 L 57.5 80 L 57.5 30 Z M 57.5 405 L 107.5 405 L 107.5 455 L 57.5 455 L 57.5 405 Z M 427.5 455 L 377.5 455 L 377.5 405 L 427.5 405 L 427.5 455 Z M 427.5 80 L 377.5 80 L 377.5 30 L 427.5 30 L 427.5 80 Z"/>
    <path d="M 201.878 172.5 L 201.878 312.5 L 323.122 242.5 Z"/>
  </g>
</svg>