<?xml version="1.0" encoding="utf-8"?>
<svg version="1.1" id="vplayer-2" x="0px" y="0px" viewBox="0 0 1000 1000" style="enable-background:new 0 0 1000 1000;" xmlns="http://www.w3.org/2000/svg">
  <path d="M 523.931 857.315 C 523.91 857.315 523.931 857.315 523.931 857.315 C 410.345 857.315 286.684 853.727 156.409 846.707 C 79.444 842.486 19.742 783.151 11.244 702.387 C -2.97 567.467 -2.97 431.264 11.244 297.553 C 19.725 217.461 79.346 158.126 156.235 153.29 C 380.916 139.15 612.101 139.15 843.706 153.29 C 921.497 158.009 979.778 215.944 988.775 297.475 C 1002.95 426.563 1002.971 562.748 988.793 702.331 C 980.602 783.038 922.378 841.047 843.918 846.671 C 745.179 853.727 637.517 857.315 523.931 857.315 Z M 497.362 181.029 C 384.14 181.029 270.168 184.596 158.614 191.599 C 99.856 195.282 55.962 239.501 49.383 301.597 C 35.455 432.622 35.455 566.103 49.383 698.375 C 55.962 760.973 99.799 805.171 158.462 808.395 C 288.048 815.377 411.016 818.947 523.895 818.947 C 636.58 818.947 743.319 815.398 841.157 808.416 C 900.358 804.156 944.347 759.976 950.582 698.453 C 964.51 561.557 964.51 428.076 950.6 301.675 C 943.753 239.385 899.841 195.148 841.369 191.599 C 726.359 184.578 610.602 181.029 497.362 181.029 Z M 402.285 364.099 L 402.285 627.396 L 655.129 496.64 L 402.285 364.099 Z"/>
</svg>