<?xml version="1.0" encoding="utf-8"?>
<svg version="1.1" id="vplayer" x="0px" y="0px" viewBox="0 0 1000 1000" style="enable-background:new 0 0 1000 1000;" xmlns="http://www.w3.org/2000/svg">
  <path d="M 629.414 485.508 L 440.538 365.314 C 435.249 361.965 428.552 361.742 423.042 364.747 C 417.563 367.769 414.146 373.538 414.146 379.806 L 414.146 620.194 C 414.146 626.461 417.563 632.23 423.059 635.253 C 425.633 636.66 428.467 637.365 431.318 637.365 C 434.529 637.365 437.74 636.454 440.538 634.686 L 629.414 514.492 C 634.359 511.332 637.365 505.872 637.365 500 C 637.365 494.127 634.359 488.667 629.414 485.508 Z M 448.488 588.927 L 448.488 411.073 L 588.206 500 L 448.488 588.927 Z"/>
  <path d="M 980.776 105.076 L 809.07 105.076 L 190.929 105.076 L 19.223 105.076 C 9.744 105.076 2.052 112.751 2.052 122.247 L 2.052 311.123 L 2.052 500 L 2.052 688.876 L 2.052 877.753 C 2.052 887.248 9.744 894.923 19.223 894.923 L 190.929 894.923 L 809.07 894.923 L 980.776 894.923 C 990.255 894.923 997.948 887.248 997.948 877.753 L 997.948 688.876 L 997.948 500 L 997.948 311.123 L 997.948 122.247 C 997.948 112.751 990.255 105.076 980.776 105.076 Z M 173.758 482.829 L 36.393 482.829 L 36.393 328.294 L 173.758 328.294 L 173.758 482.829 Z M 36.393 517.17 L 173.758 517.17 L 173.758 671.706 L 36.393 671.706 L 36.393 517.17 Z M 208.099 688.876 L 208.099 500 L 208.099 311.123 L 208.099 139.417 L 791.899 139.417 L 791.899 311.123 L 791.899 500 L 791.899 688.876 L 791.899 860.582 L 208.099 860.582 L 208.099 688.876 Z M 963.605 482.829 L 826.242 482.829 L 826.242 328.294 L 963.605 328.294 L 963.605 482.829 Z M 826.242 517.17 L 963.605 517.17 L 963.605 671.706 L 826.242 671.706 L 826.242 517.17 Z M 963.605 139.417 L 963.605 293.953 L 826.242 293.953 L 826.242 139.417 L 963.605 139.417 Z M 36.393 139.417 L 173.758 139.417 L 173.758 293.953 L 36.393 293.953 L 36.393 139.417 Z M 36.393 860.582 L 36.393 706.047 L 173.758 706.047 L 173.758 860.582 L 36.393 860.582 Z M 963.605 860.582 L 826.242 860.582 L 826.242 706.047 L 963.605 706.047 L 963.605 860.582 Z"/>
</svg>