<?xml version="1.0" encoding="utf-8"?>
<svg version="1.1" id="vplayer" x="0px" y="0px" viewBox="0 0 1000 1000" style="enable-background:new 0 0 1000 1000;" xmlns="http://www.w3.org/2000/svg">
  <path d="M 77.213 851.38 L 922.788 851.38 C 964.387 851.38 998.09 817.659 998.09 776.078 L 998.09 223.921 C 998.09 182.339 964.387 148.619 922.788 148.619 L 77.213 148.619 C 35.63 148.619 1.91 182.339 1.91 223.921 L 1.91 776.078 C 1.91 817.659 35.63 851.38 77.213 851.38 Z M 557.971 798.522 L 441.992 798.522 L 441.992 726.871 L 557.971 726.871 L 557.971 798.522 Z M 834.349 203.193 L 950.328 203.193 L 950.328 274.844 L 834.349 274.844 L 834.349 203.193 Z M 830.915 726.871 L 946.913 726.871 L 946.913 798.522 L 830.915 798.522 L 830.915 726.871 Z M 639.869 203.193 L 755.867 203.193 L 755.867 274.844 L 639.869 274.844 L 639.869 203.193 Z M 636.454 726.871 L 752.451 726.871 L 752.451 798.522 L 636.454 798.522 L 636.454 726.871 Z M 445.426 203.193 L 561.405 203.193 L 561.405 274.844 L 445.426 274.844 L 445.426 203.193 Z M 412.897 376.295 L 587.083 463.397 C 627.509 483.618 627.509 516.399 587.083 536.602 L 412.897 623.722 C 372.473 643.925 339.674 623.668 339.674 578.436 L 339.674 421.563 C 339.656 376.349 372.456 356.091 412.897 376.295 Z M 250.964 203.193 L 366.961 203.193 L 366.961 274.844 L 250.964 274.844 L 250.964 203.193 Z M 247.548 726.871 L 363.529 726.871 L 363.529 798.522 L 247.548 798.522 L 247.548 726.871 Z M 56.502 203.193 L 172.5 203.193 L 172.5 274.844 L 56.502 274.844 L 56.502 203.193 Z M 53.087 726.871 L 169.084 726.871 L 169.084 798.522 L 53.087 798.522 L 53.087 726.871 Z"/>
</svg>