<?xml version="1.0" encoding="utf-8"?>
<svg version="1.1" id="world-4" x="0px" y="0px" viewBox="0 0 1000 1000" style="enable-background:new 0 0 1000 1000;" xmlns="http://www.w3.org/2000/svg">
  <path d="M 5.76 499.507 C 5.76 363.393 54.193 247.993 151.058 151.333 C 246.935 54.672 364.557 6.342 499.971 6.342 C 635.385 6.342 753.007 54.672 849.872 151.333 C 947.726 246.02 996.159 363.393 994.182 499.507 C 992.205 636.607 943.772 753.98 849.872 848.668 C 754.984 945.328 639.338 993.658 499.971 993.658 C 360.603 993.658 244.958 945.328 151.058 848.668 C 56.17 752.007 7.737 636.607 5.76 499.507 Z M 121.405 538.96 C 125.359 575.454 135.243 609.976 149.081 644.497 C 167.861 692.827 194.549 733.267 232.109 769.761 C 268.68 804.283 309.206 832.886 355.661 852.613 C 357.638 840.777 357.638 820.064 360.603 785.542 C 362.58 752.007 366.534 727.349 368.511 709.595 C 366.534 700.718 358.627 682.964 347.754 660.279 C 333.916 636.607 327.986 617.866 326.009 604.058 C 326.009 590.249 326.009 580.386 326.009 575.454 C 327.986 569.536 327.986 563.618 327.986 559.673 C 326.009 557.7 322.055 555.728 318.101 551.782 L 311.182 543.892 C 305.252 538.96 301.298 536.987 299.321 535.015 C 291.414 533.042 279.553 529.097 266.703 523.179 C 250.889 517.261 241.004 513.316 234.085 511.343 C 226.178 509.37 216.294 505.425 204.433 499.507 C 193.56 494.575 183.676 488.657 175.769 482.739 C 165.884 476.821 157.977 468.931 149.081 461.04 C 139.197 452.163 131.29 442.3 125.359 432.437 C 119.429 466.958 119.429 501.48 121.405 538.96 Z M 262.75 203.608 C 274.611 201.635 285.483 201.635 297.344 203.608 C 309.206 209.526 322.055 218.403 333.916 234.184 C 347.754 249.966 358.627 258.843 368.511 264.76 C 370.488 268.706 374.441 268.706 380.372 268.706 C 382.349 274.624 390.256 278.569 403.106 280.542 C 414.967 282.514 422.874 286.46 426.828 288.432 C 441.654 297.309 453.515 307.173 463.399 320.981 C 447.585 341.694 436.712 355.503 426.828 359.448 C 426.828 359.448 426.828 361.421 428.805 361.421 C 432.758 367.339 430.781 371.284 424.851 373.257 C 420.897 374.243 412.99 376.216 401.129 378.188 C 390.256 380.161 382.349 384.106 378.395 390.024 C 374.441 393.97 372.465 401.86 368.511 413.696 C 368.511 415.669 366.534 418.628 364.557 420.601 C 366.534 438.354 368.511 456.108 366.534 468.931 C 364.557 484.712 360.603 492.603 353.684 492.603 C 349.731 492.603 345.777 492.603 341.823 490.63 C 335.893 488.657 329.962 486.685 322.055 482.739 C 317.113 478.794 309.206 472.876 299.321 464.985 C 299.321 468.931 301.298 474.849 303.275 478.794 C 305.252 484.712 307.229 488.657 307.229 492.603 L 313.159 492.603 C 318.101 490.63 322.055 492.603 324.032 494.575 C 326.009 497.534 326.009 501.48 324.032 503.452 L 322.055 509.37 L 320.078 511.343 L 327.986 515.288 C 333.916 521.206 341.823 523.179 347.754 523.179 C 353.684 523.179 358.627 521.206 368.511 521.206 C 382.349 519.234 392.233 519.234 399.152 519.234 C 407.059 519.234 414.967 521.206 426.828 527.124 C 436.712 533.042 443.631 538.96 447.585 541.919 C 451.538 545.864 459.446 551.782 469.33 559.673 C 481.191 565.591 488.11 573.482 492.064 577.427 C 494.04 579.4 501.948 582.359 513.809 590.249 C 524.682 596.167 534.566 604.058 538.519 608.003 C 544.45 613.921 548.404 620.825 548.404 628.716 C 546.427 675.074 538.519 705.65 522.705 723.404 C 517.763 727.349 511.832 735.24 501.948 741.158 C 490.087 748.062 482.179 755.953 479.214 761.871 C 473.284 769.761 467.353 777.652 463.399 785.542 C 459.446 792.447 457.469 802.31 457.469 812.173 C 453.515 820.064 447.585 830.914 441.654 844.722 C 434.735 860.504 430.781 869.38 426.828 873.326 C 492.064 887.134 556.311 881.216 617.593 862.476 C 681.841 840.777 733.239 806.255 777.718 757.925 C 811.324 721.431 836.034 682.964 852.838 638.579 C 868.652 596.167 878.537 549.81 880.513 503.452 L 843.942 525.151 C 828.127 523.179 820.22 525.151 820.22 533.042 L 836.034 538.96 C 838.011 539.946 839.988 539.946 839.988 541.919 C 841.965 547.837 841.965 555.728 836.034 563.618 C 832.081 571.509 822.197 582.359 807.37 598.14 C 807.37 615.894 805.393 624.771 803.416 630.689 C 801.44 636.607 797.486 644.497 793.532 652.388 L 793.532 665.21 C 791.555 671.128 789.579 679.019 783.648 686.91 C 779.694 696.773 777.718 703.677 775.741 711.568 C 771.787 729.322 766.845 746.089 753.007 761.871 C 733.239 779.624 718.412 786.529 704.574 785.542 C 698.644 783.57 694.69 781.597 690.736 775.679 C 687.771 765.816 683.817 753.98 677.887 739.185 C 671.956 723.404 668.003 713.54 666.026 709.595 C 664.049 703.677 662.072 696.773 662.072 690.855 C 662.072 682.964 662.072 675.074 664.049 667.183 C 666.026 660.279 666.026 652.388 666.026 648.443 C 666.026 642.525 664.049 634.634 658.118 624.771 C 654.165 613.921 652.188 608.003 652.188 604.058 C 650.211 600.113 652.188 594.195 656.142 584.331 L 646.257 580.386 C 643.292 579.4 631.431 579.4 615.616 579.4 L 604.744 579.4 C 575.091 579.4 556.311 561.646 548.404 525.151 C 544.45 503.452 548.404 482.739 562.242 461.04 C 564.218 459.067 564.218 456.108 564.218 452.163 L 564.218 446.245 C 569.161 444.272 575.091 438.354 581.022 426.519 C 586.952 426.519 598.813 424.546 615.616 422.573 C 635.385 420.601 648.234 418.628 658.118 418.628 C 668.003 416.655 679.864 418.628 692.713 422.573 C 698.644 426.519 702.597 430.464 708.528 432.437 C 718.412 438.354 726.32 442.3 731.262 446.245 L 762.891 424.546 C 756.961 415.669 749.053 405.806 743.123 399.888 C 726.32 378.188 706.551 378.188 687.771 399.888 L 619.57 393.97 C 607.709 399.888 596.836 403.833 581.022 405.806 C 579.045 397.915 577.068 391.997 575.091 386.079 C 571.137 378.188 569.161 373.257 567.184 367.339 C 567.184 363.393 569.161 359.448 571.137 357.475 L 579.045 349.585 C 584.975 345.64 588.929 339.722 590.906 332.817 C 592.883 326.899 592.883 319.009 594.859 309.145 C 596.836 301.255 598.813 293.364 598.813 290.405 C 602.767 280.542 607.709 270.678 615.616 258.843 C 619.57 249.966 627.477 244.048 639.338 238.13 C 648.234 232.212 660.095 228.266 673.933 224.321 C 685.794 220.376 696.667 218.403 712.482 216.43 C 726.32 214.458 737.192 212.485 749.053 212.485 C 724.343 191.772 698.644 174.018 673.933 161.196 C 666.026 161.196 656.142 159.223 643.292 155.278 C 629.454 153.305 619.57 151.333 613.639 151.333 C 600.79 149.36 582.998 153.305 565.207 165.141 C 552.357 174.018 534.566 179.936 515.786 179.936 C 492.064 179.936 467.353 175.991 441.654 167.114 C 416.944 159.223 396.187 149.36 378.395 139.497 C 335.893 153.305 297.344 174.018 262.75 203.608 Z" horiz-adv-x="1000"/>
</svg>