<?xml version="1.0" encoding="utf-8"?>
<svg version="1.1" id="world-4" x="0px" y="0px" viewBox="0 0 1000 1000" style="enable-background:new 0 0 1000 1000;" xmlns="http://www.w3.org/2000/svg">
  <path d="M 462.719 275.097 L 459.776 281.972 L 447.023 281.972 L 447.023 287.865 L 449.966 287.865 C 449.966 287.865 449.966 289.829 450.947 291.793 L 458.795 290.811 L 463.7 287.865 L 464.681 281.972 L 471.549 280.99 L 473.511 276.079 L 467.625 274.115 L 462.719 275.097 Z M 990.526 495.089 C 990.526 480.357 989.546 466.608 988.565 451.876 C 983.659 405.717 972.867 360.54 956.19 318.31 C 954.228 315.364 953.247 312.417 952.266 309.471 C 929.701 256.437 898.307 208.314 860.047 167.066 C 857.104 164.119 855.141 161.173 852.198 159.209 C 845.331 151.352 837.482 143.495 829.633 136.62 C 742.32 57.07 626.555 8.947 499.999 8.947 C 372.463 8.947 255.717 58.052 168.404 138.585 C 147.801 158.227 129.161 177.869 111.502 200.457 C 47.734 282.954 9.473 387.057 9.473 499.999 C 9.473 771.06 229.229 991.052 499.999 991.052 C 690.325 991.052 855.141 882.038 936.568 722.938 C 954.228 688.564 967.963 653.208 976.792 614.906 C 978.754 605.085 980.716 595.264 982.677 585.443 C 987.583 557.944 990.526 529.464 990.526 499.999 C 990.526 498.035 990.526 497.053 990.526 495.089 Z M 898.307 298.668 L 901.25 295.721 C 905.174 302.596 908.117 310.453 911.06 317.328 L 907.137 317.328 L 898.307 318.31 L 898.307 298.668 Z M 827.672 213.225 L 827.672 190.636 C 835.52 199.475 842.388 207.332 849.255 216.171 L 840.426 229.92 L 810.013 228.938 L 808.051 223.046 L 827.672 213.225 Z M 235.115 158.227 L 235.115 157.245 L 244.926 157.245 L 245.908 154.298 L 262.585 154.298 L 262.585 161.173 L 257.679 167.066 L 235.115 167.066 L 235.115 158.227 L 235.115 158.227 Z M 250.813 180.815 C 250.813 180.815 260.623 178.851 261.604 178.851 C 262.585 178.851 261.604 188.672 261.604 188.672 L 240.02 189.654 L 235.115 184.744 L 250.813 180.815 Z M 929.701 375.272 L 893.403 375.272 L 871.818 358.576 L 848.273 361.523 L 848.273 375.272 L 841.406 375.272 L 833.557 369.379 L 793.335 359.558 L 793.335 334.024 L 743.301 337.952 L 727.604 345.809 L 707.003 345.809 L 697.192 344.827 L 673.646 358.576 L 673.646 384.111 L 623.612 420.449 L 627.536 435.18 L 637.348 435.18 L 635.385 449.912 L 627.536 452.858 L 627.536 491.16 L 670.703 540.266 L 689.344 540.266 L 690.325 537.319 L 723.68 537.319 L 733.491 527.498 L 753.112 527.498 L 762.922 538.301 L 791.372 541.248 L 788.43 579.55 L 819.823 634.548 L 803.146 666.958 L 804.127 681.689 L 816.88 694.456 L 816.88 730.794 L 834.539 754.365 L 834.539 783.828 L 849.255 783.828 C 766.846 885.967 640.291 950.786 499.999 950.786 C 251.794 950.786 49.696 748.472 49.696 499.999 C 49.696 437.145 62.45 378.218 85.995 323.22 L 85.995 309.471 L 101.692 289.829 C 107.578 279.026 113.465 269.205 120.332 259.384 L 120.332 267.24 L 101.692 289.829 C 95.806 300.632 90.9 312.417 85.995 323.22 L 85.995 348.755 L 104.635 358.576 L 104.635 393.932 L 122.294 424.377 L 137.01 426.341 L 138.972 416.52 L 121.313 390.004 L 118.37 363.487 L 128.18 363.487 L 133.087 390.004 L 157.613 426.341 L 150.745 438.127 L 167.423 462.679 L 206.665 472.5 L 206.665 465.626 L 222.361 468.572 L 220.399 479.375 L 233.153 481.339 L 251.794 487.232 L 279.263 517.677 L 313.599 520.624 L 316.543 548.123 L 292.997 564.818 L 292.016 590.353 L 288.092 605.085 L 322.429 648.297 L 325.372 663.029 C 325.372 663.029 337.145 665.975 339.107 665.975 C 341.069 665.975 366.576 685.617 366.576 685.617 L 366.576 763.204 L 376.387 765.168 L 369.519 801.506 L 385.216 822.13 L 382.273 857.486 L 402.875 893.824 L 430.345 917.394 L 456.833 918.376 L 459.776 909.537 L 440.155 892.841 L 441.136 884.003 L 444.079 874.182 L 445.06 864.36 L 431.326 863.378 L 425.439 855.521 L 436.231 844.719 L 437.212 836.861 L 425.439 832.933 L 426.42 825.076 L 444.079 823.112 L 470.568 810.345 L 479.397 793.649 L 507.848 757.311 L 500.98 729.813 L 509.81 714.099 L 535.318 715.08 L 552.977 701.331 L 558.864 647.315 L 577.504 622.763 L 581.427 607.049 L 563.768 601.156 L 551.995 582.496 L 511.772 581.514 L 480.378 569.729 L 479.397 547.141 L 468.606 529.464 L 440.155 528.48 L 424.458 502.946 L 409.743 496.071 L 408.761 503.928 L 382.273 504.91 L 372.463 491.16 L 344.993 486.25 L 321.448 512.767 L 286.13 505.892 L 283.187 465.626 L 256.698 460.715 L 267.49 441.073 L 264.547 430.27 L 230.21 452.858 L 208.628 449.912 L 200.778 433.216 L 205.684 415.538 L 217.456 393.932 L 244.926 380.183 L 297.903 380.183 L 297.903 395.896 L 316.543 404.735 L 315.561 377.236 L 329.296 363.487 L 356.766 344.827 L 358.728 332.059 L 386.197 303.578 L 415.629 286.883 L 413.667 284.918 L 433.288 266.258 L 441.136 268.223 L 444.079 272.151 L 451.928 264.294 L 453.89 263.312 L 445.06 262.33 L 437.212 259.384 L 437.212 251.527 L 441.136 247.598 L 450.947 247.598 L 455.852 249.563 L 459.776 257.419 L 463.7 256.437 L 463.7 255.455 L 465.663 256.437 L 479.397 254.473 L 481.359 247.598 L 489.208 249.563 L 489.208 256.437 L 482.34 261.348 L 482.34 261.348 L 483.321 270.187 L 507.848 277.061 C 507.848 277.061 507.848 278.044 507.848 278.044 L 513.734 277.061 L 513.734 266.258 L 494.113 257.419 L 493.132 252.509 L 509.81 246.616 L 510.791 230.903 L 493.132 220.099 L 492.151 193.583 L 468.606 205.368 L 459.776 205.368 L 461.738 185.726 L 430.345 177.869 L 416.61 187.69 L 416.61 218.135 L 393.065 225.992 L 383.254 245.634 L 373.444 247.598 L 373.444 222.064 L 350.879 219.117 L 339.107 211.26 L 335.183 194.565 L 375.406 171.976 L 395.027 165.101 L 396.989 178.851 L 407.78 177.869 L 408.761 171.976 L 419.553 170.012 L 419.553 168.048 L 414.648 165.101 L 413.667 158.227 L 428.383 157.245 L 436.231 148.406 L 437.212 147.424 L 437.212 147.424 L 439.174 145.459 L 469.587 141.531 L 482.34 152.334 L 448.004 170.994 L 491.17 180.815 L 497.056 166.084 L 516.677 166.084 L 523.546 154.298 L 509.81 150.37 L 509.81 134.656 L 467.625 115.996 L 438.193 118.943 L 421.515 127.781 L 422.496 148.406 L 405.818 146.441 L 402.875 134.656 L 419.553 118.943 L 389.14 117.96 L 381.292 120.907 L 377.368 130.728 L 388.159 132.692 L 386.197 143.495 L 367.557 144.477 L 363.633 152.334 L 336.164 153.316 C 336.164 153.316 336.164 137.603 334.201 137.603 C 333.22 137.603 355.785 136.62 355.785 136.62 L 372.463 120.907 L 363.633 115.996 L 351.86 127.781 L 332.239 126.799 L 319.486 110.104 L 294.959 110.104 L 267.49 130.728 L 292.016 130.728 L 294.959 137.603 L 288.092 143.495 L 315.561 144.477 L 319.486 153.316 L 289.073 152.334 L 287.111 145.459 L 268.471 140.549 L 258.66 135.638 L 235.115 135.638 C 309.675 81.623 400.913 49.213 499.999 49.213 C 613.802 49.213 717.794 91.444 797.258 162.155 L 792.354 170.994 L 770.771 179.833 L 761.94 188.672 L 763.904 200.457 L 774.695 201.439 L 781.563 218.135 L 800.203 210.278 L 803.146 231.885 L 797.258 231.885 L 782.544 229.92 L 765.866 232.867 L 749.188 255.455 L 725.643 259.384 L 722.698 279.026 L 732.51 281.972 L 729.567 294.739 L 706.021 289.829 L 685.419 294.739 L 680.513 306.525 L 684.438 331.077 L 697.192 336.97 L 717.794 336.97 L 731.529 335.006 L 736.434 324.203 L 758.017 295.721 L 772.732 298.668 L 787.448 285.9 L 789.411 295.721 L 824.729 319.292 L 820.805 325.185 L 805.107 324.203 L 810.994 333.041 L 820.805 335.006 L 831.596 330.095 L 831.596 316.346 L 836.5 314.381 L 832.577 309.471 L 809.031 296.704 L 803.146 279.026 L 822.767 279.026 L 828.653 285.9 L 845.331 299.65 L 846.312 317.328 L 863.971 335.988 L 869.857 310.453 L 882.611 303.578 L 884.573 325.185 L 896.346 337.952 L 919.891 336.97 C 923.815 348.755 928.719 360.54 931.664 373.308 L 929.701 375.272 Z M 277.3 231.885 L 289.073 225.992 L 299.865 228.938 L 295.94 243.67 L 284.168 246.616 L 277.3 231.885 Z M 340.088 265.276 L 340.088 275.097 L 312.618 275.097 L 302.808 272.151 L 304.77 265.276 L 318.505 260.366 L 336.164 260.366 L 336.164 265.276 L 340.088 265.276 Z M 351.86 279.026 L 351.86 287.865 L 344.993 291.793 L 337.145 293.757 C 337.145 293.757 337.145 280.008 337.145 279.026 L 351.86 279.026 Z M 344.012 275.097 L 344.012 264.294 L 353.823 273.133 L 344.012 275.097 Z M 348.917 296.704 L 348.917 305.543 L 342.05 311.435 L 328.315 311.435 L 330.277 301.614 L 337.145 301.614 L 338.126 297.686 L 348.917 296.704 Z M 312.618 279.026 L 328.315 279.026 L 308.694 305.543 L 300.846 300.632 L 302.808 289.829 L 312.618 279.026 Z M 373.444 293.757 L 373.444 302.596 L 359.709 302.596 L 355.785 296.704 L 355.785 288.847 L 356.766 288.847 L 373.444 293.757 Z M 360.69 281.972 L 364.614 277.061 L 371.481 281.972 L 366.576 285.9 L 360.69 281.972 Z M 936.568 397.86 L 938.531 395.896 C 938.531 398.843 939.512 401.789 939.512 403.753 L 936.568 397.86 Z M 85.995 309.471 L 85.995 323.22 C 90.9 312.417 95.806 300.632 101.692 289.829 L 85.995 309.471 Z" horiz-adv-x="1000"/>
</svg>