<?xml version="1.0" encoding="utf-8"?>
<svg version="1.1" id="wrench" x="0px" y="0px" viewBox="0 0 1000 1000" style="enable-background:new 0 0 1000 1000;" xmlns="http://www.w3.org/2000/svg">
  <path d="M 229.762 810.354 C 229.762 801.821 225.523 791.156 219.165 784.758 C 210.687 777.292 203.269 773.025 192.67 773.025 C 182.074 775.159 173.596 777.292 166.178 784.758 C 159.818 791.156 155.579 799.688 153.46 810.354 C 153.46 822.085 157.699 830.617 166.178 837.017 C 173.596 843.415 182.074 847.682 192.67 849.815 C 201.149 849.815 210.687 847.682 219.165 837.017 C 227.644 828.484 231.882 818.885 229.762 810.354 Z M 610.215 561.857 L 207.508 968.197 C 192.67 980.995 173.596 989.526 153.46 989.526 C 134.385 989.526 116.369 980.995 99.412 968.197 L 36.887 902.073 C 23.11 889.275 14.632 870.078 14.632 849.815 C 14.632 828.484 23.11 810.354 36.887 795.423 L 440.654 389.083 C 455.49 428.544 477.745 462.673 509.538 493.601 C 538.151 522.397 571.004 545.861 610.215 561.857 Z M 985.369 301.63 C 985.369 318.695 981.13 338.959 972.651 364.554 C 954.635 418.947 920.724 462.673 875.155 495.734 C 828.525 528.796 778.717 545.861 722.549 543.727 C 648.367 543.727 585.841 518.131 533.912 465.872 C 481.984 414.679 457.609 351.757 457.609 277.101 C 457.609 203.511 481.984 141.654 533.912 89.395 C 585.841 39.27 648.367 12.607 722.549 10.474 C 744.805 10.474 768.118 14.739 792.493 21.139 C 817.927 28.604 838.063 37.137 857.138 49.935 C 863.496 54.2 867.736 58.467 867.736 64.866 C 867.736 72.332 863.496 76.597 857.138 82.996 L 683.339 183.248 L 683.339 316.561 L 798.852 380.552 C 798.852 378.419 815.808 368.82 844.421 351.757 C 875.155 332.559 900.588 316.561 924.963 303.763 C 948.277 288.832 962.054 281.366 966.294 281.366 C 972.651 281.366 976.891 283.499 981.13 287.766 C 985.369 290.965 985.369 295.231 985.369 301.63 Z" horiz-adv-x="1000"/>
</svg>