<?xml version="1.0" encoding="utf-8"?>
<svg version="1.1" id="zoom-in" x="0px" y="0px" viewBox="0 0 1000 1000" style="enable-background:new 0 0 1000 1000;" xmlns="http://www.w3.org/2000/svg">
  <path d="M 547.081 379.027 L 433.586 379.027 L 433.586 265.987 C 433.586 256.072 425.551 247.147 414.501 247.147 C 403.453 247.147 395.418 256.072 395.418 265.987 L 395.418 379.027 L 281.926 379.027 C 271.882 379.027 262.841 386.96 262.841 396.876 C 262.841 406.792 271.882 415.716 281.926 415.716 L 395.418 415.716 L 395.418 528.756 C 395.418 538.672 404.458 546.604 414.501 546.604 C 424.546 546.604 433.586 538.672 433.586 528.756 L 433.586 415.716 L 547.081 415.716 C 558.128 415.716 566.163 407.784 566.163 396.876 C 566.163 385.97 558.128 379.027 547.081 379.027 Z M 977.957 964.059 L 696.733 674.518 C 768.043 603.124 813.24 505.95 813.24 396.876 C 813.24 180.712 634.461 4.21 414.501 4.21 C 194.544 4.21 16.77 180.712 16.77 396.876 C 16.77 613.04 194.544 790.532 414.501 790.532 C 510.921 790.532 599.308 756.819 668.609 700.299 L 950.84 989.84 C 954.857 993.806 959.878 995.79 964.9 995.79 C 968.918 995.79 973.94 993.806 977.957 990.832 C 984.989 983.89 984.989 971.992 977.957 964.059 Z M 53.931 396.876 C 53.931 201.536 215.637 41.89 414.501 41.89 C 613.369 41.89 775.073 201.536 775.073 396.876 C 775.073 592.217 613.369 752.852 414.501 752.852 C 215.637 752.852 53.931 593.21 53.931 396.876 Z" horiz-adv-x="1000"/>
</svg>