<?xml version="1.0" encoding="utf-8"?>
<svg version="1.1" id="bolt" x="0px" y="0px" viewBox="0 0 1000 1000" style="enable-background:new 0 0 1000 1000;" xmlns="http://www.w3.org/2000/svg">
  <path d="M 744.22 274.51 C 750.22 282.71 752.22 289.884 748.22 298.084 L 447.22 961.23 C 441.22 971.479 434.22 975.579 424.22 975.579 C 422.22 975.579 418.22 975.579 416.22 973.529 C 408.22 971.479 404.22 969.429 400.22 963.279 C 398.22 957.13 397.22 950.98 398.22 944.83 L 508.22 484.626 L 281.22 540.998 C 281.22 543.048 277.22 543.048 275.22 543.048 C 268.22 543.048 262.22 540.998 258.22 536.898 C 252.22 530.748 248.22 522.548 250.22 512.299 L 363.22 41.845 C 363.22 35.695 367.22 32.621 371.22 28.521 C 377.22 24.421 381.22 24.421 387.22 24.421 L 570.22 24.421 C 578.22 24.421 584.22 26.47 588.22 30.57 C 594.22 35.695 596.22 39.795 596.22 47.995 C 596.22 50.044 594.22 54.144 592.22 58.244 L 498.22 322.683 L 719.22 266.31 C 721.22 266.31 723.22 264.26 725.22 264.26 C 732.22 264.26 738.22 268.36 744.22 274.51 Z" horiz-adv-x="1000"/>
</svg>