<?xml version="1.0" encoding="utf-8"?>
<svg version="1.1" id="circle tick" x="0px" y="0px" viewBox="0 0 1000 1000" style="enable-background:new 0 0 1000 1000;" xmlns="http://www.w3.org/2000/svg">
  <path d="M 498.621 998.891 C 223.439 998.891 -0.458 775.983 -0.458 501.977 C -0.458 227.965 223.439 5.055 498.621 5.055 C 773.805 5.055 997.701 227.965 997.701 501.977 C 997.701 775.983 773.805 998.891 498.621 998.891 Z M 498.621 37.113 C 241.174 37.113 31.739 245.656 31.739 501.977 C 31.739 758.295 241.174 966.837 498.621 966.837 C 756.071 966.837 965.506 758.295 965.506 501.977 C 965.506 245.656 756.071 37.113 498.621 37.113 Z"/>
  <path d="M 808.538 321.1 C 803.314 316.785 794.871 316.785 789.647 321.1 L 384.956 655.489 L 210.352 511.216 C 205.129 506.9 196.686 506.9 191.462 511.216 C 186.239 515.532 186.239 522.509 191.462 526.825 L 375.511 678.901 C 378.116 681.054 381.537 682.137 384.956 682.137 C 388.377 682.137 391.797 681.054 394.402 678.901 L 808.538 336.708 C 813.761 332.393 813.761 325.416 808.538 321.1 Z"/>
</svg>