<?xml version="1.0" encoding="utf-8"?>
<svg version="1.1" id="clef-bass-2" x="0px" y="0px" viewBox="0 0 1000 1000" style="enable-background:new 0 0 1000 1000;" xmlns="http://www.w3.org/2000/svg">
  <path d="M 328.807 13.528 C 153.266 13.528 58.545 139.776 58.545 258.565 C 58.545 317.638 77.045 368.468 112.05 405.566 C 148.095 443.771 198.13 463.965 256.737 463.965 C 316.443 463.965 364.842 415.566 364.842 355.86 C 364.842 296.153 316.443 247.755 256.737 247.755 C 221.322 247.755 189.889 264.785 170.17 291.098 C 167.493 279.588 166.65 268.208 166.65 258.565 C 166.65 190.517 222.349 121.633 328.807 121.633 C 464.529 121.633 563.034 250.45 563.034 427.93 C 563.034 597.503 488.899 703.526 426.71 762.604 C 350.41 835.093 246.453 878.367 148.632 878.367 L 148.632 986.471 C 275.346 986.471 403.839 933.443 501.166 840.981 C 610.773 736.854 671.139 590.159 671.139 427.93 C 671.139 312.726 636.747 207.709 574.298 132.22 C 510.978 55.682 423.795 13.528 328.807 13.528 Z"/>
  <path d="M 827.047 374.122 C 890.13 374.122 941.455 322.798 941.455 259.715 C 941.455 196.632 890.13 145.308 827.047 145.308 C 763.965 145.308 712.64 196.632 712.64 259.715 C 712.64 322.798 763.961 374.122 827.047 374.122 Z M 827.047 217.378 C 850.394 217.378 869.385 236.372 869.385 259.715 C 869.385 283.058 850.391 302.052 827.047 302.052 C 803.704 302.052 784.71 283.058 784.71 259.715 C 784.71 236.372 803.704 217.378 827.047 217.378 Z"/>
  <path d="M 827.047 541.693 C 763.965 541.693 712.64 593.016 712.64 656.099 C 712.64 719.182 763.961 770.507 827.047 770.507 C 890.134 770.507 941.455 719.182 941.455 656.099 C 941.455 593.016 890.13 541.693 827.047 541.693 Z M 827.047 698.438 C 803.704 698.438 784.71 679.443 784.71 656.099 C 784.71 632.757 803.704 613.763 827.047 613.763 C 850.394 613.763 869.385 632.757 869.385 656.099 C 869.385 679.443 850.391 698.438 827.047 698.438 Z"/>
</svg>