<?xml version="1.0" encoding="utf-8"?>
<svg version="1.1" id="close" x="0px" y="0px" viewBox="0 0 1000 1000" style="enable-background:new 0 0 1000 1000;" xmlns="http://www.w3.org/2000/svg">
  <path d="M 475.07 489.046 L 38.045 64.653 C 25.563 52.172 15.037 42.443 27.519 30.921 C 33.28 25.16 40.962 22.279 48.643 22.279 C 56.325 22.279 64.005 25.16 69.766 30.921 L 510.632 459.153 L 938.865 30.921 C 946.731 22.002 952.306 27.542 953.672 26.49 C 955.038 25.438 962.719 25.16 969.44 30.921 C 980.962 42.443 980.962 61.646 969.44 74.127 L 544.088 498.52 L 969.44 923.873 C 980.962 936.355 980.962 955.558 969.44 967.08 C 957.918 978.602 949.241 969.128 936.759 957.606 L 508.526 529.373 L 69.766 967.08 C 58.244 978.602 39.042 978.602 26.56 967.08 C 15.037 955.558 27.669 936.355 39.192 923.873 L 475.07 489.046 Z" horiz-adv-x="1000"/>
</svg>