<?xml version="1.0" encoding="utf-8"?>
<svg version="1.1" id="close" x="0px" y="0px" viewBox="0 0 1000 1000" style="enable-background:new 0 0 1000 1000;" xmlns="http://www.w3.org/2000/svg">
  <path d="M 476.409 490.58 L 62.823 88.948 C 51.01 77.137 41.049 67.929 52.861 57.025 C 58.313 51.573 65.583 48.847 72.852 48.847 C 80.122 48.847 87.391 51.573 92.843 57.025 L 510.064 462.29 L 915.329 57.025 C 922.773 48.585 928.049 53.828 929.342 52.832 C 930.635 51.836 937.904 51.573 944.264 57.025 C 955.168 67.929 955.168 86.103 944.264 97.914 L 541.725 499.546 L 944.264 902.086 C 955.168 913.898 955.168 932.071 944.264 942.975 C 933.36 953.88 925.149 944.914 913.336 934.01 L 508.071 528.744 L 92.843 942.975 C 81.939 953.88 63.766 953.88 51.954 942.975 C 41.049 932.071 53.003 913.898 63.908 902.086 L 476.409 490.58 Z" horiz-adv-x="1000"/>
</svg>