<?xml version="1.0" encoding="utf-8"?>
<svg version="1.1" id="cog" x="0px" y="0px" viewBox="0 0 1000 1000" style="enable-background:new 0 0 1000 1000;" xmlns="http://www.w3.org/2000/svg">
  <path d="M 662.167 500.565 C 662.167 544.655 646.292 581.962 615.672 614.745 C 581.651 645.269 544.228 661.096 500.001 661.096 C 455.773 661.096 418.35 645.269 384.329 614.745 C 353.71 581.962 337.833 544.655 337.833 500.565 C 337.833 455.344 353.71 418.038 384.329 385.254 C 418.35 354.73 455.773 338.904 500.001 338.904 C 544.228 338.904 581.651 354.73 615.672 385.254 C 646.292 418.038 662.167 455.344 662.167 500.565 Z M 985.369 568.395 L 985.369 429.344 C 985.369 422.561 985.369 418.038 980.833 413.517 C 978.564 408.994 974.029 407.863 967.224 405.602 L 852.687 387.514 C 843.615 364.905 834.542 345.686 825.469 329.858 C 841.346 310.641 862.893 281.248 894.646 243.941 C 899.182 239.418 901.45 232.636 901.45 228.114 C 901.45 221.331 899.182 217.939 894.646 213.418 C 883.305 197.591 862.893 174.98 832.273 144.457 C 801.654 116.195 781.242 100.367 772.169 100.367 C 767.633 100.367 761.963 102.627 757.427 107.151 L 667.838 174.98 C 650.828 164.805 630.414 158.022 611.135 151.24 C 604.331 93.584 597.526 54.017 592.992 33.668 C 590.724 21.231 581.651 16.71 571.445 16.71 L 429.69 16.71 C 425.154 16.71 418.35 16.71 413.814 21.231 C 409.277 25.754 407.01 29.146 407.01 33.668 L 388.865 151.24 C 369.587 158.022 349.174 164.805 332.163 172.719 L 242.574 107.151 C 239.172 102.627 234.635 100.367 227.831 100.367 C 221.027 100.367 216.491 102.627 211.956 107.151 C 158.655 155.761 123.499 190.808 107.624 213.418 C 103.088 217.939 103.088 221.331 103.088 228.114 C 103.088 232.636 103.088 237.158 107.624 241.68 C 114.428 250.724 125.768 266.552 139.377 283.508 C 154.119 303.858 165.459 318.554 174.532 329.858 C 163.192 350.208 154.119 371.688 148.45 392.036 L 32.777 408.994 C 25.973 408.994 21.436 411.255 19.169 415.778 C 14.632 420.299 14.632 424.822 14.632 431.605 L 14.632 570.656 C 14.632 577.439 14.632 581.962 19.169 586.483 C 21.436 591.005 25.973 593.266 30.509 595.527 L 148.45 612.484 C 154.119 630.572 163.192 649.792 174.532 670.141 C 156.387 693.881 134.841 723.274 105.355 756.058 C 100.82 762.841 99.685 767.363 99.685 771.885 C 99.685 776.407 100.82 780.929 105.355 786.581 C 116.695 802.409 137.108 825.019 167.728 853.281 C 198.347 883.805 218.76 899.632 227.831 899.632 C 232.368 899.632 239.172 897.371 242.574 892.849 L 332.163 825.019 C 349.174 835.194 369.587 841.976 388.865 848.759 C 395.669 906.415 402.473 945.983 407.01 966.331 C 409.277 978.767 418.35 983.289 429.69 983.289 L 571.445 983.289 C 574.848 983.289 581.651 983.289 586.188 978.767 C 590.724 974.245 592.992 970.854 592.992 966.331 L 611.135 848.759 C 630.414 841.976 650.828 835.194 667.838 827.281 L 757.427 892.849 C 761.963 897.371 765.365 899.632 772.169 899.632 C 778.974 899.632 783.508 897.371 788.047 892.849 C 843.615 841.976 878.77 806.932 892.378 785.45 C 896.914 783.19 896.914 778.668 896.914 771.885 C 896.914 767.363 896.914 762.841 892.378 758.319 C 885.575 749.276 874.232 734.579 860.624 716.492 C 845.882 696.141 834.542 681.445 825.469 670.141 C 836.81 649.792 845.882 630.572 852.687 607.962 L 967.224 591.005 C 974.029 591.005 978.564 588.744 980.833 584.222 C 985.369 579.7 985.369 575.178 985.369 568.395 Z" horiz-adv-x="1000"/>
</svg>