<?xml version="1.0" encoding="utf-8"?>
<svg version="1.1" id="cogs" x="0px" y="0px" viewBox="0 0 1000 1000" style="enable-background:new 0 0 1000 1000;" xmlns="http://www.w3.org/2000/svg">
  <path d="M 467.685 498.505 C 467.685 459.63 454.76 426.736 427.985 397.829 C 403.057 370.916 371.666 356.96 335.659 356.96 C 297.804 356.96 267.338 370.916 242.409 397.829 C 216.557 426.736 202.709 459.63 202.709 498.505 C 202.709 538.376 216.557 571.27 242.409 600.177 C 267.338 627.091 297.804 641.045 335.659 641.045 C 371.666 641.045 403.057 627.091 427.985 600.177 C 454.76 571.27 467.685 538.376 467.685 498.505 Z M 862.845 783.586 C 862.845 763.65 857.304 747.701 842.532 734.743 C 829.607 718.794 813.911 712.814 797.291 712.814 C 779.751 712.814 763.131 718.794 751.129 734.743 C 738.204 747.701 730.817 763.65 730.817 783.586 C 730.817 802.524 738.204 820.467 751.129 833.425 C 763.131 847.38 777.904 855.354 797.291 855.354 C 815.758 855.354 829.607 847.38 842.532 833.425 C 857.304 820.467 862.845 802.524 862.845 783.586 Z M 862.845 214.42 C 862.845 195.481 857.304 177.539 842.532 164.58 C 829.607 150.626 813.911 142.651 797.291 142.651 C 779.751 142.651 763.131 150.626 751.129 164.58 C 738.204 177.539 730.817 195.481 730.817 214.42 C 730.817 234.356 738.204 249.308 751.129 265.256 C 763.131 279.212 777.904 285.192 797.291 285.192 C 815.758 285.192 829.607 279.212 842.532 265.256 C 857.304 249.308 862.845 234.356 862.845 214.42 Z M 664.342 448.665 L 664.342 551.335 C 664.342 555.321 664.342 559.308 660.648 561.302 C 658.803 565.289 656.956 567.283 653.262 567.283 L 573.862 580.241 C 568.322 594.196 562.783 608.151 556.32 623.103 C 568.322 641.045 583.094 662.974 602.483 687.894 C 604.329 691.881 606.176 695.868 606.176 699.856 C 606.176 703.843 604.329 706.834 602.483 708.827 C 596.02 720.788 581.248 736.737 560.936 759.663 C 539.7 781.592 526.775 792.557 520.313 792.557 C 516.619 792.557 512.925 790.564 509.234 788.57 L 449.221 738.73 C 437.219 744.711 424.293 749.695 409.521 755.676 C 405.828 794.55 403.057 824.454 399.364 841.4 C 395.672 851.367 391.978 855.354 382.745 855.354 L 287.649 855.354 C 283.956 855.354 280.263 853.36 276.57 851.367 C 274.723 847.38 272.877 845.387 271.03 841.4 L 259.951 755.676 C 247.949 751.688 235.023 745.708 220.251 738.73 L 161.161 788.57 C 157.469 790.564 153.776 792.557 150.082 792.557 C 146.39 792.557 142.696 790.564 139.003 787.573 C 90.994 738.73 65.142 708.827 65.142 699.856 C 65.142 695.868 66.989 691.881 68.835 687.894 C 72.528 681.914 79.915 671.945 90.994 658.987 C 99.303 645.032 108.536 633.071 114.074 625.096 C 106.689 608.151 99.303 592.202 96.533 579.244 L 18.055 565.289 C 15.285 565.289 11.593 563.295 9.747 561.302 C 6.053 557.315 6.053 553.328 6.053 549.341 L 6.053 446.672 C 6.053 442.685 6.053 438.698 9.747 436.703 C 11.593 432.716 15.285 430.723 17.132 430.723 L 98.38 416.767 C 101.149 403.809 106.689 389.855 114.074 373.906 C 101.149 356.96 87.3 335.031 66.989 310.112 C 65.142 306.124 63.296 302.137 63.296 298.15 C 63.296 294.163 65.142 290.176 66.989 289.179 C 74.375 277.217 89.147 261.269 108.536 238.343 C 130.694 216.414 142.696 205.449 150.082 205.449 C 153.776 205.449 157.469 206.445 161.161 208.439 L 220.251 259.276 C 231.33 253.295 246.102 247.314 259.951 242.33 C 263.644 201.462 267.338 173.552 271.03 156.607 C 274.723 146.638 280.263 142.651 287.649 142.651 L 382.745 142.651 C 386.439 142.651 390.132 144.645 393.825 146.638 C 397.518 150.626 399.364 152.62 399.364 156.607 L 409.521 242.33 C 422.446 246.317 435.372 251.301 449.221 259.276 L 509.234 208.439 C 512.925 206.445 516.619 205.449 520.313 205.449 C 523.083 205.449 526.775 206.445 530.468 210.433 C 581.248 259.276 604.329 289.179 604.329 298.15 C 604.329 302.137 604.329 306.124 600.637 310.112 C 597.866 316.093 590.481 326.06 579.402 339.019 C 570.168 354.967 560.936 364.935 556.32 371.913 C 564.629 391.849 570.168 405.803 573.862 418.762 L 653.262 430.723 C 655.109 432.716 658.803 434.71 660.648 436.703 C 664.342 440.691 664.342 444.678 664.342 448.665 Z M 993.947 744.711 L 993.947 822.46 C 993.947 828.442 969.019 833.425 918.24 839.406 C 912.7 849.374 909.007 859.342 902.544 869.309 C 920.087 912.172 929.319 937.091 929.319 945.065 C 929.319 947.059 927.473 949.052 927.473 949.052 C 884.079 975.966 864.692 989.921 862.845 989.921 C 860.998 989.921 851.765 979.953 838.839 962.01 C 826.837 945.065 817.604 933.103 812.064 925.13 C 804.679 925.13 799.138 925.13 797.291 925.13 C 793.6 925.13 788.983 925.13 781.596 925.13 C 776.057 933.103 766.824 945.065 753.898 962.01 C 741.896 979.953 734.51 989.921 730.817 989.921 C 730.817 989.921 709.581 975.966 668.035 949.052 C 666.189 949.052 664.342 947.059 664.342 945.065 C 664.342 937.091 673.574 912.172 691.117 869.309 C 685.577 859.342 680.038 849.374 675.421 839.406 C 624.641 833.425 598.79 828.442 598.79 822.46 L 598.79 744.711 C 598.79 738.73 624.641 732.75 675.421 726.769 C 680.038 716.801 685.577 706.834 691.117 699.856 C 673.574 656.994 664.342 631.078 664.342 621.109 C 664.342 620.113 666.189 620.113 668.035 618.119 C 668.035 618.119 675.421 614.132 685.577 606.158 C 694.81 600.177 705.889 594.196 714.198 588.215 C 725.277 582.235 730.817 579.244 730.817 579.244 C 734.51 579.244 741.896 588.215 753.898 604.164 C 766.824 621.109 776.057 635.064 781.596 643.038 C 788.983 641.045 793.6 641.045 797.291 641.045 C 799.138 641.045 804.679 641.045 812.064 643.038 C 829.607 616.125 846.225 596.189 859.151 580.241 L 862.845 579.244 C 864.692 579.244 885.926 592.202 927.473 618.119 C 927.473 620.113 929.319 620.113 929.319 621.109 C 929.319 631.078 920.087 656.994 902.544 699.856 C 907.161 706.834 912.7 716.801 918.24 726.769 C 969.019 732.75 993.947 738.73 993.947 744.711 Z M 993.947 175.545 L 993.947 253.295 C 993.947 259.276 969.019 265.256 918.24 271.237 C 912.7 281.205 909.007 290.176 902.544 298.15 C 920.087 341.012 929.319 366.929 929.319 375.9 C 929.319 377.893 927.473 377.893 927.473 379.887 C 884.079 405.803 864.692 418.762 862.845 418.762 C 860.998 418.762 851.765 411.784 838.839 393.842 C 826.837 375.9 817.604 362.942 812.064 354.967 C 804.679 356.96 799.138 356.96 797.291 356.96 C 793.6 356.96 788.983 356.96 781.596 354.967 C 776.057 362.942 766.824 375.9 753.898 393.842 C 741.896 411.784 734.51 418.762 730.817 418.762 C 730.817 418.762 709.581 405.803 668.035 379.887 C 666.189 377.893 664.342 377.893 664.342 375.9 C 664.342 366.929 673.574 341.012 691.117 298.15 C 685.577 290.176 680.038 281.205 675.421 271.237 C 624.641 265.256 598.79 259.276 598.79 253.295 L 598.79 175.545 C 598.79 169.565 624.641 164.58 675.421 158.6 C 680.038 146.638 685.577 136.671 691.117 128.696 C 673.574 85.835 664.342 60.915 664.342 52.941 C 664.342 50.947 666.189 48.953 668.035 48.953 C 668.035 46.959 675.421 42.972 685.577 37.988 C 694.81 30.014 705.889 24.034 714.198 18.053 C 725.277 12.072 730.817 10.079 730.817 10.079 C 734.51 10.079 741.896 18.053 753.898 35.995 C 766.824 52.941 776.057 64.902 781.596 72.877 C 788.983 72.877 793.6 72.877 797.291 72.877 C 799.138 72.877 804.679 72.877 812.064 72.877 C 829.607 46.959 846.225 26.027 859.151 10.079 L 862.845 10.079 C 864.692 10.079 885.926 22.04 927.473 48.953 C 927.473 48.953 929.319 50.947 929.319 52.941 C 929.319 60.915 920.087 85.835 902.544 128.696 C 907.161 136.671 912.7 146.638 918.24 158.6 C 969.019 164.58 993.947 169.565 993.947 175.545 Z" horiz-adv-x="1000"/>
</svg>