<?xml version="1.0" encoding="utf-8"?>
<svg version="1.1" id="download" x="0px" y="0px" viewBox="0 0 1000 1000" style="enable-background:new 0 0 1000 1000;" xmlns="http://www.w3.org/2000/svg">
  <path d="M 965.075 653.5 C 976.987 659.5 983.935 670.5 989.891 684.5 C 997.833 700.5 997.833 713.5 993.863 725.5 L 967.061 879.5 C 963.091 891.5 957.135 903.5 943.237 911.5 C 932.318 920.5 918.423 924.5 904.524 924.5 L 94.537 924.5 C 80.637 924.5 67.735 920.5 55.824 911.5 C 41.925 903.5 35.971 891.5 31.999 879.5 L 5.198 725.5 C -0.756 692.5 9.169 668.5 35.971 653.5 L 192.806 545.5 L 290.084 545.5 L 121.338 674.5 L 300.011 674.5 C 303.981 674.5 307.951 676.5 311.922 682.5 L 350.635 793.5 L 648.425 793.5 L 688.13 682.5 C 693.094 676.5 697.065 674.5 699.05 674.5 L 877.723 674.5 L 708.977 545.5 L 806.254 545.5 Z M 757.616 331.5 L 499.53 575.5 L 241.445 331.5 L 406.223 331.5 L 406.223 75.5 L 594.823 75.5 L 594.823 331.5 Z" horiz-adv-x="1000"/>
</svg>