<?xml version="1.0" encoding="utf-8"?>
<svg version="1.1" id="eject" x="0px" y="0px" viewBox="0 0 1000 1000" style="enable-background:new 0 0 1000 1000;" xmlns="http://www.w3.org/2000/svg">
  <path d="M 65.158 559.363 L 473.842 74.661 C 481.049 64.871 489.283 59.974 499.579 59.974 C 509.873 59.974 518.109 64.871 525.314 74.661 L 931.94 559.363 C 940.176 566.707 944.294 574.051 940.176 581.396 C 938.118 586.29 931.94 588.739 921.646 588.739 L 77.511 588.739 C 67.217 588.739 61.04 586.29 58.981 581.396 C 56.922 574.051 58.981 566.707 65.158 559.363 Z M 904.146 940.026 L 95.011 940.026 C 85.747 940.026 77.511 935.131 69.275 925.337 C 61.04 915.547 58.981 906.979 58.981 894.74 L 58.981 722.157 C 58.981 707.468 63.098 698.901 69.275 689.107 C 75.452 681.763 85.747 676.866 95.011 676.866 L 904.146 676.866 C 913.411 676.866 921.646 681.763 929.882 689.107 C 936.058 698.901 940.176 707.468 940.176 722.157 L 940.176 894.74 C 940.176 906.979 938.118 917.995 929.882 925.337 C 921.646 935.131 913.411 937.577 904.146 940.026 Z" horiz-adv-x="1000"/>
</svg>