<?xml version="1.0" encoding="utf-8"?>
<svg version="1.1" id="fast-backward" x="0px" y="0px" viewBox="0 0 1000 1000" style="enable-background:new 0 0 1000 1000;" xmlns="http://www.w3.org/2000/svg">
  <path d="M 80.999 914.779 C 74.825 920.683 69.532 924.62 66.004 920.683 C 60.711 918.715 58.947 912.811 58.947 903.955 L 58.947 96.045 C 58.947 87.189 60.711 81.284 66.004 79.316 C 69.532 75.38 74.825 79.316 80.999 85.221 L 431.196 474.906 C 432.959 478.843 434.724 480.811 436.488 486.715 L 436.488 96.045 C 436.488 87.189 440.016 81.284 443.545 79.316 C 447.956 75.38 453.248 79.316 458.541 85.221 L 808.736 474.906 C 812.265 478.843 814.029 480.811 814.911 486.715 L 814.911 113.758 C 814.911 103.918 818.439 96.045 823.733 88.173 C 830.789 81.284 837.847 79.316 846.667 79.316 L 910.18 79.316 C 918.999 79.316 925.175 81.284 932.232 88.173 C 937.524 96.045 941.053 103.918 941.053 113.758 L 941.053 886.242 C 941.053 896.082 937.524 903.955 932.232 911.827 C 925.175 918.715 918.999 920.683 910.18 920.683 L 846.667 920.683 C 837.847 920.683 830.789 918.715 823.733 911.827 C 818.439 903.955 814.911 896.082 814.911 886.242 L 814.911 513.285 C 814.029 517.221 812.265 521.157 808.736 525.093 L 458.541 914.779 C 453.248 920.683 447.956 924.62 443.545 920.683 C 440.016 918.715 436.488 912.811 436.488 903.955 L 436.488 513.285 C 434.724 517.221 432.959 521.157 431.196 525.093 Z" horiz-adv-x="1000" transform="matrix(-1, 0, 0, -1, 999.99995, 999.999436)"/>
</svg>