<?xml version="1.0" encoding="utf-8"?>
<svg version="1.1" id="forbidden"  x="0px" y="0px" viewBox="0 0 1000 1000" style="enable-background:new 0 0 1000 1000;" xmlns="http://www.w3.org/2000/svg">
  <path d="M 845.52 156.342 C 654.42 -34.781 343.425 -34.781 152.325 156.342 C -38.776 347.442 -38.776 658.393 152.325 849.515 C 247.886 945.053 373.41 992.857 498.934 992.857 C 624.435 992.857 749.959 945.076 845.52 849.515 C 1036.62 658.393 1036.62 347.442 845.52 156.342 Z M 178.984 182.978 C 267.208 94.776 383.07 50.664 498.934 50.664 C 608.873 50.664 718.538 90.903 804.848 170.309 L 166.337 808.82 C 3.218 631.574 7.091 354.87 178.984 182.978 Z M 818.861 822.833 C 646.947 994.748 370.288 998.621 192.996 835.479 L 831.508 196.991 C 994.649 374.26 990.777 650.942 818.861 822.833 Z"/>
</svg>
