<?xml version="1.0" encoding="utf-8"?>
<svg version="1.1" id="forward" x="0px" y="0px" viewBox="0 0 1000 1000" style="enable-background:new 0 0 1000 1000;" xmlns="http://www.w3.org/2000/svg">
  <path d="M 95 78.5 C 89 72.5 81 68.5 77 72.5 C 73 74.5 69 80.5 69 89.5 L 69 910.5 C 69 919.5 73 925.5 77 927.5 C 81 931.5 89 927.5 95 921.5 L 491 525.5 C 495 521.5 497 519.5 499 513.5 L 499 910.5 C 499 919.5 501 925.5 505 927.5 C 511 931.5 516 927.5 524 921.5 L 919 525.5 C 927 517.5 931 509.5 931 500.5 C 931 490.5 927 482.5 919 474.5 L 524 78.5 C 516 72.5 511 68.5 505 72.5 C 501 74.5 499 80.5 499 89.5 L 499 486.5 C 497 482.5 495 478.5 491 474.5 Z" horiz-adv-x="1000"/>
</svg>