<?xml version="1.0" encoding="utf-8"?>
<svg version="1.1" id="home-2" x="0px" y="0px" viewBox="0 0 1000 1000" style="enable-background:new 0 0 1000 1000;" xmlns="http://www.w3.org/2000/svg">
  <path d="M 967 438.363 C 988 456.363 1000 479.363 1000 508.363 C 1000 532.363 992 553.363 975 571.363 C 957 588.363 934 598.363 908 598.363 L 863 598.363 L 863 870.363 C 863 897.363 856 919.363 836 936.363 C 818 954.363 797 963.363 772 961.363 L 227 961.363 C 203 961.363 182 954.363 164 936.363 C 145 919.363 137 897.363 137 870.363 L 137 598.363 L 90 598.363 C 65 598.363 43 588.363 25 571.363 C 8 553.363 0 532.363 0 508.363 C 0 481.363 10 457.363 31 438.363 C 78 401.363 137 350.363 209 288.363 C 281 223.363 344 170.363 393 129.363 C 443 86.363 469 65.363 471 63.363 L 500 38.363 L 531 63.363 C 531 63.363 557 86.363 606 129.363 C 654 172.363 717 225.363 789 288.363 C 863 348.363 922 399.363 967 438.363 Z M 592 870.363 L 592 643.363 L 410 643.363 L 410 870.363 Z M 772 508.363 L 908 508.363 C 773 395.363 639 278.363 500 159.363 C 361 278.363 225 395.363 90 508.363 L 227 508.363 L 227 870.363 L 363 870.363 L 363 598.363 L 637 598.363 L 637 870.363 L 772 870.363 Z" horiz-adv-x="1000"/>
</svg>