<?xml version="1.0" encoding="utf-8"?>
<svg version="1.1" id="learning-2" x="0px" y="0px" viewBox="0 0 1000 1000" style="enable-background:new 0 0 1000 1000;" xmlns="http://www.w3.org/2000/svg">
  <path d="M 901.713 657.583 L 901.713 462.582 L 504.909 509.979 L 107.963 462.552 L 107.963 652.404 C 80.863 664.473 61.882 691.137 61.882 722.283 C 61.882 753.46 80.863 780.124 107.963 792.166 L 107.963 948.042 L 504.909 995.417 L 901.713 948.042 L 901.713 787.073 C 923.604 773.422 938.117 749.586 938.117 722.283 C 938.117 695.039 923.604 671.231 901.713 657.583 Z M 486.854 966.016 L 143.961 925.065 L 143.961 798.81 C 185.315 796.766 218.285 763.513 218.285 722.313 C 218.285 681.197 185.315 647.891 143.961 645.867 L 143.961 494.199 L 486.854 535.151 L 486.854 966.016 Z M 865.711 548.547 L 865.711 646.063 C 863.717 645.951 861.871 645.481 859.953 645.481 C 816.753 645.481 781.751 679.922 781.751 722.283 C 781.751 764.701 816.753 799.086 859.953 799.086 C 861.946 799.086 863.793 798.646 865.711 798.507 L 865.711 924.951 L 522.818 965.903 L 522.818 535.094 L 865.711 494.116 L 865.711 548.547 Z"/>
  <path d="M 213.265 312.358 C 209.609 323.625 205.878 335.099 203.739 347.07 C 201.226 362.015 199.824 377.348 199.824 392.985 C 199.824 407.757 201.373 422.18 203.663 436.313 L 504.909 481.743 L 782.455 439.848 C 785.185 424.59 786.919 408.983 786.919 392.985 C 786.919 362.188 780.424 333.181 770.747 305.494 L 830.416 227.518 L 723.527 191.926 L 744.35 88.403 L 613.979 123.785 L 553.905 4.583 L 442.548 114.759 L 356.261 19.919 L 315.573 145.101 L 177.116 102.089 L 229.289 212.686 L 128.564 239.594 L 213.265 312.358 Z"/>
</svg>