<?xml version="1.0" encoding="utf-8"?>
<svg version="1.1" id="lightbulb-3" x="0px" y="0px" viewBox="0 0 1000 1000" style="enable-background:new 0 0 1000 1000;" xmlns="http://www.w3.org/2000/svg">
  <path d="M 631.971 401.383 C 631.971 406.591 629.948 410.825 625.904 414.078 C 621.861 417.337 617.815 418.963 613.771 418.963 C 609.728 418.963 605.346 417.337 600.628 414.078 C 595.91 410.825 594.225 406.591 595.572 401.383 C 595.572 385.105 585.463 372.407 565.242 363.292 C 545.019 354.177 525.136 349.618 505.59 349.618 C 500.87 349.618 496.489 347.99 492.446 344.735 C 488.401 341.479 486.716 337.246 487.39 332.038 C 488.065 326.828 489.748 322.596 492.446 319.34 C 495.141 316.085 499.523 314.456 505.59 314.456 C 524.463 314.456 542.999 317.387 561.198 323.248 C 579.396 329.107 595.91 338.874 610.738 352.549 C 625.568 366.221 632.644 382.501 631.971 401.383 Z M 721.954 401.383 C 721.954 375.336 715.551 351.246 702.745 329.107 C 689.939 306.968 673.088 288.412 652.192 273.436 C 631.296 258.459 608.042 247.065 582.428 239.252 C 556.816 231.439 531.202 227.532 505.59 227.532 C 479.975 227.532 454.362 231.439 428.748 239.252 C 403.136 247.065 379.881 258.459 358.985 273.436 C 338.091 288.412 321.241 306.968 308.434 329.107 C 295.625 351.246 288.886 375.336 288.211 401.383 C 288.211 438.497 301.019 471.379 326.632 500.028 C 330.677 503.935 336.406 509.796 343.82 517.609 C 351.234 525.423 356.963 531.609 361.007 536.167 C 409.402 591.359 436.014 645.253 440.84 697.855 L 368.154 697.855 C 365.723 682.014 359.633 665.232 349.885 647.51 C 338.428 626.673 327.306 609.092 316.522 594.767 C 305.736 580.443 291.919 564.816 275.067 547.886 C 235.973 506.865 216.427 458.031 216.427 401.383 C 216.427 365.571 224.852 332.038 241.703 300.784 C 258.554 269.528 280.461 243.811 307.422 223.623 C 334.385 203.439 365.389 187.487 400.439 175.766 C 435.488 164.046 470.538 157.861 505.59 157.209 C 540.639 156.558 575.688 162.745 610.738 175.766 C 645.788 188.788 676.457 204.742 702.745 223.623 C 729.032 242.507 751.276 268.228 769.474 300.784 C 787.674 333.339 795.762 366.874 793.74 401.383 C 793.74 458.031 774.53 506.865 736.109 547.886 C 719.258 565.467 705.103 581.095 693.646 594.767 C 682.188 608.443 671.066 626.022 660.28 647.51 C 651.154 665.69 645.167 682.471 642.315 697.855 L 569.33 697.855 C 574.825 645.253 601.436 591.359 649.158 536.167 C 653.203 532.259 658.933 526.074 666.346 517.609 C 673.761 509.144 679.49 503.284 683.535 500.028 C 709.147 471.379 721.954 438.497 721.954 401.383 Z M 667.358 751.038 C 667.358 760.354 665.116 768.836 660.633 776.485 L 350.051 776.485 C 345.224 768.836 342.809 760.354 342.809 751.038 C 342.809 736.053 347.638 723.94 357.297 714.697 L 652.869 714.697 C 662.528 723.94 667.358 736.053 667.358 751.038 Z M 667.358 820.385 C 667.358 833.85 663.073 845.165 654.501 854.327 L 355.666 854.327 C 347.094 845.165 342.809 833.85 342.809 820.385 C 342.809 810.304 345.374 801.285 350.502 793.327 L 660.214 793.327 C 664.977 801.285 667.358 810.304 667.358 820.385 Z M 650.17 889.729 C 650.17 906.658 644.103 919.681 631.971 928.796 C 619.838 937.912 605.346 942.471 588.495 942.471 C 588.389 942.704 588.282 942.937 588.174 943.169 L 422.969 943.169 C 422.872 942.937 422.776 942.704 422.682 942.471 C 405.158 942.471 390.329 937.912 378.196 928.796 C 366.064 919.681 360.334 906.658 361.007 889.729 C 361.007 883.543 362.268 877.356 364.789 871.169 L 645.848 871.169 C 648.729 877.356 650.17 883.543 650.17 889.729 Z M 554.12 980.562 C 538.616 989.677 522.441 994.561 505.59 995.211 C 488.738 995.864 472.224 990.981 456.047 980.562 C 446.614 974.486 438.899 967.636 432.904 960.011 L 577.874 960.011 C 571.445 968.18 563.527 975.03 554.12 980.562 Z" horiz-adv-x="571.4"/>
  <path d="M 27.431 484.316 C 26.003 476.695 28.5 469.709 34.924 463.358 C 41.346 457.007 49.196 453.515 58.474 452.879 L 154.815 437.637 C 164.805 436.367 174.083 437.954 182.647 442.4 C 191.21 446.846 195.849 453.196 196.562 461.453 C 197.276 469.709 194.777 477.012 189.069 483.363 C 183.36 489.715 174.797 493.842 163.379 495.748 L 69.178 508.132 C 59.188 509.402 50.266 507.815 42.416 503.369 C 34.568 498.923 29.572 492.573 27.431 484.316 Z"/>
  <path d="M 807.827 283.311 C 804.973 275.69 805.329 268.386 808.898 261.4 C 812.466 254.415 818.888 248.699 828.166 244.253 L 918.085 210.911 C 926.647 205.83 935.211 204.56 943.775 207.1 C 952.339 209.641 959.117 214.721 964.113 222.342 C 969.11 229.963 969.11 237.585 964.113 245.206 C 959.117 252.827 951.983 258.225 942.704 261.4 L 854.928 298.553 C 845.65 301.094 836.374 301.094 827.095 298.553 C 817.818 296.012 811.396 290.932 807.827 283.311 Z"/>
  <path d="M 805.58 470.927 C 807.006 462.67 811.289 456.32 818.426 451.874 C 825.562 447.428 834.482 445.841 845.187 447.111 L 941.527 462.353 C 950.805 463.623 958.655 467.116 965.077 472.832 C 971.501 478.548 973.997 485.534 972.57 493.79 C 971.144 502.681 966.505 509.032 958.655 512.843 C 950.805 516.653 941.527 518.241 930.823 517.606 L 834.482 505.222 C 824.491 503.952 816.641 499.823 810.932 492.837 C 805.224 485.852 803.44 478.548 805.58 470.927 Z"/>
  <path d="M 678.214 144.827 C 677.5 135.936 679.64 127.679 684.635 120.058 L 737.087 47.658 C 744.225 40.037 752.075 34.957 760.638 32.416 C 769.201 29.876 777.409 30.511 785.259 34.322 C 792.395 39.402 796.677 46.07 798.104 54.327 C 799.531 62.583 797.389 70.839 791.681 79.095 L 739.23 151.495 C 732.092 159.116 724.599 163.879 716.749 165.785 C 708.899 167.69 700.693 166.737 692.129 162.927 C 683.566 159.116 678.927 153.083 678.214 144.827 Z"/>
  <path d="M 467.405 102.992 L 467.405 32.245 C 467.405 23.86 470.261 17.31 475.969 12.593 C 481.678 7.877 489.171 5.257 498.448 4.732 C 507.012 4.732 514.505 7.353 520.929 12.593 C 527.35 17.834 530.562 24.384 530.562 32.245 L 530.562 102.992 C 530.562 110.328 527.35 116.355 520.929 121.072 C 514.505 125.788 507.012 128.408 498.448 128.932 C 489.171 128.932 481.678 126.312 475.969 121.072 C 470.261 115.831 467.405 109.805 467.405 102.992 Z"/>
  <path d="M 206.108 57.485 C 207.534 49.228 212.529 42.56 221.094 37.48 C 228.229 34.304 236.079 33.669 244.643 35.574 C 253.207 37.48 260.7 42.56 267.124 50.816 L 319.575 123.216 C 324.571 130.837 326.354 139.094 324.928 147.985 C 323.5 156.876 319.575 162.91 313.153 166.085 C 306.73 169.26 298.523 170.213 288.531 168.943 C 278.541 167.673 271.405 162.91 267.124 154.653 L 212.529 82.253 C 206.821 73.997 204.679 65.741 206.108 57.485 Z"/>
  <path d="M 37.993 244.153 C 33.71 235.896 33.71 228.275 37.993 221.289 C 42.274 214.304 49.054 209.222 58.331 206.047 C 67.609 202.872 76.885 204.142 86.162 209.858 L 173.94 243.2 C 183.93 247.01 190.711 252.726 194.278 260.347 C 197.846 267.968 197.846 275.272 194.278 282.258 C 190.711 289.243 184.288 294.325 175.011 297.5 C 165.732 300.675 156.456 300.675 147.178 297.5 L 59.401 260.347 C 49.41 257.807 42.274 252.409 37.993 244.153 Z"/>
</svg>