<?xml version="1.0" encoding="utf-8"?>
<svg version="1.1" id="lightbulb-3" x="0px" y="0px" viewBox="0 0 1000 1000" style="enable-background:new 0 0 1000 1000;" xmlns="http://www.w3.org/2000/svg">
  <path d="M 603.807 323.347 C 585.608 317.486 567.072 314.555 548.199 314.555 C 542.132 314.555 537.75 316.184 535.055 319.439 C 532.357 322.695 530.674 326.927 529.999 332.137 C 529.325 337.345 531.01 341.578 535.055 344.834 C 539.098 348.089 543.479 349.717 548.199 349.717 C 567.745 349.717 587.628 354.276 607.851 363.391 C 628.072 372.506 638.181 385.204 638.181 401.482 C 636.834 406.69 638.519 410.924 643.237 414.177 C 647.955 417.436 652.337 419.062 656.38 419.062 C 660.424 419.062 664.47 417.436 668.513 414.177 C 672.557 410.924 674.58 406.69 674.58 401.482 C 675.253 382.6 668.177 366.32 653.347 352.648 C 638.519 338.973 622.005 329.206 603.807 323.347 Z M 708.955 517.708 C 701.542 526.173 695.812 532.358 691.767 536.266 C 643.911 591.613 617.285 645.654 611.893 698.396 L 483.489 698.396 C 478.772 645.654 452.147 591.613 403.616 536.266 C 399.572 531.708 393.843 525.522 386.429 517.708 C 379.015 509.895 373.286 504.034 369.241 500.127 C 343.628 471.478 330.82 438.596 330.82 401.482 C 331.495 375.435 338.234 351.345 351.043 329.206 C 363.85 307.067 380.7 288.511 401.594 273.535 C 422.49 258.558 445.745 247.164 471.357 239.351 C 496.971 231.538 522.584 227.631 548.199 227.631 C 573.811 227.631 599.425 231.538 625.037 239.351 C 650.651 247.164 673.905 258.558 694.801 273.535 C 715.697 288.511 732.548 307.067 745.354 329.206 C 758.16 351.345 764.563 375.435 764.563 401.482 C 764.563 438.596 751.756 471.478 726.144 500.127 C 722.099 503.383 716.37 509.243 708.955 517.708 Z" horiz-adv-x="571.4"/>
  <path d="M 631.735 401.167 C 631.735 406.375 629.712 410.609 625.668 413.862 C 621.626 417.121 617.579 418.747 613.535 418.747 C 609.492 418.747 605.11 417.121 600.393 413.862 C 595.675 410.609 593.99 406.375 595.336 401.167 C 595.336 384.889 585.228 372.191 565.006 363.076 C 544.783 353.961 524.901 349.402 505.355 349.402 C 500.635 349.402 496.253 347.774 492.21 344.519 C 488.166 341.263 486.48 337.03 487.155 331.822 C 487.829 326.612 489.512 322.38 492.21 319.124 C 494.906 315.869 499.287 314.24 505.355 314.24 C 524.228 314.24 542.763 317.171 560.962 323.032 C 579.16 328.891 595.675 338.658 610.502 352.333 C 625.333 366.005 632.408 382.285 631.735 401.167 Z M 721.719 401.167 C 721.719 375.12 715.315 351.03 702.51 328.891 C 689.704 306.752 672.853 288.196 651.957 273.22 C 631.061 258.243 607.807 246.849 582.193 239.036 C 556.581 231.223 530.967 227.316 505.355 227.316 C 479.74 227.316 454.126 231.223 428.512 239.036 C 402.901 246.849 379.646 258.243 358.75 273.22 C 337.855 288.196 321.006 306.752 308.199 328.891 C 295.39 351.03 288.651 375.12 287.975 401.167 C 287.975 438.281 300.783 471.163 326.397 499.812 C 330.442 503.719 336.171 509.58 343.584 517.393 C 350.998 525.207 356.727 531.393 360.772 535.951 C 409.167 591.143 435.779 645.037 440.605 697.639 L 367.918 697.639 C 365.488 681.798 359.397 665.016 349.649 647.294 C 338.193 626.457 327.071 608.876 316.287 594.551 C 305.501 580.227 291.683 564.6 274.832 547.67 C 235.738 506.649 216.191 457.815 216.191 401.167 C 216.191 365.355 224.616 331.822 241.467 300.568 C 258.319 269.312 280.225 243.595 307.187 223.407 C 334.149 203.223 365.154 187.271 400.204 175.55 C 435.252 163.83 470.303 157.645 505.355 156.993 C 540.404 156.342 575.453 162.529 610.502 175.55 C 645.553 188.572 676.221 204.526 702.51 223.407 C 728.797 242.291 751.041 268.012 769.239 300.568 C 787.438 333.123 795.527 366.658 793.505 401.167 C 793.505 457.815 774.294 506.649 735.874 547.67 C 719.022 565.251 704.867 580.879 693.41 594.551 C 681.953 608.227 670.831 625.806 660.044 647.294 C 650.918 665.474 644.932 682.255 642.079 697.639 L 569.095 697.639 C 574.589 645.037 601.2 591.143 648.923 535.951 C 652.968 532.043 658.698 525.858 666.11 517.393 C 673.526 508.928 679.255 503.068 683.3 499.812 C 708.912 471.163 721.719 438.281 721.719 401.167 Z M 667.123 750.822 C 667.123 760.138 664.881 768.62 660.397 776.269 L 349.816 776.269 C 344.989 768.62 342.574 760.138 342.574 750.822 C 342.574 735.837 347.402 723.724 357.062 714.481 L 652.634 714.481 C 662.293 723.724 667.123 735.837 667.123 750.822 Z M 667.123 820.169 C 667.123 833.634 662.837 844.949 654.266 854.111 L 355.431 854.111 C 346.859 844.949 342.574 833.634 342.574 820.169 C 342.574 810.088 345.139 801.069 350.266 793.111 L 659.979 793.111 C 664.741 801.069 667.123 810.088 667.123 820.169 Z M 649.935 889.513 C 649.935 906.442 643.867 919.465 631.735 928.58 C 619.603 937.696 605.11 942.255 588.26 942.255 C 588.154 942.488 588.047 942.721 587.938 942.953 L 422.734 942.953 C 422.636 942.721 422.541 942.488 422.447 942.255 C 404.923 942.255 390.094 937.696 377.96 928.58 C 365.829 919.465 360.099 906.442 360.772 889.513 C 360.772 883.327 362.032 877.14 364.553 870.953 L 645.613 870.953 C 648.493 877.14 649.935 883.327 649.935 889.513 Z M 553.885 980.346 C 538.381 989.461 522.206 994.345 505.355 994.995 C 488.502 995.648 471.989 990.765 455.812 980.346 C 446.378 974.27 438.663 967.42 432.668 959.795 L 577.638 959.795 C 571.209 967.964 563.292 974.814 553.885 980.346 Z" horiz-adv-x="571.4"/>
</svg>