<?xml version="1.0" encoding="utf-8"?>
<svg version="1.1" id="list-numbered" x="0px" y="0px" viewBox="0 0 1000 1000" style="enable-background:new 0 0 1000 1000;" xmlns="http://www.w3.org/2000/svg">
  <path d="M 222.516 889.607 C 222.516 918.718 212.665 941.36 192.963 957.533 C 173.261 973.707 149.428 982.116 121.464 982.763 C 83.332 982.763 52.826 970.796 29.946 946.859 L 59.499 899.311 C 77.294 915.484 96.361 923.57 116.698 923.57 C 126.867 923.57 135.764 920.982 143.391 915.807 C 151.017 910.632 154.831 902.869 154.831 892.518 C 154.831 869.876 136.082 859.848 98.585 862.436 L 85.238 832.355 C 87.781 828.473 93.501 820.71 102.398 809.066 C 111.295 797.421 118.922 787.394 125.278 778.984 C 131.633 770.574 137.988 763.781 144.344 758.606 L 144.344 757.636 C 138.624 757.636 130.044 757.959 118.604 758.606 C 107.165 759.253 98.585 759.253 92.865 758.606 L 92.865 787.717 L 36.619 787.717 L 36.619 705.235 L 213.936 705.235 L 213.936 752.784 L 163.41 815.858 C 181.206 819.74 195.506 828.473 206.31 842.058 C 217.114 855.644 222.516 871.493 222.516 889.607 Z M 223.469 549.975 L 223.469 636.338 L 30.899 636.338 C 28.357 623.4 27.086 613.696 27.086 607.227 C 27.086 588.467 31.535 571.646 40.432 556.767 C 49.33 541.888 59.181 529.597 69.985 519.893 C 80.789 510.189 92.547 501.456 105.258 493.693 C 117.969 485.93 127.82 478.167 134.811 470.404 C 141.802 462.641 146.251 454.554 148.157 446.144 C 148.157 437.088 145.297 429.971 139.577 424.796 C 133.858 419.621 126.867 417.356 118.604 418.003 C 102.716 418.003 88.416 428.354 75.705 449.055 L 30.899 417.033 C 39.162 398.919 51.872 384.687 69.032 374.336 C 86.192 363.985 104.941 358.81 125.278 358.81 C 150.7 358.81 172.308 366.25 190.103 381.129 C 207.899 396.008 216.796 416.386 216.796 442.263 C 216.796 460.377 210.759 476.873 198.683 491.752 C 186.607 506.631 173.261 518.275 158.644 526.686 C 144.027 535.096 130.68 544.152 118.604 553.856 C 106.529 563.56 100.174 573.264 99.538 582.967 L 167.224 582.967 L 167.224 549.975 L 223.469 549.975 Z M 972.777 722.702 L 972.777 826.532 C 972.777 831.061 971.188 835.266 968.01 839.147 C 964.833 843.029 960.701 844.646 955.617 843.999 L 309.268 843.999 C 304.184 843.999 300.052 842.382 296.875 839.147 C 293.697 835.913 292.108 831.707 292.108 826.532 L 292.108 722.702 C 292.108 717.527 293.697 713.321 296.875 710.087 C 300.052 706.853 304.184 705.235 309.268 705.235 L 955.617 705.235 C 960.066 705.235 964.197 707.176 968.01 711.057 C 971.824 714.939 973.413 718.82 972.777 722.702 Z M 223.469 235.572 L 223.469 289.913 L 45.199 289.913 L 45.199 235.572 L 102.398 235.572 C 102.398 221.34 102.398 199.668 102.398 170.557 C 102.398 141.445 102.716 119.45 103.351 104.571 L 103.351 97.778 L 102.398 97.778 C 99.221 104.248 90.322 113.952 75.705 126.89 L 37.572 86.134 L 110.025 17.237 L 166.27 17.237 L 166.27 235.572 L 223.469 235.572 Z M 972.777 445.174 L 972.777 549.975 C 972.777 554.503 971.188 558.385 968.01 561.619 C 964.833 564.853 960.701 566.471 955.617 566.471 L 309.268 566.471 C 304.184 566.471 300.052 564.853 296.875 561.619 C 293.697 558.385 292.108 554.503 292.108 549.975 L 292.108 445.174 C 292.108 440.645 293.697 436.764 296.875 433.529 C 300.052 430.295 304.184 428.677 309.268 428.677 L 955.617 428.677 C 960.066 428.677 964.197 430.295 968.01 433.529 C 971.824 436.764 973.413 440.645 972.777 445.174 Z M 972.777 168.616 L 972.777 272.446 C 972.777 276.975 971.188 280.857 968.01 284.091 C 964.833 287.325 960.701 289.266 955.617 289.913 L 309.268 289.913 C 304.184 289.913 300.052 287.973 296.875 284.091 C 293.697 280.209 292.108 276.328 292.108 272.446 L 292.108 168.616 C 292.108 163.441 293.697 159.235 296.875 156.001 C 300.052 152.767 304.184 151.149 309.268 151.149 L 955.617 151.149 C 960.066 151.149 964.197 152.767 968.01 156.001 C 971.824 159.235 973.413 163.441 972.777 168.616 Z" horiz-adv-x="1000"/>
</svg>