<?xml version="1.0" encoding="utf-8"?>
<svg version="1.1" id="long-arrow-up" x="0px" y="0px" viewBox="0 0 1000 1000" style="enable-background:new 0 0 1000 1000;" xmlns="http://www.w3.org/2000/svg">
  <path d="M 706 744 C 702 738 696 734 690 734 L 565 734 L 565 37 C 565 31 563 27 559 25 C 556 21 552 19 546 19 L 440 19 C 434 19 431 21 427 25 C 423 27 421 31 421 37 L 421 734 L 296 734 C 288 734 284 738 280 744 C 278 752 278 758 284 764 L 479 979 C 481 982 487 984 491 984 C 497 984 501 982 505 979 L 702 764 C 708 758 708 752 706 744 Z" horiz-adv-x="1000"/>
</svg>