<?xml version="1.0" encoding="utf-8"?>
<svg version="1.1" id="long-arrow-down" x="0px" y="0px" viewBox="0 0 1000 1000" style="enable-background:new 0 0 1000 1000;" xmlns="http://www.w3.org/2000/svg">
  <path d="M 713 256 C 715 248 715 242 709 236 L 514 21 C 512 18 506 16 502 16 C 496 16 492 18 488 21 L 291 236 C 285 242 285 248 287 256 C 291 262 297 266 303 266 L 428 266 L 428 963 C 428 969 430 973 434 975 C 438 979 441 981 447 981 L 553 981 C 559 981 563 979 566 975 C 570 973 572 969 572 963 L 572 266 L 697 266 C 705 266 709 262 713 256 Z" horiz-adv-x="1000"/>
</svg>