<?xml version="1.0" encoding="utf-8"?>
<svg version="1.1" id="move" x="0px" y="0px" viewBox="0 0 1000 1000" style="enable-background:new 0 0 1000 1000;" xmlns="http://www.w3.org/2000/svg">
  <path d="M 982.706 494.317 C 983.673 498.186 983.673 502.055 982.706 505.924 C 981.739 507.859 980.771 509.794 978.836 511.729 L 817.29 673.275 C 811.485 679.08 800.845 679.08 795.04 673.275 C 789.236 667.471 788.269 655.863 795.04 650.059 L 928.534 516.565 L 516.445 516.565 L 516.445 928.655 L 649.939 795.162 C 652.841 792.259 656.71 790.324 661.546 790.324 C 666.384 790.324 669.285 792.259 672.187 795.162 C 678.958 800.965 678.958 811.606 672.187 818.378 L 511.607 978.957 C 509.673 980.892 507.738 981.859 505.804 982.827 C 501.934 983.794 498.065 983.794 494.195 982.827 C 492.261 981.859 490.326 980.892 488.391 978.957 L 327.811 818.378 C 321.04 811.606 321.04 800.965 327.811 795.162 C 330.714 792.259 334.583 790.324 338.453 790.324 C 342.322 790.324 347.159 792.259 350.061 795.162 L 483.555 928.655 L 483.555 516.565 L 71.465 516.565 L 204.959 650.059 C 211.73 655.863 211.73 666.504 204.959 673.275 C 198.188 680.047 188.514 679.08 182.71 673.275 L 21.163 511.729 C 19.228 509.794 18.261 507.859 17.294 505.924 C 16.326 502.055 16.326 498.186 17.294 494.317 C 18.261 492.382 19.228 490.447 21.163 488.512 L 182.71 327.933 C 185.612 324.063 189.481 323.096 193.35 323.096 C 197.22 323.096 202.057 324.063 204.959 327.933 C 211.73 333.737 211.73 344.378 204.959 350.182 L 71.465 483.676 L 483.555 483.676 L 483.555 71.585 L 350.061 205.079 C 344.256 211.851 333.616 211.851 327.811 205.079 C 322.008 198.308 321.04 188.634 327.811 182.831 L 488.391 21.283 C 490.326 19.349 492.261 18.382 494.195 17.414 C 496.13 16.447 498.065 16.447 500 16.447 C 501.934 16.447 503.869 16.447 505.804 17.414 C 507.738 18.382 509.673 19.349 511.607 21.283 L 672.187 182.831 C 678.958 188.634 678.958 199.276 672.187 205.079 C 665.416 210.884 655.742 211.851 649.939 205.079 L 516.445 71.585 L 516.445 483.676 L 928.534 483.676 L 795.04 350.182 C 788.269 344.378 788.269 333.737 795.04 327.933 C 797.943 324.063 801.812 323.096 806.648 323.096 C 811.485 323.096 814.388 324.063 817.29 327.933 L 978.836 488.512 C 980.771 490.447 981.739 492.382 982.706 494.317 Z" horiz-adv-x="1000"/>
</svg>