<?xml version="1.0" encoding="utf-8"?>
<svg version="1.1" id="music" x="0px" y="0px" viewBox="0 0 1000 1000" style="enable-background:new 0 0 1000 1000;" xmlns="http://www.w3.org/2000/svg">
  <path d="M 931.117 79.695 L 931.117 718.844 C 931.117 739.297 925.073 755.659 912.984 770.999 C 899.888 785.315 883.77 797.588 863.623 802.701 C 844.483 810.882 824.336 817.018 805.195 823.154 C 785.048 827.244 767.923 829.289 751.805 829.289 C 735.687 827.244 718.561 825.198 698.414 823.154 C 677.259 819.063 657.112 812.927 639.986 802.701 C 619.839 795.542 604.728 783.271 590.625 770.999 C 576.522 757.705 570.478 739.297 572.492 718.844 C 572.492 699.414 578.537 681.007 590.625 667.713 C 602.714 655.44 619.839 643.169 639.986 632.943 C 659.126 625.784 679.274 619.648 698.414 615.557 C 716.547 613.513 733.672 611.467 751.805 609.422 C 791.092 609.422 826.35 617.604 859.594 631.92 L 859.594 326.151 L 427.431 460.117 L 427.431 865.081 C 427.431 885.534 421.387 900.874 409.298 917.236 C 396.202 931.552 380.084 942.802 359.937 950.982 C 340.797 957.119 320.649 965.299 301.509 969.391 C 281.362 973.481 264.236 975.526 248.119 975.526 C 232.001 975.526 214.875 973.481 194.728 969.391 C 173.573 965.299 153.426 959.164 136.3 950.982 C 116.153 940.757 101.042 931.552 86.939 917.236 C 74.85 902.919 66.792 885.534 68.806 865.081 C 68.806 844.629 74.85 827.244 86.939 814.973 C 99.027 801.677 116.153 789.406 136.3 779.18 C 155.44 768.953 175.588 764.862 194.728 760.773 C 212.861 759.75 229.986 757.705 248.119 755.659 C 287.406 755.659 322.664 762.818 355.907 777.135 L 355.907 225.934 C 355.907 213.661 359.937 204.457 365.981 194.231 C 374.04 184.004 382.099 175.824 394.188 173.779 L 861.608 28.564 C 865.638 26.518 871.682 24.473 877.726 24.473 C 893.844 24.473 904.925 30.609 917.014 41.858 C 927.088 52.084 933.132 66.401 931.117 79.695 Z" horiz-adv-x="1000"/>
</svg>