<?xml version="1.0" encoding="utf-8"?>
<svg version="1.1" id="popin" x="0px" y="0px" viewBox="0 0 1000 1000" style="enable-background:new 0 0 1000 1000;" xmlns="http://www.w3.org/2000/svg">
  <g>
    <path d="M 920.159 850.163 C 920.159 888.224 888.154 920.193 850.128 920.193 L 147.527 921.348 C 109.465 921.348 78.653 890.5 78.653 852.474 L 79.808 149.873 C 79.808 111.811 111.812 79.844 149.837 79.844 L 534.998 79.844 L 534.998 9.814 L 149.838 9.814 C 73.751 9.814 9.779 87.581 9.779 163.633 L 9.779 852.441 C 9.779 928.562 71.439 990.222 147.527 990.222 L 836.334 990.222 C 912.419 990.222 990.187 926.25 990.187 850.163 L 990.187 465.003 L 920.159 465.003 L 920.159 850.163 Z"/>
    <path d="M 954.402 9.814 L 710.069 9.814 C 690.216 9.849 675.09 25.885 675.057 44.828 C 675.021 63.771 690.218 79.877 710.069 79.842 L 863.924 78.721 L 335.659 582.582 C 321.688 595.923 321.688 617.526 335.659 630.832 C 349.63 644.173 372.285 644.173 386.254 630.832 L 919.108 122.631 L 920.159 289.931 C 920.123 308.873 935.32 324.981 955.171 324.946 C 975.026 324.911 990.152 308.873 990.186 289.931 L 990.186 43.953 C 990.221 25.01 974.256 9.778 954.402 9.814 Z" transform="matrix(-1, 0, 0, -1, 1315.366659, 650.651694)"/>
  </g>
</svg>