<?xml version="1.0" encoding="utf-8"?>
<svg version="1.1" id="printer" x="0px" y="0px" viewBox="0 0 1000 1000" style="enable-background:new 0 0 1000 1000;" xmlns="http://www.w3.org/2000/svg">
  <path d="M 895 285.5 C 936 285.5 971 320.5 971 363.5 L 971 730.5 C 971 771.5 936 806.5 895 806.5 L 820 806.5 L 854 960.5 L 162 960.5 L 190 806.5 L 107 806.5 C 63 806.5 29 771.5 29 730.5 L 29 363.5 C 29 320.5 63 285.5 107 285.5 L 203 285.5 L 203 169.5 L 238 169.5 L 238 39.5 L 764 39.5 L 764 169.5 L 799 169.5 L 799 285.5 Z M 273 87.5 L 273 378.5 L 731 378.5 L 731 87.5 Z M 160 476.5 C 190 476.5 215 451.5 215 421.5 C 215 394.5 190 369.5 160 369.5 C 131 369.5 106 394.5 106 421.5 C 106 451.5 131 476.5 160 476.5 Z M 223 914.5 L 789 914.5 L 742 671.5 L 258 671.5 Z M 475 800.5 L 336 800.5 L 336 765.5 L 475 765.5 Z M 672 800.5 L 533 800.5 L 533 765.5 L 672 765.5 Z" horiz-adv-x="1000"/>
</svg>