<?xml version="1.0" encoding="utf-8"?>
<svg version="1.1" id="redo-all" x="0px" y="0px" viewBox="0 0 1000 1000" style="enable-background:new 0 0 1000 1000;" xmlns="http://www.w3.org/2000/svg">
  <path d="M 361.064 377.896 L 361.064 338.896 C 361.064 322.896 354.263 311.896 340.66 305.896 C 334.831 303.896 330.945 303.896 327.059 303.896 C 316.371 303.896 308.599 305.896 302.769 313.896 L 23.925 598.896 C 18.096 606.896 14.21 613.896 14.21 623.896 C 14.21 633.896 18.096 641.896 23.925 649.896 L 302.769 934.896 C 312.485 945.896 325.115 949.896 340.66 941.896 C 354.263 936.896 361.064 924.896 361.064 908.896 L 361.064 871.896 L 145.373 649.896 C 139.544 641.896 135.657 633.896 135.657 623.896 C 135.657 613.896 139.544 606.896 145.373 598.896 Z M 985.789 356.896 C 985.789 334.896 981.903 309.896 976.073 281.896 C 970.244 252.896 963.443 227.896 955.67 203.896 C 947.898 182.896 938.181 158.896 928.465 135.896 C 919.721 111.896 913.892 94.896 908.063 84.896 L 896.404 61.896 C 894.46 55.896 888.631 53.896 881.83 53.896 C 879.886 53.896 877.944 53.896 877.944 53.896 C 868.228 55.896 864.341 62.896 864.341 72.896 C 879.886 221.896 860.455 326.896 807.019 387.896 C 784.672 414.896 752.61 434.896 714.719 449.896 C 676.826 463.896 627.276 473.896 569.953 479.896 L 569.953 338.896 C 569.953 322.896 563.152 311.896 547.606 305.896 C 543.72 303.896 539.834 303.896 534.005 303.896 C 524.289 303.896 517.488 305.896 509.715 313.896 L 232.815 598.896 C 226.985 606.896 223.099 613.896 223.099 623.896 C 223.099 633.896 226.985 641.896 232.815 649.896 L 509.715 934.896 C 521.374 945.896 534.005 949.896 547.606 941.896 C 563.152 936.896 569.953 924.896 569.953 908.896 L 569.953 764.896 C 718.605 752.896 826.45 711.896 894.46 639.896 C 955.67 574.896 985.789 481.896 985.789 356.896 Z" horiz-adv-x="1000" transform="matrix(-1, 0, 0, -1, 999.998922, 999.999693)"/>
</svg>