<?xml version="1.0" encoding="utf-8"?>
<svg version="1.1" id="repeat-ccw" x="0px" y="0px" viewBox="0 0 1000 1000" style="enable-background:new 0 0 1000 1000;" xmlns="http://www.w3.org/2000/svg">
  <path d="M 918.107 124.622 L 918.107 387.124 C 918.107 397.624 916.154 406.023 908.341 413.375 C 902.481 421.775 892.715 425.974 883.925 425.974 L 639.764 425.974 C 624.139 425.974 614.372 417.575 608.512 401.824 C 601.676 385.023 603.629 372.424 614.372 360.874 L 690.55 280.023 C 637.812 227.523 572.376 200.221 500.104 200.221 C 462.016 200.221 425.88 208.622 391.698 223.323 C 357.515 239.073 328.216 262.172 303.8 288.422 C 278.407 315.724 257.897 346.174 244.225 382.924 C 229.575 419.674 221.762 458.525 221.762 499.475 C 221.762 541.476 229.575 580.326 244.225 617.076 C 257.897 653.827 278.407 684.277 303.8 711.578 C 328.216 737.828 357.515 759.878 391.698 776.678 C 425.88 791.378 462.016 799.778 500.104 799.778 C 544.054 799.778 584.096 789.278 622.185 770.378 C 660.274 750.428 692.503 721.028 719.849 684.277 C 723.755 680.077 726.686 675.877 732.545 675.877 C 738.405 675.877 742.312 677.977 746.218 682.177 L 820.443 761.978 C 824.35 764.078 826.303 768.278 826.303 774.578 C 828.256 778.778 826.303 782.978 822.396 787.178 C 782.354 840.729 734.499 879.579 677.854 907.93 C 622.185 935.23 563.586 948.88 500.104 950.98 C 444.436 950.98 389.744 939.43 337.983 914.229 C 284.267 891.129 240.318 858.579 204.182 817.628 C 168.047 776.678 137.771 729.428 115.308 673.777 C 91.869 619.177 80.149 561.426 82.103 499.475 C 82.103 438.574 93.822 380.824 115.308 325.174 C 135.818 270.573 166.093 223.323 204.182 182.372 C 244.225 141.422 288.174 107.822 337.983 85.771 C 387.791 60.57 441.506 49.021 500.104 49.021 C 553.82 49.021 604.605 60.57 654.414 81.57 C 704.223 103.62 748.172 135.12 788.214 173.971 L 858.532 98.372 C 870.252 85.771 883.925 83.671 896.621 89.971 C 912.247 96.271 918.107 107.822 918.107 124.622 Z" horiz-adv-x="1000" transform="matrix(-1, 0, 0, -1, 999.999821, 1000.000978)"/>
</svg>