<?xml version="1.0" encoding="utf-8"?>
<svg version="1.1" id="rotate" x="0px" y="0px" viewBox="0 0 1000 1000" style="enable-background:new 0 0 1000 1000;" xmlns="http://www.w3.org/2000/svg">
  <path d="M 108.465 232.823 L 174.531 165.787 L 44.343 165.787 L 44.343 135.669 L 211.449 135.669 L 226.994 151.213 L 226.994 318.32 L 196.876 318.32 L 196.876 187.161 L 131.783 252.254 C 1.595 426.162 20.054 672.935 173.559 826.44 C 257.112 909.993 366.898 955.656 484.456 955.656 L 484.456 985.774 C 359.126 985.774 240.596 937.196 152.186 847.814 C -12.978 683.622 -31.437 418.389 108.465 232.823 Z M 825.469 834.212 L 955.656 834.212 L 955.656 864.33 L 788.549 864.33 L 773.005 848.785 L 773.005 682.651 L 804.094 682.651 L 804.094 812.838 L 868.216 747.744 C 998.404 573.837 979.945 327.064 826.44 173.559 C 742.888 90.006 633.103 44.343 515.544 44.343 L 515.544 14.225 C 640.875 14.225 759.404 62.802 847.815 152.185 C 1012.978 317.348 1031.438 581.61 891.534 767.175 L 825.469 834.212 Z" horiz-adv-x="1000"/>
</svg>