<?xml version="1.0" encoding="utf-8"?>
<svg version="1.1" id="step-backward" x="0px" y="0px" viewBox="0 0 1000 1000" style="enable-background:new 0 0 1000 1000;" xmlns="http://www.w3.org/2000/svg">
  <path d="M 760 921.5 C 768 927.5 773 931.5 779 927.5 C 783 925.5 785 919.5 785 910.5 L 785 89.5 C 785 80.5 783 74.5 779 72.5 C 773 68.5 768 72.5 760 78.5 L 365 474.5 C 361 478.5 359 482.5 357 486.5 L 357 107.5 C 357 97.5 354 89.5 346 81.5 C 340 74.5 332 72.5 322 72.5 L 250 72.5 C 240 72.5 232 74.5 225 81.5 C 219 89.5 215 97.5 215 107.5 L 215 892.5 C 215 902.5 219 910.5 225 918.5 C 232 925.5 240 927.5 250 927.5 L 322 927.5 C 332 927.5 340 925.5 346 918.5 C 354 910.5 357 902.5 357 892.5 L 357 513.5 C 359 519.5 361 521.5 365 525.5 Z" horiz-adv-x="1000"/>
</svg>