<?xml version="1.0" encoding="utf-8"?>
<svg version="1.1" id="step-forward" x="0px" y="0px" viewBox="0 0 1000 1000" style="enable-background:new 0 0 1000 1000;" xmlns="http://www.w3.org/2000/svg">
  <path d="M 240 78.5 C 232 72.5 227 68.5 221 72.5 C 217 74.5 215 80.5 215 89.5 L 215 910.5 C 215 919.5 217 925.5 221 927.5 C 227 931.5 232 927.5 240 921.5 L 635 525.5 C 639 521.5 641 519.5 643 513.5 L 643 892.5 C 643 902.5 647 910.5 654 918.5 C 660 925.5 668 927.5 678 927.5 L 750 927.5 C 760 927.5 768 925.5 775 918.5 C 781 910.5 785 902.5 785 892.5 L 785 107.5 C 785 97.5 781 89.5 775 81.5 C 768 74.5 760 72.5 750 72.5 L 678 72.5 C 668 72.5 660 74.5 654 81.5 C 647 89.5 643 97.5 643 107.5 L 643 486.5 C 641 482.5 639 478.5 635 474.5 Z" horiz-adv-x="1000"/>
</svg>