<?xml version="1.0" encoding="utf-8"?>
<svg version="1.1" id="stop" x="0px" y="0px" viewBox="0 0 1000 1000" style="enable-background:new 0 0 1000 1000;" xmlns="http://www.w3.org/2000/svg">
  <path d="M 927.386 891.034 L 927.386 108.966 C 927.386 99.005 925.388 91.035 917.396 83.064 C 911.4 76.088 901.409 72.104 892.416 72.104 L 107.076 72.104 C 98.082 72.104 90.09 76.088 82.099 83.064 C 76.101 91.035 72.105 99.005 72.105 108.966 L 72.105 891.034 C 72.105 900.995 74.103 908.964 82.099 916.938 C 90.09 923.911 98.082 927.896 107.076 927.896 L 892.416 927.896 C 901.409 927.896 909.399 923.911 917.396 916.938 C 925.388 908.964 929.383 900.995 927.386 891.034 Z" horiz-adv-x="1000"/>
</svg>
