<?xml version="1.0" encoding="utf-8"?>
<svg version="1.1" id="undo" x="0px" y="0px" viewBox="0 0 1000 1000" style="enable-background:new 0 0 1000 1000;" xmlns="http://www.w3.org/2000/svg">
  <path d="M 992.106 643 C 992.106 706 969.469 790 923.211 895 C 921.243 897 919.274 901 917.306 909 C 913.369 915 911.401 921 909.432 925 C 907.464 931 903.527 935 901.559 938 C 897.622 944 891.717 946 886.796 946 C 880.89 946 876.953 944 873.017 942 C 871.048 938 869.08 933 869.08 927 C 869.08 925 869.08 919 871.048 913 C 871.048 907 871.048 901 871.048 899 C 873.017 874 874.985 850 874.985 831 C 874.985 794 871.048 761 865.143 729 C 859.238 700 850.38 675 838.569 653 C 826.759 632 811.011 612 794.28 597 C 776.564 581 757.864 567 736.211 558 C 715.543 548 691.922 540 663.38 534 C 634.838 528 607.28 524 578.738 522 C 550.195 520 519.685 518 482.284 518 L 359.259 518 L 359.259 661 C 359.259 671 356.306 679 348.431 686 C 342.526 694 334.652 696 324.81 696 C 315.952 696 306.111 694 300.206 686 L 17.738 401 C 11.832 393 7.895 386 7.895 376 C 7.895 366 11.832 358 17.738 350 L 300.206 65 C 306.111 58 315.952 54 324.81 54 C 334.652 54 342.526 58 348.431 65 C 356.306 71 359.259 81 359.259 91 L 359.259 233 L 482.284 233 C 744.085 233 903.527 308 963.564 458 C 982.264 507 992.106 569 992.106 643 Z" horiz-adv-x="1000"/>
</svg>