<?xml version="1.0" encoding="utf-8"?>
<svg version="1.1" id="upload" x="0px" y="0px" viewBox="0 0 1000 1000" style="enable-background:new 0 0 1000 1000;" xmlns="http://www.w3.org/2000/svg">
  <path d="M 499.53 75.5 L 757.615 319.5 L 594.823 319.5 L 594.823 575.5 L 406.222 575.5 L 406.222 319.5 L 241.446 319.5 Z M 965.076 653.5 C 976.987 659.5 983.936 670.5 989.891 684.5 C 997.832 700.5 997.832 713.5 993.862 725.5 L 967.061 879.5 C 963.091 891.5 957.134 903.5 943.238 911.5 C 932.319 920.5 918.421 924.5 904.524 924.5 L 94.536 924.5 C 80.639 924.5 67.734 920.5 55.823 911.5 C 41.926 903.5 35.97 891.5 32 879.5 L 5.198 725.5 C -0.757 692.5 9.169 668.5 35.97 653.5 L 192.806 545.5 L 290.084 545.5 L 121.336 674.5 L 300.011 674.5 C 303.981 674.5 307.952 676.5 311.922 682.5 L 350.635 793.5 L 648.425 793.5 L 688.13 682.5 C 693.093 676.5 697.065 674.5 699.05 674.5 L 877.724 674.5 L 708.976 545.5 L 806.254 545.5 Z" horiz-adv-x="1000"/>
</svg>