<?xml version="1.0" encoding="utf-8"?>
<svg version="1.1" id="world" x="0px" y="0px" viewBox="0 0 1000 1000" style="enable-background:new 0 0 1000 1000;" xmlns="http://www.w3.org/2000/svg">
  <path d="M 500 13.294 C 227.542 13.294 5.878 231.632 5.878 499.999 C 5.878 768.369 227.542 986.705 500 986.705 C 772.458 986.705 994.122 768.369 994.122 499.999 C 994.122 231.632 772.458 13.294 500 13.294 Z M 932.327 358.945 L 901.946 358.945 C 892.581 358.945 883.203 361.127 874.83 365.25 L 863.69 370.737 C 856.665 374.195 848.249 373.677 841.713 369.39 L 799.722 341.815 C 796.543 339.729 792.805 338.613 788.987 338.613 L 783.862 338.613 L 798.194 317.434 C 798.914 316.371 800.115 315.739 801.414 315.739 L 831.557 315.739 L 831.557 324.025 C 831.557 334.552 840.22 343.086 850.91 343.086 C 860.439 343.086 868.342 336.296 869.948 327.364 L 877.006 330.842 C 883.957 334.266 891.737 336.074 899.507 336.074 L 923.925 336.074 C 926.936 343.596 929.726 351.23 932.327 358.945 Z M 787.698 183.104 C 787.698 182.772 787.836 182.442 788.074 182.206 L 802.67 167.829 C 803.157 167.35 803.612 166.847 804.037 166.328 C 812.569 173.88 820.817 181.733 828.748 189.888 L 816.585 201.868 C 809.027 209.313 809.027 221.381 816.585 228.823 C 820.363 232.546 825.317 234.408 830.269 234.408 C 835.221 234.408 840.175 232.548 843.953 228.823 L 854.356 218.577 C 874.432 243.054 891.957 269.637 906.52 297.948 L 899.504 297.948 C 897.711 297.948 895.915 297.528 894.309 296.741 L 864.465 282.04 C 858.584 279.144 852.002 277.615 845.426 277.615 L 801.409 277.615 C 787.141 277.615 773.897 284.596 765.983 296.287 L 737.346 338.613 L 719.318 338.613 C 711.492 338.613 705.128 332.342 705.128 324.635 L 705.128 291 C 705.128 290.454 705.482 289.968 706.012 289.795 L 743.771 277.398 C 753.183 274.307 761.865 269.021 768.883 262.11 C 781.018 250.157 787.698 234.27 787.698 217.367 L 787.698 183.104 Z M 195.958 166.328 C 196.383 166.845 196.834 167.345 197.325 167.827 L 217.967 188.16 C 221.595 191.736 226.519 193.742 231.651 193.742 C 236.783 193.742 241.707 191.734 245.335 188.16 L 274.524 159.403 C 278.665 155.325 284.175 153.077 290.035 153.077 L 315.509 153.077 L 315.509 154.348 C 315.509 160.954 318.984 167.09 324.687 170.561 C 330.392 174.038 337.517 174.352 343.516 171.397 L 377.293 154.759 C 379.529 153.658 382.033 153.077 384.535 153.077 L 453.572 153.077 C 446.023 157.925 440.776 165.658 439.156 174.865 C 436.879 187.823 442.364 200.407 453.475 207.704 L 480.072 225.17 C 480.43 225.407 480.644 225.8 480.644 226.226 L 480.644 235.678 C 480.644 236.379 480.066 236.95 479.353 236.95 L 470.465 236.95 C 457.715 236.95 445.728 241.841 436.71 250.72 L 306.575 378.903 C 306.334 379.14 306.002 379.273 305.663 379.273 L 272.934 379.273 C 239.498 379.273 212.297 406.065 212.297 438.999 L 212.297 448.281 L 190.844 444.055 C 185.73 443.046 181.464 439.835 179.129 435.243 L 166.387 410.146 C 163.11 403.686 156.41 399.605 149.079 399.605 L 137.551 399.605 C 128.097 399.605 119.735 393.668 116.747 384.834 L 89.802 305.211 C 115.794 252.321 152.039 205.199 195.958 166.328 Z M 500 948.58 C 248.884 948.58 44.581 747.345 44.581 499.999 C 44.581 451.006 52.624 403.835 67.429 359.666 L 80.027 396.892 C 88.246 421.189 111.156 437.553 137.118 437.731 L 144.508 452.293 C 152.217 467.485 166.338 478.104 183.247 481.44 L 257.047 495.977 C 261.197 496.793 264.97 498.784 267.961 501.73 C 273.965 507.645 281.021 512.155 288.709 515.088 L 275.217 554.968 C 274.558 556.912 274.222 558.945 274.222 560.998 L 274.222 601.662 C 274.222 620.359 283.29 638.224 298.476 649.444 L 348.017 686.041 C 353.51 690.098 356.79 696.559 356.79 703.32 L 356.79 813.002 C 356.79 824.837 360.311 836.293 366.974 846.134 L 396.73 890.099 C 403.207 899.665 414.038 905.377 425.712 905.377 L 432.908 905.377 C 446.421 905.377 457.42 894.544 457.42 881.232 L 457.42 846.375 C 457.42 837.888 460.773 829.908 466.865 823.908 L 505.064 786.283 C 512.813 778.65 518.739 769.205 522.207 758.961 L 534.295 723.249 C 534.471 722.727 534.964 722.379 535.517 722.379 L 545.808 722.379 C 564.197 722.379 580.152 710.109 584.608 692.539 L 598.508 637.776 C 601.894 624.431 597.864 610.097 587.986 600.371 L 561.01 573.801 C 553.459 566.362 543.414 562.261 532.731 562.261 L 508.011 562.261 L 437.156 492.47 C 429.604 485.033 419.559 480.932 408.876 480.932 L 314.664 480.932 C 314.363 480.925 314.064 480.925 313.762 480.932 L 310.436 480.932 C 304.732 480.932 299.364 478.743 295.331 474.767 C 286.918 466.479 276.304 460.885 264.637 458.589 L 251 455.901 L 251 439.001 C 251 427.09 260.838 417.398 272.934 417.398 L 294.867 417.398 L 294.867 418.669 C 294.867 429.195 303.531 437.731 314.219 437.731 C 324.906 437.731 333.57 429.195 333.57 418.669 L 333.57 406.196 C 333.692 406.078 333.825 405.976 333.946 405.861 L 464.081 277.679 C 465.786 276 468.055 275.075 470.468 275.075 L 479.355 275.075 C 501.408 275.075 519.349 257.403 519.349 235.68 L 519.349 226.228 C 519.349 213.025 512.689 200.771 501.541 193.451 L 485.206 182.723 L 516.555 175 C 530.355 171.605 539.991 159.449 539.991 145.427 C 539.991 128.625 526.112 114.955 509.054 114.955 L 384.535 114.955 C 376.055 114.955 367.565 116.926 359.983 120.665 L 347.196 126.962 C 341.281 119.65 332.166 114.955 321.959 114.955 L 290.033 114.955 C 273.838 114.955 258.608 121.166 247.154 132.449 L 231.647 147.725 L 225.861 142.028 C 302.181 85.184 397.155 51.416 499.995 51.416 C 602.835 51.416 697.808 85.182 774.125 142.025 L 760.703 155.247 C 753.146 162.689 748.988 172.579 748.988 183.102 L 748.988 217.363 C 748.988 224.083 746.329 230.399 741.509 235.149 C 738.72 237.897 735.271 239.997 731.526 241.228 L 693.767 253.625 C 677.412 258.995 666.419 274.014 666.419 291 L 666.419 324.633 C 666.419 334.236 669.117 343.215 673.738 350.948 C 665.886 356.154 659.003 362.855 653.585 370.866 L 635.318 397.848 C 628.655 407.691 625.134 419.148 625.134 430.98 L 625.134 467.351 C 625.134 479.184 628.655 490.639 635.318 500.483 L 657.414 533.127 C 668.687 549.782 687.548 559.723 707.866 559.723 L 759.225 559.723 C 768.681 559.723 777.043 565.658 780.029 574.495 L 784.644 588.122 C 788.376 599.155 790.27 610.648 790.27 622.281 L 790.27 636.672 C 790.27 655.681 792.959 674.592 798.263 692.877 L 831.447 807.287 C 748.344 894.212 630.505 948.58 500 948.58 Z M 371.244 655.542 L 321.702 618.944 C 316.211 614.886 312.929 608.423 312.929 601.662 L 312.929 564.09 L 328.17 519.063 L 408.881 519.063 C 409.221 519.063 409.555 519.197 409.794 519.433 L 486.317 594.808 C 489.944 598.385 494.868 600.391 500 600.391 L 532.733 600.391 C 533.073 600.391 533.407 600.526 533.645 600.762 L 560.621 627.331 C 560.94 627.646 561.069 628.11 560.961 628.538 L 547.06 683.299 C 546.916 683.865 546.402 684.259 545.81 684.259 L 535.519 684.259 C 518.279 684.259 503.032 695.084 497.575 711.198 L 485.49 746.91 C 483.915 751.565 481.218 755.859 477.697 759.327 L 439.498 796.953 C 426.097 810.153 418.717 827.707 418.717 846.375 L 418.717 853.859 L 399.176 824.989 C 396.765 821.43 395.495 817.285 395.495 813.008 L 395.495 703.327 C 395.497 684.622 386.431 666.756 371.244 655.542 Z M 835.487 682.406 C 831.172 667.528 828.983 652.141 828.983 636.672 L 828.983 622.281 C 828.983 606.544 826.421 590.995 821.37 576.066 L 816.757 562.439 C 808.492 538.016 785.376 521.601 759.234 521.601 L 707.874 521.601 C 700.526 521.601 693.704 518.004 689.626 511.982 L 667.531 479.337 C 665.121 475.775 663.846 471.632 663.846 467.353 L 663.846 430.982 C 663.846 426.701 665.121 422.559 667.531 418.999 L 685.797 392.015 C 692.271 382.448 703.106 376.737 714.78 376.737 L 783.132 376.737 L 820.247 401.108 C 838.305 412.966 861.588 414.395 881 404.834 L 892.14 399.346 C 895.17 397.855 898.561 397.067 901.948 397.067 L 943.302 397.067 C 951.215 430.133 955.421 464.591 955.421 499.999 C 955.424 602.365 920.406 696.812 861.592 772.384 L 835.487 682.406 Z"/>
  <path d="M 414.096 186.488 C 409.318 177.071 397.693 173.252 388.132 177.962 L 346.848 198.294 C 337.287 203.002 333.412 214.452 338.192 223.869 C 341.583 230.549 348.415 234.41 355.517 234.41 C 358.425 234.41 361.377 233.761 364.157 232.395 L 405.44 212.062 C 415.002 207.355 418.877 195.905 414.096 186.488 Z"/>
  <path d="M 706.421 155.619 C 695.734 155.619 687.07 164.154 687.07 174.681 L 687.07 195.014 C 687.07 205.54 695.732 214.075 706.421 214.075 C 717.109 214.075 725.773 205.54 725.773 195.014 L 725.773 174.681 C 725.773 164.154 717.109 155.619 706.421 155.619 Z"/>
</svg>