<?xml version="1.0" encoding="utf-8"?>
<svg version="1.1" id="world-3" x="0px" y="0px" viewBox="0 0 1000 1000" style="enable-background:new 0 0 1000 1000;" xmlns="http://www.w3.org/2000/svg">
  <path d="M 499.448 9.868 C 766.776 9.868 983.289 228.327 983.289 499.439 C 983.289 771.672 766.776 990.131 499.448 990.131 C 232.12 990.131 16.71 771.672 16.71 499.439 C 16.71 228.327 232.12 9.868 499.448 9.868 Z M 85.201 499.439 C 85.201 611.469 128.281 719.018 205.607 797.439 C 272.992 865.778 359.156 904.988 449.737 916.191 C 462.995 880.342 497.24 847.853 467.413 824.326 C 447.529 808.642 430.958 792.958 413.284 776.154 C 406.658 769.432 388.982 730.221 393.401 723.499 C 406.658 703.334 408.866 687.65 413.284 664.123 C 419.913 636.116 404.448 627.154 381.25 611.469 C 345.901 590.184 313.866 558.815 279.621 533.048 C 261.945 519.605 240.958 510.642 234.329 489.357 C 227.701 466.951 225.492 441.184 212.236 423.259 C 180.201 375.086 184.619 340.357 189.038 283.221 C 189.038 267.537 186.829 246.251 184.619 226.086 C 119.444 303.387 85.201 399.733 85.201 499.439 Z M 793.287 797.439 C 870.614 719.018 913.696 611.469 913.696 499.439 C 913.696 388.53 870.614 280.981 793.287 202.56 C 728.112 136.462 648.576 97.251 560.204 83.808 L 560.204 103.973 L 569.041 125.259 L 535.901 156.627 L 517.122 149.905 L 492.82 125.259 L 469.621 97.251 L 436.483 83.808 C 400.029 90.53 365.784 101.733 331.539 117.417 C 331.539 121.898 333.75 125.259 333.75 131.981 C 350.319 125.259 367.993 121.898 385.668 115.176 C 391.191 112.936 415.493 129.74 422.121 134.221 C 413.284 145.424 374.621 171.191 372.413 184.635 C 372.413 189.116 386.772 200.319 386.772 209.281 L 386.772 248.492 C 395.609 241.77 433.168 200.319 436.483 200.319 C 467.413 191.357 517.122 241.77 521.54 259.695 C 524.855 276.499 471.832 315.71 445.319 340.357 C 426.542 359.402 388.982 368.364 400.029 397.492 C 404.448 405.334 424.331 445.665 413.284 453.507 C 400.029 464.71 379.04 432.221 372.413 425.499 C 352.527 401.973 311.656 409.815 284.039 409.815 C 284.039 451.266 281.831 482.635 318.284 510.642 C 352.527 537.529 386.772 570.018 428.75 587.943 C 458.577 600.266 510.495 570.018 535.901 590.184 C 572.355 615.951 605.496 641.717 646.367 659.642 C 662.938 668.605 723.694 705.575 707.124 731.342 C 696.077 749.266 682.821 767.191 673.984 786.236 C 665.147 806.402 646.367 829.928 628.692 843.372 C 609.914 859.056 587.821 884.823 576.774 913.951 C 659.624 898.266 732.532 859.056 793.287 797.439 Z M 859.568 347.078 C 875.032 368.364 868.404 429.981 868.404 455.748 C 868.404 503.92 872.823 552.093 857.359 598.026 C 831.951 578.981 807.648 542.011 803.23 493.838 C 799.916 443.424 805.438 404.214 797.707 359.402 C 791.079 322.432 752.416 285.462 734.74 250.733 C 719.275 217.123 702.705 184.635 687.24 152.146 C 691.659 154.387 700.497 156.627 704.915 158.868 C 734.74 186.875 762.358 216.003 793.287 244.011 C 818.695 269.778 838.579 315.71 859.568 347.078 Z" horiz-adv-x="1000"/>
</svg>