<?xml version="1.0" encoding="utf-8"?>
<svg version="1.1" id="zoom-out" x="0px" y="0px" viewBox="0 0 1000 1000" style="enable-background:new 0 0 1000 1000;" xmlns="http://www.w3.org/2000/svg">
  <path d="M 547.029 379.028 L 282.163 379.028 C 272.13 379.028 263.1 386.961 263.1 396.875 C 263.1 406.792 272.13 415.716 282.163 415.716 L 547.029 415.716 C 558.065 415.716 566.09 407.784 566.09 396.875 C 566.09 385.969 558.065 379.028 547.029 379.028 Z M 977.436 964.06 L 696.518 674.518 C 767.75 603.125 812.899 505.95 812.899 396.875 C 812.899 180.712 634.315 4.211 414.595 4.211 C 194.877 4.211 17.296 180.712 17.296 396.875 C 17.296 613.041 194.877 790.534 414.595 790.534 C 510.91 790.534 599.2 756.82 668.425 700.299 L 950.347 989.841 C 954.361 993.807 959.377 995.789 964.393 995.789 C 968.408 995.789 973.423 993.807 977.436 990.831 C 984.459 983.891 984.459 971.992 977.436 964.06 Z M 54.418 396.875 C 54.418 201.535 215.946 41.891 414.595 41.891 C 613.245 41.891 774.773 201.535 774.773 396.875 C 774.773 592.216 613.245 752.854 414.595 752.854 C 215.946 752.854 54.418 593.208 54.418 396.875 Z" horiz-adv-x="1000"/>
</svg>